<svg width="51" height="51" viewBox="0 0 51 51" fill="none" xmlns="http://www.w3.org/2000/svg">
<path d="M26.0107 4.91113L44.7607 12.4111C45.4898 12.7027 46.0732 13.5777 46.0732 14.3486V21.2652C46.0732 22.4111 45.1357 23.3486 43.9898 23.3486H6.48983C5.34399 23.3486 4.40649 22.4111 4.40649 21.2652V14.3486C4.40649 13.5777 4.98984 12.7027 5.719 12.4111L24.469 4.91113C24.8857 4.74447 25.594 4.74447 26.0107 4.91113Z" stroke="#A1D283" stroke-width="2.5" stroke-miterlimit="10" stroke-linecap="round" stroke-linejoin="round"/>
<path d="M46.0732 46.266H4.40649V40.016C4.40649 38.8701 5.34399 37.9326 6.48983 37.9326H43.9898C45.1357 37.9326 46.0732 38.8701 46.0732 40.016V46.266Z" stroke="#A1D283" stroke-width="2.5" stroke-miterlimit="10" stroke-linecap="round" stroke-linejoin="round"/>
<path d="M8.573 37.9329V23.3496" stroke="#A1D283" stroke-width="2.5" stroke-miterlimit="10" stroke-linecap="round" stroke-linejoin="round"/>
<path d="M16.9065 37.9329V23.3496" stroke="#A1D283" stroke-width="2.5" stroke-miterlimit="10" stroke-linecap="round" stroke-linejoin="round"/>
<path d="M25.2397 37.9329V23.3496" stroke="#A1D283" stroke-width="2.5" stroke-miterlimit="10" stroke-linecap="round" stroke-linejoin="round"/>
<path d="M33.573 37.9329V23.3496" stroke="#A1D283" stroke-width="2.5" stroke-miterlimit="10" stroke-linecap="round" stroke-linejoin="round"/>
<path d="M41.9065 37.9329V23.3496" stroke="#A1D283" stroke-width="2.5" stroke-miterlimit="10" stroke-linecap="round" stroke-linejoin="round"/>
<path d="M2.323 46.2656H48.1563" stroke="#A1D283" stroke-width="2.5" stroke-miterlimit="10" stroke-linecap="round" stroke-linejoin="round"/>
<path d="M25.2397 18.1406C26.9656 18.1406 28.3647 16.7415 28.3647 15.0156C28.3647 13.2897 26.9656 11.8906 25.2397 11.8906C23.5139 11.8906 22.1147 13.2897 22.1147 15.0156C22.1147 16.7415 23.5139 18.1406 25.2397 18.1406Z" stroke="#A1D283" stroke-width="2.5" stroke-miterlimit="10" stroke-linecap="round" stroke-linejoin="round"/>
</svg>
