<svg width="494" height="303" viewBox="0 0 494 303" fill="none" xmlns="http://www.w3.org/2000/svg">
<g clip-path="url(#clip0_1069_2914)">
<path opacity="0.1" d="M493.501 194.61C493.509 202.819 492.515 210.999 490.541 218.968C489.877 221.653 489.106 224.282 488.227 226.856C487.151 230.033 485.905 233.149 484.493 236.191C483.781 237.73 483.029 239.239 482.237 240.716C482.25 249.135 480.515 257.464 477.143 265.179C471.047 279.02 460.176 290.212 446.512 296.714C437.969 300.787 428.632 302.929 419.167 302.988H94.0886C79.6252 303.018 65.4116 299.222 52.893 291.984L52.7004 291.875C50.9173 290.832 49.1788 289.728 47.485 288.563C43.674 285.932 40.0935 282.983 36.7822 279.746C32.3003 275.37 28.351 270.48 25.0162 265.179C17.1839 252.752 13.0347 238.363 13.0493 223.677C5.11738 209.771 0.492188 193.113 0.492188 175.212C0.492188 152.627 7.84228 132.025 19.918 116.429C22.4356 113.171 25.1933 110.105 28.168 107.257C31.1032 104.439 34.258 101.859 37.6026 99.5405C40.2785 97.6838 43.0752 96.0072 45.974 94.5217C47.1837 93.9069 48.3975 93.3255 49.6323 92.786C50.7164 92.305 51.813 91.8575 52.9223 91.4351C54.2533 90.9304 55.6011 90.4662 56.9656 90.0424C58.3302 89.6185 59.6766 89.2477 61.0048 88.9299C62.9582 88.4531 64.945 88.0655 66.9653 87.7672C68.6396 87.5204 70.3138 87.3489 71.9881 87.2193C73.3192 87.1189 74.6628 87.0645 76.0148 87.0478H76.7473C78.2374 87.0478 79.7191 87.1063 81.1883 87.2067C81.3432 86.8972 81.5106 86.5835 81.6655 86.2782C82.2514 85.1615 82.8584 84.049 83.4695 82.9616C83.4681 82.9519 83.4681 82.942 83.4695 82.9323C83.5741 82.7399 83.6788 82.5518 83.7876 82.3677C84.2815 81.4769 84.7964 80.5944 85.3238 79.7203C85.5665 79.302 85.8051 78.9089 86.0521 78.5158C86.1043 78.4181 86.1616 78.3231 86.2237 78.2314C86.4748 77.8131 86.7301 77.3949 86.9897 76.9766C88.2816 74.9133 89.6253 72.8863 91.0205 70.8955L91.3763 70.3852C91.5939 70.0757 91.7948 69.7746 92.0376 69.4651C92.6152 68.6579 93.2096 67.8465 93.8082 67.0519C94.2267 66.4831 94.6453 65.9185 95.0974 65.3789C96.1856 63.9848 97.3018 62.5907 98.4459 61.1966C99.59 59.8025 100.779 58.4265 102.012 57.0686C102.18 56.8804 102.347 56.6964 102.523 56.5123L104.31 54.5633C104.398 54.4713 104.473 54.3877 104.557 54.304C104.771 54.074 104.976 53.844 105.206 53.6223C106.164 52.606 107.148 51.6106 108.136 50.6194C113.163 45.6162 118.519 40.9537 124.167 36.6628C124.389 36.4871 124.615 36.3199 124.837 36.1526C125.9 35.3537 126.98 34.5633 128.06 33.7853C134 29.5275 140.209 25.6577 146.648 22.2002C147.092 21.9451 147.544 21.7067 148 21.4724C153.774 18.4206 159.711 15.6896 165.785 13.2917C169.096 11.9827 172.483 10.753 175.89 9.62798C178.158 8.88352 180.435 8.1767 182.742 7.5117C186.347 6.47448 189.977 5.5446 193.633 4.72206C204.402 2.30752 215.358 0.815969 226.382 0.263658C229.73 0.0935755 233.117 0.00574692 236.541 0.000170433C253.061 -0.0216841 269.518 2.05834 285.513 6.19007C285.679 6.4398 285.905 6.64338 286.171 6.78166C286.436 6.91995 286.733 6.98839 287.033 6.98054H288.439C289.05 7.14784 289.657 7.31513 290.268 7.49079C293.681 8.47225 297.045 9.54433 300.36 10.707L301.197 11.0082C309.379 13.9153 317.34 17.4097 325.018 21.4641C331.939 25.1101 338.603 29.2239 344.963 33.777C345.942 34.4796 346.908 35.1878 347.859 35.9016C349.014 35.1627 350.189 34.4545 351.384 33.777C355.996 31.1523 360.894 29.0655 365.983 27.5578C376.622 24.4119 387.88 23.972 398.732 26.278C412.65 29.2266 425.249 36.5457 435.424 46.9556C439.567 51.2149 443.255 55.8937 446.428 60.9164C446.658 61.276 446.889 61.6399 447.11 62.008C449.838 66.4534 452.182 71.1224 454.117 75.9645C454.189 76.1444 454.26 76.3117 454.322 76.4873C456.109 81.0215 457.551 85.6842 458.634 90.4355C458.684 90.6781 458.743 90.9165 458.793 91.1591C459.806 95.7573 460.494 100.421 460.852 105.116C460.852 105.283 460.852 105.454 460.886 105.63C461.061 108.059 461.151 110.512 461.154 112.991C461.154 115.208 461.078 117.408 460.94 119.591C460.94 119.829 460.907 120.076 460.886 120.323C460.848 120.954 460.794 121.577 460.739 122.213C463.936 124.79 466.928 127.61 469.688 130.649C470.908 131.979 472.088 133.359 473.229 134.79C476.706 139.143 479.761 143.816 482.354 148.746C489.432 162.096 493.501 177.801 493.501 194.61Z" fill="#A1D283"/>
<path opacity="0.1" d="M446.201 295.167C446.201 298.023 436.352 300.7 419.166 303H94.0874C79.6241 303.031 65.4104 299.234 52.8918 291.996L52.6992 291.888C57.6383 290.089 66.5539 288.412 78.6882 286.898L79.2324 286.831C84.6738 286.166 90.7556 285.535 97.4025 284.936C97.5699 284.936 97.7415 284.911 97.909 284.89C103.183 284.422 108.793 283.983 114.74 283.573C114.928 283.573 115.112 283.54 115.301 283.531C117.594 283.367 119.936 283.211 122.324 283.063L123.245 283.004C140.637 281.925 160.406 281.064 181.845 280.495H181.87C184.872 280.411 187.907 280.337 190.974 280.273C194.384 280.192 197.836 280.121 201.329 280.06C203.996 280.001 206.695 279.959 209.403 279.918H209.466C221.684 279.734 234.308 279.642 247.217 279.642C279.137 279.642 309.308 280.223 336.042 281.269H336.117C340.227 281.427 344.262 281.603 348.197 281.783L351.546 281.942C355.985 282.154 360.31 282.381 364.521 282.624C414.038 285.438 446.201 290.01 446.201 295.167Z" fill="#A1D283"/>
<g opacity="0.2">
<path d="M285.244 277.721C285.23 278.172 285.178 278.622 285.089 279.064C282.176 278.601 279.246 278.183 276.299 277.809C276.299 277.692 276.299 277.571 276.299 277.45C276.326 276.195 276.687 274.971 277.345 273.903C278.208 272.539 279.518 271.686 280.962 271.732C282.406 271.778 283.657 272.711 284.432 274.12C285.017 275.227 285.298 276.47 285.244 277.721Z" fill="black"/>
<path d="M285.484 270.575C285.586 267.34 283.665 264.655 281.193 264.577C278.72 264.499 276.633 267.057 276.531 270.292C276.429 273.526 278.35 276.212 280.822 276.29C283.294 276.368 285.382 273.809 285.484 270.575Z" fill="black"/>
<path d="M285.712 263.414C285.815 260.18 283.893 257.495 281.421 257.416C278.949 257.338 276.862 259.897 276.759 263.132C276.657 266.366 278.578 269.052 281.051 269.13C283.523 269.208 285.61 266.649 285.712 263.414Z" fill="black"/>
<path d="M285.937 256.254C286.039 253.02 284.118 250.334 281.646 250.256C279.173 250.178 277.086 252.737 276.984 255.972C276.882 259.206 278.803 261.891 281.275 261.969C283.748 262.048 285.835 259.489 285.937 256.254Z" fill="black"/>
<path d="M286.162 249.094C286.264 245.86 284.343 243.174 281.87 243.096C279.398 243.018 277.311 245.577 277.209 248.811C277.106 252.046 279.028 254.731 281.5 254.809C283.972 254.887 286.059 252.329 286.162 249.094Z" fill="black"/>
<path d="M266.45 199.411C265.861 198.614 265.329 197.775 264.86 196.902L276.689 195.342L263.956 195.036C262.819 192.343 262.245 189.447 262.267 186.524C262.29 183.602 262.908 180.715 264.085 178.039L280.878 187.429L265.496 175.367C267.048 172.859 269.1 170.698 271.526 169.018C273.951 167.339 276.697 166.177 279.591 165.605C282.486 165.034 285.468 165.064 288.35 165.696C291.232 166.328 293.954 167.546 296.343 169.276C298.733 171.005 300.74 173.209 302.24 175.748C303.739 178.287 304.698 181.109 305.057 184.035C305.416 186.962 305.168 189.931 304.327 192.757C303.486 195.583 302.071 198.206 300.17 200.461C301.087 201.701 301.866 203.038 302.493 204.447L286.969 211.891L303.431 206.944C304.468 210.362 304.635 213.984 303.917 217.483C303.199 220.982 301.62 224.246 299.321 226.981C301.711 230.222 303.14 234.068 303.445 238.082C303.75 242.096 302.919 246.114 301.045 249.678C299.172 253.242 296.334 256.207 292.853 258.234C289.373 260.261 285.392 261.269 281.366 261.143C277.34 261.016 273.43 259.759 270.085 257.517C266.739 255.274 264.093 252.136 262.448 248.462C260.804 244.787 260.227 240.725 260.785 236.738C261.342 232.752 263.011 229.002 265.601 225.919C262.745 222.047 261.275 217.328 261.427 212.52C261.579 207.713 263.344 203.096 266.438 199.411H266.45Z" fill="#A1D283"/>
<path opacity="0.1" d="M304.344 213.873C304.197 218.684 302.427 223.303 299.321 226.981C301.711 230.221 303.14 234.068 303.445 238.082C303.75 242.095 302.919 246.114 301.045 249.677C299.172 253.241 296.334 256.206 292.853 258.234C289.373 260.261 285.392 261.269 281.366 261.142C277.34 261.015 273.43 259.759 270.085 257.516C266.739 255.274 264.093 252.136 262.448 248.462C260.804 244.787 260.227 240.724 260.785 236.738C261.342 232.751 263.011 229.002 265.601 225.919C262.851 222.184 304.419 211.469 304.344 213.873Z" fill="black"/>
</g>
<g opacity="0.2">
<path d="M221.623 277.721C221.609 278.172 221.557 278.622 221.468 279.064C218.554 278.601 215.624 278.183 212.678 277.809C212.678 277.692 212.678 277.571 212.678 277.45C212.705 276.195 213.066 274.971 213.724 273.903C214.586 272.539 215.897 271.686 217.341 271.732C218.785 271.778 220.036 272.711 220.811 274.12C221.396 275.227 221.677 276.47 221.623 277.721Z" fill="black"/>
<path d="M221.859 270.577C221.961 267.342 220.04 264.657 217.568 264.579C215.095 264.501 213.008 267.059 212.906 270.294C212.804 273.528 214.725 276.214 217.197 276.292C219.669 276.37 221.757 273.811 221.859 270.577Z" fill="black"/>
<path d="M222.087 263.416C222.19 260.182 220.268 257.496 217.796 257.418C215.324 257.34 213.237 259.899 213.134 263.134C213.032 266.368 214.953 269.054 217.426 269.132C219.898 269.21 221.985 266.651 222.087 263.416Z" fill="black"/>
<path d="M222.312 256.256C222.414 253.022 220.493 250.336 218.021 250.258C215.548 250.18 213.461 252.739 213.359 255.974C213.257 259.208 215.178 261.893 217.65 261.971C220.123 262.049 222.21 259.491 222.312 256.256Z" fill="black"/>
<path d="M222.537 249.095C222.639 245.861 220.718 243.175 218.245 243.097C215.773 243.019 213.686 245.578 213.584 248.812C213.481 252.047 215.403 254.732 217.875 254.81C220.347 254.888 222.434 252.33 222.537 249.095Z" fill="black"/>
<path d="M202.829 199.411C202.24 198.614 201.708 197.775 201.239 196.902L213.068 195.342L200.335 195.036C199.198 192.343 198.624 189.447 198.646 186.524C198.668 183.602 199.287 180.715 200.464 178.039L217.257 187.429L201.875 175.367C203.427 172.859 205.479 170.698 207.905 169.018C210.33 167.339 213.076 166.177 215.97 165.605C218.865 165.034 221.847 165.064 224.729 165.696C227.611 166.328 230.332 167.546 232.722 169.276C235.112 171.005 237.119 173.209 238.619 175.748C240.118 178.287 241.077 181.109 241.436 184.035C241.795 186.962 241.547 189.931 240.706 192.757C239.865 195.583 238.45 198.206 236.549 200.461C237.466 201.701 238.245 203.038 238.872 204.447L223.348 211.891L239.81 206.944C240.847 210.362 241.014 213.984 240.296 217.483C239.578 220.982 237.998 224.246 235.7 226.981C238.09 230.222 239.519 234.068 239.824 238.082C240.129 242.096 239.297 246.114 237.424 249.678C235.551 253.242 232.712 256.207 229.232 258.234C225.752 260.261 221.771 261.269 217.745 261.143C213.718 261.016 209.809 259.759 206.464 257.517C203.118 255.274 200.472 252.136 198.827 248.462C197.183 244.787 196.606 240.725 197.164 236.738C197.721 232.752 199.39 229.002 201.98 225.919C199.124 222.047 197.654 217.328 197.806 212.52C197.958 207.713 199.723 203.096 202.817 199.411H202.829Z" fill="#A1D283"/>
<path opacity="0.1" d="M240.722 213.873C240.576 218.684 238.806 223.303 235.7 226.981C238.09 230.221 239.519 234.068 239.824 238.082C240.129 242.095 239.297 246.114 237.424 249.677C235.551 253.241 232.712 256.206 229.232 258.234C225.752 260.261 221.771 261.269 217.745 261.142C213.718 261.015 209.809 259.759 206.464 257.516C203.118 255.274 200.472 252.136 198.827 248.462C197.183 244.787 196.606 240.724 197.164 236.738C197.721 232.751 199.39 229.002 201.98 225.919C199.23 222.184 240.798 211.469 240.722 213.873Z" fill="black"/>
</g>
<g opacity="0.2">
<path d="M395.412 282.296C395.38 283.151 395.278 284.002 395.106 284.839C389.497 283.944 383.848 283.144 378.158 282.439C378.158 282.213 378.158 281.983 378.158 281.749C378.211 279.333 378.908 276.976 380.176 274.919C381.85 272.296 384.361 270.653 387.137 270.736C389.912 270.82 392.327 272.623 393.834 275.337C394.97 277.475 395.515 279.878 395.412 282.296Z" fill="black"/>
<path d="M395.867 268.527C396.064 262.298 392.363 257.127 387.601 256.976C382.839 256.826 378.819 261.753 378.622 267.982C378.425 274.211 382.126 279.383 386.888 279.533C391.65 279.683 395.67 274.756 395.867 268.527Z" fill="black"/>
<path d="M396.303 254.742C396.5 248.513 392.799 243.341 388.037 243.191C383.275 243.041 379.255 247.968 379.058 254.197C378.861 260.426 382.562 265.597 387.324 265.748C392.086 265.898 396.106 260.971 396.303 254.742Z" fill="black"/>
<path d="M396.742 240.957C396.939 234.728 393.238 229.556 388.476 229.406C383.714 229.256 379.694 234.183 379.497 240.412C379.3 246.641 383.001 251.812 387.763 251.963C392.525 252.113 396.545 247.185 396.742 240.957Z" fill="black"/>
<path d="M396.686 226.544C396.873 220.312 393.162 215.144 388.398 215.001C383.634 214.858 379.62 219.795 379.433 226.027C379.245 232.259 382.956 237.426 387.72 237.569C392.485 237.712 396.499 232.776 396.686 226.544Z" fill="black"/>
<path d="M359.227 131.539C358.097 130.004 357.075 128.393 356.167 126.717L378.937 123.714L354.43 123.124C352.241 117.94 351.133 112.364 351.175 106.738C351.217 101.111 352.407 95.5525 354.673 90.4014L387.007 108.473L357.398 85.2529C360.391 80.4365 364.346 76.2878 369.015 73.0655C373.684 69.8431 378.967 67.6161 384.535 66.5233C390.103 65.4304 395.836 65.4951 401.378 66.7134C406.92 67.9317 412.151 70.2774 416.746 73.6043C421.34 76.9313 425.2 81.1682 428.084 86.051C430.969 90.9337 432.815 96.3577 433.51 101.985C434.204 107.612 433.731 113.322 432.12 118.759C430.509 124.195 427.795 129.242 424.147 133.584C425.91 135.974 427.41 138.547 428.621 141.259L398.731 155.6L430.421 146.065C432.418 152.637 432.744 159.603 431.367 166.333C429.991 173.062 426.957 179.342 422.54 184.605C427.14 190.843 429.891 198.249 430.477 205.975C431.064 213.702 429.463 221.437 425.857 228.297C422.251 235.157 416.785 240.865 410.086 244.767C403.387 248.67 395.723 250.61 387.972 250.366C380.221 250.122 372.695 247.703 366.255 243.387C359.815 239.07 354.721 233.03 351.554 225.956C348.388 218.883 347.278 211.062 348.35 203.388C349.423 195.714 352.635 188.496 357.619 182.56C352.125 175.105 349.297 166.023 349.588 156.77C349.88 147.516 353.274 138.629 359.227 131.535V131.539Z" fill="#A1D283"/>
<path opacity="0.1" d="M432.184 159.377C431.91 168.632 428.518 177.524 422.557 184.614C427.157 190.852 429.908 198.257 430.495 205.984C431.081 213.71 429.48 221.446 425.874 228.306C422.268 235.166 416.803 240.873 410.104 244.776C403.404 248.679 395.741 250.619 387.99 250.375C380.239 250.13 372.713 247.712 366.273 243.395C359.833 239.078 354.738 233.038 351.572 225.965C348.406 218.891 347.295 211.071 348.368 203.396C349.44 195.722 352.652 188.504 357.637 182.568C352.304 175.371 432.331 154.747 432.184 159.377Z" fill="black"/>
</g>
<path d="M66.5586 283.034L70.9494 283.021H77.14L84.9673 155.969L162.482 26.7216L159.113 23.1081V13.957L75.2816 152.975L66.5586 283.034Z" fill="#F1C0C0"/>
<path opacity="0.1" d="M71.418 283.021H77.1398L84.9671 155.969L162.482 26.721L159.113 23.1074L79.1573 154.032L71.418 283.021Z" fill="black"/>
<path d="M53.6211 284.091L254.472 299.449L254.643 299.462L449.023 287.517L449.17 287.508V279.307L234.987 275.379L56.2958 275.208H54.9898L54.8475 276.128L53.6211 284.091Z" fill="#F1C0C0"/>
<path opacity="0.1" d="M53.6211 284.091L254.472 299.449L254.643 299.462L449.023 287.517L449.17 287.358V279.478H448.998L254.472 285.969L56.2958 275.208H56.2665L55.9149 275.438L54.8475 276.128L53.6211 284.091Z" fill="black"/>
<path opacity="0.1" d="M53.6211 284.092L254.472 299.449V285.97L55.9149 275.438L54.8475 276.129L53.6211 284.092Z" fill="black"/>
<path d="M159.088 22.9361L247.636 117.901L244.899 284.945L252.421 285.852L252.546 285.869H260.068L260.968 125.074L426.776 180.415L429.572 278.951L435.625 279.629L437.675 279.859L432.929 173.581L259.599 112.778L164.559 14.0527H159.088V22.9361Z" fill="#F1C0C0"/>
<path opacity="0.1" d="M260.285 122L260.967 125.074L426.775 180.415L429.572 278.952L435.624 279.629L430.877 178.366L260.285 122Z" fill="black"/>
<path opacity="0.1" d="M159.088 22.9361L247.636 117.901L244.899 284.945L252.421 285.852L254.472 112.435L159.088 14.0527V22.9361Z" fill="black"/>
<path d="M260.607 189.039L321.421 201.004L321.442 201.008L427.956 221.975L432.832 220.022L432.815 219.679L432.497 212.882L260.67 178.189L260.607 189.039Z" fill="#F1C0C0"/>
<path opacity="0.1" d="M321.443 201.009L427.957 221.975L432.833 220.022L432.816 219.679L321.443 201.009Z" fill="black"/>
<path d="M325.516 146.617L327.161 237.099L328.01 283.519L335.499 283.268L340.212 283.109L338.747 147.926L335.499 146.847L334.787 146.617H325.516Z" fill="#F1C0C0"/>
<path opacity="0.1" d="M325.582 146.596V146.617L327.16 237.098L328.01 283.518L335.498 283.267V146.596H325.582Z" fill="black"/>
<path d="M208.219 169.725C208.658 169.964 209.078 170.236 209.474 170.541C209.943 170.951 210.364 171.412 210.73 171.917C212.526 174.238 214.183 176.935 214.007 179.863C214.011 180.289 213.931 180.712 213.77 181.106C213.61 181.501 213.374 181.86 213.074 182.163C212.333 182.795 211.27 182.824 210.299 182.824C209.244 182.824 208.135 182.824 207.222 182.28C206.31 181.737 205.548 180.679 204.468 180.704C204.316 180.729 204.16 180.729 204.008 180.704C203.635 180.582 203.56 180.093 203.317 179.784C202.899 179.227 202.015 179.365 201.358 179.608C200.701 179.851 199.973 180.214 199.324 179.934C198.947 179.736 198.639 179.428 198.441 179.052C196.888 176.542 196.557 173.527 196.264 170.612C196.084 168.838 194.711 162.791 198.499 164.167C200.174 164.769 201.739 165.973 203.263 166.856L208.219 169.725Z" fill="black"/>
<path d="M204.477 170.323C204.816 170.566 205.226 170.689 205.642 170.672C206.059 170.656 206.458 170.5 206.775 170.231C207.399 169.668 207.796 168.898 207.893 168.064C208.312 167.935 208.525 168.483 208.793 168.817C209.262 169.386 210.216 169.378 210.643 169.984C210.94 170.402 210.873 170.984 211.082 171.456C211.355 172.067 212.028 172.385 212.489 172.878C212.924 173.417 213.238 174.044 213.41 174.714L214.096 176.772C214.425 177.628 214.636 178.524 214.724 179.436C214.767 179.892 214.719 180.352 214.583 180.79C214.446 181.227 214.224 181.633 213.929 181.983C213.008 182.975 211.497 183.079 210.162 183.05C209.716 183.059 209.271 183.007 208.839 182.895C207.654 182.527 206.897 181.335 206.583 180.135C206.269 178.934 206.302 177.675 206.118 176.446C205.919 175.238 205.568 174.06 205.072 172.941C204.703 172.071 203.69 170.775 203.707 169.85C204.009 169.85 204.226 170.126 204.477 170.323Z" fill="black"/>
<path d="M205.979 166.086C205.784 165.493 205.669 164.875 205.64 164.25C205.64 162.996 206.214 161.816 206.791 160.695L202.007 161.344C201.429 161.423 200.785 161.54 200.458 162.021C200.334 162.259 200.27 162.524 200.27 162.793C200.27 163.061 200.334 163.326 200.458 163.564C200.698 164.042 200.889 164.542 201.028 165.058C201.038 165.509 201.09 165.958 201.182 166.4C201.331 166.725 201.54 167.018 201.798 167.266C203.166 168.78 204.192 170.566 205.213 172.335C205.184 172.285 208.097 170.03 207.98 169.294C207.913 168.876 207.072 168.374 206.804 167.973C206.434 167.39 206.156 166.754 205.979 166.086Z" fill="#7C5052"/>
<path d="M247.001 149.745V153.865L176.401 167.625L172.738 169.841H160.102V167.52L229.467 150.774L247.001 149.745Z" fill="#F1C0C0"/>
<path opacity="0.1" d="M247.001 153.865L176.401 167.625L172.738 169.842H160.102L229.982 154.898L247.001 153.865Z" fill="black"/>
<path d="M190.317 266.693C189.53 265.741 188.444 265.083 187.236 264.827C186.027 264.57 184.768 264.729 183.661 265.279C183.425 265.391 183.216 265.554 183.05 265.756C182.632 266.342 182.9 267.149 182.937 267.872C183.034 269.637 181.627 271.072 180.363 272.306C179.685 272.966 178.994 273.673 178.689 274.572C178.383 275.472 178.609 276.613 179.43 277.082C179.788 277.261 180.177 277.369 180.577 277.4C181.915 277.661 183.286 277.699 184.637 277.513C185.972 277.258 187.282 276.501 187.86 275.271C187.971 274.938 188.156 274.633 188.4 274.38C189.136 273.799 190.267 274.48 191.104 274.066C191.794 273.723 191.824 273.184 191.832 272.473C191.857 270.507 191.564 268.282 190.317 266.693Z" fill="#A1D283"/>
<path d="M200.362 266.617C200.877 267.973 200.948 269.449 201.015 270.896C201.053 271.732 201.078 272.628 200.626 273.334C200.174 274.041 199.291 274.413 198.445 274.589C196.7 274.949 194.678 274.61 193.552 273.226C192.69 272.167 192.51 270.716 192.669 269.344C192.803 268.219 193.088 266.902 192.28 266.103C192.07 265.89 191.798 265.739 191.606 265.509C191.187 264.999 191.254 264.229 191.48 263.602C191.775 263.002 191.995 262.369 192.137 261.716C192.171 261.406 197.805 261.933 198.324 262.188C199.031 262.535 198.922 263.117 199.136 263.819C199.433 264.798 200.002 265.681 200.362 266.617Z" fill="#A1D283"/>
<path d="M201.396 206.534C202.501 207.249 202.928 208.654 203.1 209.959C203.573 213.535 202.744 217.149 202.681 220.758C202.622 225.815 204.087 230.963 202.836 235.861C202.087 238.788 202.723 242.134 202.02 245.091C201.81 245.97 201.425 246.798 201.224 247.676C200.806 249.579 201.245 251.57 201.835 253.431C202.024 253.933 202.144 254.457 202.191 254.991C202.163 255.812 201.954 256.618 201.58 257.35L199.069 263.285C198.788 263.95 197.683 264.058 196.976 264.146C195.645 264.305 194.159 264.418 193.1 263.594C192.041 262.77 191.786 261.39 191.622 260.102C191.309 257.629 191.169 255.137 191.204 252.645C191.25 251.994 191.192 251.34 191.032 250.708C190.802 249.993 190.296 249.374 190.157 248.617C189.982 247.638 190.48 246.676 190.664 245.689C190.79 244.788 190.776 243.872 190.622 242.975C190.459 241.637 190.27 240.298 190.057 238.968C189.756 237.107 190.187 235.271 190.475 233.406C190.748 231.653 190.4 229.867 190.057 228.128C190.087 229.54 189.91 230.949 189.534 232.31C189.312 232.975 188.994 233.611 188.801 234.288C187.943 237.329 189.772 240.52 189.513 243.669C189.391 245.141 188.814 246.597 188.977 248.048C189.09 249.111 189.584 250.085 189.923 251.097C190.262 252.109 190.438 253.268 189.923 254.213C188.563 256.781 189.58 260.273 190.798 262.908C191.045 263.375 191.26 263.859 191.442 264.355C191.802 265.543 191.501 266.819 191.597 268.057C191.247 268.114 190.888 268.091 190.548 267.988C190.207 267.886 189.895 267.708 189.634 267.467C189.45 267.275 189.299 267.049 189.119 266.848C188.616 266.369 188.021 265.998 187.37 265.756C186.987 265.542 186.552 265.442 186.114 265.468C185.654 265.596 185.24 265.853 184.921 266.208C184.507 266.572 184.068 266.906 183.607 267.208C183.41 267.358 183.181 267.46 182.937 267.505C182.815 267.523 182.689 267.503 182.579 267.447C182.468 267.391 182.378 267.301 182.322 267.191C182.296 267.121 182.28 267.048 182.276 266.973C182.12 265.711 182.038 264.44 182.029 263.167C182.029 260.98 179.409 259.474 179.078 257.312C178.814 255.568 179.304 253.791 179.141 252.034C179.061 251.131 178.81 250.244 178.827 249.341C178.827 248.755 178.961 248.182 179.007 247.601C179.045 246.955 179.035 246.308 178.977 245.664L178.848 243.644C178.722 241.649 178.584 239.612 177.797 237.789C176.864 235.66 176.311 233.383 176.165 231.064C176.081 229.6 176.135 228.136 175.968 226.668C175.817 225.342 175.482 224.025 175.579 222.695C175.658 221.666 175.997 220.67 176.077 219.642C176.24 217.663 175.486 215.739 174.896 213.845C174.306 211.95 173.871 209.851 174.645 208.023C174.756 207.723 174.94 207.455 175.181 207.245C175.478 207.049 175.816 206.923 176.169 206.877C183.35 205.37 190.711 204.901 198.026 205.484C199.219 205.552 200.376 205.912 201.396 206.534Z" fill="black"/>
<path d="M177.635 162.113C181.339 162.113 184.341 159.113 184.341 155.413C184.341 151.713 181.339 148.713 177.635 148.713C173.932 148.713 170.93 151.713 170.93 155.413C170.93 159.113 173.932 162.113 177.635 162.113Z" fill="#7C5052"/>
<path d="M176.337 163.781C176.433 164.164 176.433 164.565 176.337 164.948C176.231 165.216 176.083 165.464 175.897 165.684C175.248 166.521 174.53 167.301 173.75 168.018C174.147 168.905 174.863 169.61 175.755 169.996C176.641 170.373 177.57 170.638 178.522 170.787C178.997 170.911 179.491 170.945 179.978 170.887C180.428 170.774 180.853 170.581 181.234 170.318L184.959 168.089C185.521 167.785 186.042 167.409 186.508 166.972C187.191 166.271 187.578 165.333 187.588 164.354C187.605 164.179 187.558 164.003 187.454 163.861C187.311 163.736 187.132 163.662 186.943 163.647C185.633 163.359 184.599 162.296 184.013 161.092C183.484 159.857 183.141 158.55 182.996 157.215L179.024 159.306C178.434 159.62 177.848 159.933 177.237 160.205C176.847 160.381 176.06 160.527 175.784 160.883C175.257 161.539 176.199 162.991 176.337 163.781Z" fill="#7C5052"/>
<path d="M173.776 166.801C173.21 167.264 172.769 167.861 172.491 168.537C172.231 169.373 172.491 170.256 172.725 171.084C173.824 174.613 174.663 178.218 175.237 181.87C175.588 184.379 175.718 186.927 175.89 189.465C176.241 194.643 176.752 202.899 177.434 208.043C179.946 208.156 182.394 207.424 184.885 207.157C189.539 206.663 194.332 207.792 198.89 206.738C197.785 202.376 196.68 194.927 195.575 190.569C195.086 188.852 194.747 187.096 194.562 185.321C194.466 184.045 194.524 182.765 194.541 181.481C194.579 178.972 194.441 176.462 194.303 173.953C194.144 171.025 193.985 168.098 193.29 165.233C193.241 164.868 193.07 164.53 192.804 164.275C192.386 163.97 191.841 164.078 191.343 164.145C189.818 164.339 188.275 163.973 186.999 163.116C186.446 162.74 185.705 162.28 185.19 162.698C184.971 162.95 184.826 163.259 184.772 163.589C184.544 164.181 184.192 164.717 183.741 165.162C183.289 165.607 182.747 165.95 182.152 166.169C180.959 166.601 179.71 166.858 178.443 166.931C178.055 167.014 177.651 166.968 177.292 166.801C176.698 166.437 176.656 165.128 175.906 165.04C175.249 164.965 174.22 166.379 173.776 166.801Z" fill="black"/>
<path d="M183.678 177.014C182.134 175.538 181.456 173.397 180.33 171.577C179.563 170.354 178.583 169.277 177.437 168.399C176.861 168.018 176.333 167.571 175.863 167.065C175.466 166.575 175.164 165.923 174.562 165.735C174.313 165.68 174.054 165.687 173.808 165.755C173.563 165.823 173.337 165.949 173.151 166.123C172.782 166.475 172.433 166.846 172.105 167.236C170.33 169.072 167.212 169.327 165.805 171.452C165.426 171.902 165.168 172.442 165.056 173.02C164.651 176.113 165.451 179.242 167.291 181.761C167.647 182.345 168.194 182.788 168.84 183.016C168.752 183.796 168.856 184.585 169.141 185.316C169.916 187.963 170.869 190.555 171.992 193.075C171.723 194.06 171.536 195.066 171.431 196.082C171.138 198.637 171.41 201.23 171.134 203.79C170.908 205.881 170.296 207.918 170.276 210.013C170.276 210.348 170.305 210.745 170.594 210.917C170.747 210.996 170.919 211.032 171.092 211.021L176.24 211.176C179.229 211.264 182.247 211.352 185.189 210.8C185.581 210.742 185.961 210.622 186.315 210.444C187.311 209.888 187.642 208.633 187.801 207.516C188.009 206.068 188.091 204.604 188.048 203.142C188.672 205.111 189.413 207.148 191.296 208.002C192.292 208.453 193.431 208.42 194.523 208.39C196.878 208.286 199.225 208.044 201.551 207.667C201.694 207.685 201.84 207.669 201.976 207.62C202.112 207.572 202.235 207.492 202.335 207.387C202.434 207.283 202.508 207.157 202.55 207.018C202.592 206.88 202.601 206.734 202.577 206.592L202.602 204.309C202.652 199.67 201.501 195.237 201.053 190.62C200.911 189.164 200.923 187.692 200.567 186.266C200.421 185.668 200.207 185.082 200.078 184.48C199.966 183.89 199.896 183.293 199.868 182.694L199.542 178.093C199.387 175.965 199.165 173.911 199.002 171.786C198.912 169.718 198.612 167.663 198.106 165.655C197.742 164.4 196.984 162.978 195.674 162.824C194.975 162.744 194.297 163.049 193.632 163.263C191.996 163.777 190.24 163.77 188.609 163.242C188.105 163.043 187.58 162.903 187.043 162.824C186.774 162.787 186.499 162.823 186.247 162.927C185.996 163.031 185.776 163.201 185.612 163.417C185.449 163.744 185.373 164.107 185.39 164.471C185.193 168.65 184.829 172.953 183.678 177.014Z" fill="#A1D283"/>
<path d="M176.943 177.14C175.014 175.107 173.034 173.037 170.548 171.744C169.568 171.234 168.455 170.849 167.371 171.042C166.286 171.234 165.278 172.175 165.328 173.275C165.361 173.957 165.776 174.559 165.906 175.228C166.056 175.981 165.839 176.784 166.073 177.512C166.263 177.991 166.548 178.428 166.91 178.796L169.874 182.305C171.129 183.769 172.385 185.253 174.001 186.265C175.616 187.278 177.709 187.75 179.484 187.031C180.747 186.444 181.797 185.482 182.489 184.275C183.226 183.104 183.745 181.824 184.436 180.615C185.511 178.684 186.929 176.965 188.621 175.542C187.751 175.316 186.658 174.998 186.11 174.287C185.954 174.061 185.821 173.82 185.712 173.568L185.034 172.104C184.804 172.092 184.573 172.128 184.357 172.209C184.141 172.29 183.944 172.416 183.779 172.577C183.488 172.912 183.176 173.229 182.845 173.526C182.255 173.969 181.455 174.091 180.92 174.597C180.712 174.814 180.525 175.049 180.359 175.299C179.954 175.831 179.439 176.271 178.85 176.588C178.261 176.906 177.611 177.094 176.943 177.14Z" fill="black"/>
<path d="M188.777 168.394C190.23 165.747 190.163 162.573 190.577 159.582C190.622 158.79 190.9 158.029 191.377 157.395C192.214 156.45 193.691 156.437 194.955 156.558C195.328 156.6 195.793 156.776 195.772 157.148C195.742 157.281 195.677 157.404 195.583 157.504C194.358 159.084 193.638 160.996 193.516 162.991C194.173 163.447 195.19 162.51 195.822 162.991C196.24 163.342 196.048 164.036 195.797 164.538C195.214 165.701 194.612 166.855 193.993 168.001C193.498 169.011 192.853 169.941 192.08 170.757C191.548 171.268 190.925 171.669 190.385 172.171C189.129 173.346 188.371 175.007 187.074 176.153C186.964 176.271 186.816 176.347 186.655 176.366C186.49 176.354 186.334 176.285 186.216 176.169C185.568 175.643 185.03 174.993 184.633 174.258C184.14 173.346 184.215 173.079 184.993 172.435C186.45 171.284 187.869 170.051 188.777 168.394Z" fill="#7C5052"/>
<path d="M174.516 175.341C174.767 175.496 175.077 175.672 175.353 175.542C175.466 175.474 175.562 175.381 175.633 175.27C176.112 174.632 176.511 173.938 176.822 173.204C176.876 173.1 176.906 172.986 176.91 172.869C176.91 172.602 176.671 172.405 176.45 172.25C175.261 171.493 173.983 170.887 172.645 170.444C171.54 170.025 170.384 169.662 169.212 169.766C168.772 169.796 168.342 169.914 167.949 170.114C167.555 170.314 167.206 170.591 166.923 170.929C166.086 172.004 167.488 172.33 168.367 172.719C170.401 173.643 172.603 174.179 174.516 175.341Z" fill="#A1D283"/>
<path opacity="0.1" d="M173.198 182.452C173.184 182.547 173.192 182.645 173.223 182.736C173.254 182.828 173.305 182.911 173.374 182.979C173.495 182.385 173.336 181.758 173.462 181.159C173.646 180.26 174.521 179.583 174.596 178.679C172.993 178.366 173.211 181.482 173.198 182.452Z" fill="black"/>
<path opacity="0.2" d="M247.001 149.745V153.865L229.982 154.898L229.467 150.774L247.001 149.745Z" fill="black"/>
<path d="M171.598 156.408C172.661 155.542 172.046 153.727 172.766 152.564C173.184 151.929 173.892 151.594 174.586 151.31C175.425 150.918 176.324 150.669 177.244 150.574C177.706 150.529 178.171 150.59 178.606 150.75C179.04 150.91 179.434 151.165 179.756 151.498C180.028 151.807 180.212 152.184 180.467 152.506C180.784 152.882 181.196 153.165 181.66 153.325C182.124 153.486 182.623 153.518 183.104 153.418C183.661 153.292 184.239 152.87 184.201 152.301C184.138 151.955 183.961 151.64 183.699 151.406L182.502 150.08C181.141 148.575 179.63 146.977 177.634 146.6C176.244 146.337 174.821 146.709 173.481 147.157C172.942 147.337 172.335 147.604 172.184 148.152C172.083 148.529 172.234 148.938 172.146 149.319C171.975 150.076 171.004 150.331 170.551 150.967C170.099 151.603 170.238 152.355 170.108 153.058C169.978 153.761 169.601 154.447 169.555 155.174C169.526 155.613 169.748 156.429 170.242 156.588C170.736 156.747 171.292 155.885 171.598 156.408Z" fill="black"/>
<path d="M183.796 151.699C183.443 149.859 182.682 148.121 181.569 146.613C180.579 145.204 179.203 144.112 177.605 143.468C176.807 143.156 175.948 143.029 175.093 143.097C174.238 143.164 173.41 143.424 172.67 143.857C171.572 144.64 170.717 145.717 170.205 146.965C169.121 149.298 168.719 152.151 169.979 154.392C170.481 153.782 171.343 154.058 172.105 153.836C173.059 153.564 173.867 152.929 174.776 152.531C177.517 151.323 180.866 152.301 183.796 151.699Z" fill="#FED253"/>
<path opacity="0.1" d="M170.619 151.57C170.523 150.817 170.46 149.943 170.996 149.407C171.023 149.374 171.056 149.348 171.095 149.331C171.133 149.313 171.175 149.305 171.218 149.307C171.255 149.319 171.29 149.339 171.319 149.364C171.349 149.39 171.372 149.422 171.389 149.457C171.699 149.945 171.962 150.46 172.176 150.997C171.864 150.925 171.538 150.948 171.239 151.064C170.941 151.179 170.684 151.382 170.502 151.645" fill="black"/>
<path opacity="0.1" d="M180.402 149.444L180.251 147.951C180.227 147.828 180.237 147.701 180.28 147.583C180.344 147.485 180.441 147.413 180.554 147.382C180.667 147.351 180.787 147.363 180.892 147.416C181.097 147.53 181.267 147.699 181.381 147.905C181.73 148.44 182.019 149.01 182.244 149.607C181.569 149.478 180.876 149.486 180.205 149.632" fill="black"/>
<path opacity="0.1" d="M184.147 210.043V213.456L181.263 213.648H166.094V210.043H184.147Z" fill="black"/>
<path d="M184.147 210.043V213.648H166.095L118.135 153.619V150.783H128.189L184.147 210.043Z" fill="#F1C0C0"/>
<path opacity="0.1" d="M184.147 210.043V213.648H166.095L118.135 153.619V150.783H128.189L184.147 210.043Z" fill="black"/>
<path opacity="0.1" d="M184.147 210.043V213.648H166.095L118.135 153.619V150.783L166.354 210.043H184.147Z" fill="black"/>
<path d="M124.423 270.21C124.454 270.38 124.45 270.554 124.411 270.722C124.372 270.89 124.299 271.049 124.196 271.187C124.093 271.326 123.963 271.442 123.813 271.527C123.663 271.613 123.498 271.667 123.326 271.686C122.162 272.08 120.927 272.469 120.103 273.359C119.278 274.25 119.115 275.902 120.103 276.626C120.608 276.93 121.188 277.088 121.777 277.082C123.673 277.211 125.649 277.186 127.369 276.383C128.6 275.814 129.759 274.844 131.111 274.932C131.81 274.974 132.555 275.3 133.179 274.982C133.803 274.664 133.978 273.778 133.983 273.037C133.999 271.492 133.765 269.954 133.292 268.483C133.229 268.282 130.567 268.127 130.249 268.065L127.022 267.646C126.411 267.567 125.092 267.107 124.611 267.617C124.13 268.127 124.423 269.604 124.423 270.21Z" fill="#A1D283"/>
<path d="M143.68 259.771C143.817 260.525 144.039 261.26 144.342 261.963C144.789 263.101 145.363 264.309 146.46 264.861C147.456 265.359 148.678 265.179 149.691 264.707C150.114 264.532 150.484 264.251 150.767 263.891C151.093 263.322 151.239 262.667 151.185 262.013C151.185 260.395 151.089 258.722 150.348 257.283C149.712 256.028 148.603 254.949 148.586 253.561L144.773 254.297C144.569 254.316 144.374 254.393 144.212 254.518C144.091 254.645 144.007 254.803 143.969 254.974C143.562 256.539 143.464 258.169 143.68 259.771Z" fill="#A1D283"/>
<path d="M98.1437 220.038C97.9846 221.385 98.0516 222.828 98.7548 223.991C99.458 225.153 100.94 225.923 102.221 225.459C102.286 225.442 102.348 225.412 102.402 225.371C102.456 225.33 102.501 225.279 102.535 225.22C102.569 225.079 102.549 224.93 102.48 224.802C101.915 223.294 101.961 221.625 102.61 220.151C102.694 219.959 102.874 219.733 103.07 219.808C103.153 219.85 103.219 219.917 103.259 220.001C103.461 220.351 103.563 220.75 103.552 221.155C103.493 221.521 103.481 221.894 103.518 222.263C103.598 222.623 103.983 222.962 104.318 222.807C104.414 222.747 104.498 222.669 104.564 222.576C104.629 222.484 104.675 222.378 104.699 222.267C105.632 219.57 105.209 216.621 104.782 213.798C104.786 213.733 104.775 213.668 104.751 213.608C104.727 213.548 104.689 213.494 104.642 213.45C104.594 213.405 104.538 213.372 104.476 213.352C104.414 213.332 104.349 213.326 104.284 213.334C102.308 213.137 101.229 212.665 100.098 214.501C99.1273 216.048 98.1437 218.177 98.1437 220.038Z" fill="#A1D283"/>
<path d="M121.241 213.176C120.655 215.61 120.065 218.073 120.027 220.574C120.038 222.132 120.155 223.687 120.379 225.229L120.818 228.851C120.969 230.072 121.116 231.289 121.329 232.498C121.465 233.121 121.54 233.755 121.551 234.393C121.51 235.021 121.41 235.644 121.254 236.254C120.991 237.535 120.843 238.836 120.814 240.144C120.768 242.235 121.028 244.326 121.191 246.417C121.517 250.584 121.468 254.772 121.044 258.931C120.875 260.053 121.119 261.199 121.731 262.155C121.979 262.457 122.183 262.792 122.338 263.151C122.652 264.108 121.919 265.066 121.731 266.049C121.61 266.816 121.799 267.598 122.256 268.226C122.713 268.853 123.4 269.274 124.167 269.395C127.516 269.792 130.956 269.612 133.974 271.143C134.292 270.215 133.597 269.161 133.915 268.216C134.116 267.63 134.669 267.249 135.046 266.756C135.552 266.004 135.804 265.11 135.766 264.205C135.78 263.023 135.57 261.849 135.146 260.746C134.79 259.826 134.28 258.918 134.309 257.931C134.309 257.446 134.481 256.936 134.284 256.488C134.149 256.231 133.966 256.002 133.744 255.815C132.493 254.445 131.724 252.705 131.555 250.859C131.392 249.026 131.451 247.181 131.731 245.363C131.936 243.632 132.212 241.804 133.313 240.453C132.802 236.357 133.102 232.2 134.196 228.22C134.305 227.852 134.476 227.425 134.853 227.337C135.003 227.322 135.154 227.343 135.294 227.398C135.434 227.453 135.558 227.541 135.657 227.655C136.314 228.27 136.628 229.161 136.912 230.014C137.226 230.938 137.544 231.925 137.306 232.87C137.205 233.289 137.005 233.657 136.887 234.058C136.633 234.865 136.677 235.737 137.013 236.513C137.177 236.797 137.279 237.112 137.314 237.438C137.275 237.717 137.191 237.989 137.063 238.241C136.908 238.735 136.859 239.257 136.918 239.773C136.978 240.288 137.146 240.785 137.411 241.231C137.944 242.119 138.602 242.926 139.365 243.627C139.001 245.233 139.095 246.908 139.637 248.462C139.676 248.532 139.701 248.609 139.711 248.689C139.72 248.769 139.714 248.849 139.692 248.926C139.616 249.085 139.424 249.144 139.273 249.257C138.855 249.6 139.114 250.248 139.395 250.696C140.163 251.924 141.012 253.1 141.935 254.217C142.772 255.217 142.697 257.145 143.944 257.505C144.469 257.618 145.011 257.618 145.535 257.505C146.766 257.316 148.139 256.961 148.741 255.873C148.988 255.426 149.089 254.882 149.474 254.548C149.859 254.213 150.357 254.154 150.57 253.753C150.784 253.351 150.545 252.824 150.616 252.36C150.688 251.896 151.094 251.524 151.223 251.034C151.533 249.905 150.215 248.977 150.035 247.822C149.775 246.149 151.885 244.895 151.797 243.222C151.613 239.587 151.495 235.936 151.307 232.302C151.071 229.046 151.037 225.779 151.207 222.519C151.353 220.491 151.625 218.366 150.88 216.48C149.809 213.82 146.853 212.327 143.995 212.042C141.136 211.758 138.285 212.435 135.452 212.879C130.749 213.603 125.97 213.703 121.241 213.176Z" fill="black"/>
<path d="M129.737 173.2C133.44 173.2 136.442 170.2 136.442 166.5C136.442 162.8 133.44 159.8 129.737 159.8C126.033 159.8 123.031 162.8 123.031 166.5C123.031 170.2 126.033 173.2 129.737 173.2Z" fill="#7C5052"/>
<path d="M127.008 174.451C126.78 174.981 126.397 175.43 125.91 175.738C125.422 176.046 124.852 176.2 124.275 176.178C124.032 177.182 124.614 178.194 125.28 178.985C126.662 180.592 128.447 181.801 130.453 182.489C132.459 183.176 134.612 183.316 136.69 182.895C137.498 182.751 138.266 182.431 138.937 181.959C139.843 181.203 140.451 180.151 140.654 178.989C140.846 177.836 140.901 176.663 140.817 175.497C140.84 175.266 140.774 175.036 140.633 174.853C140.465 174.723 140.258 174.655 140.047 174.66C138.632 174.535 137.154 174.48 135.911 173.786C134.668 173.092 133.785 171.524 134.383 170.235C134.287 170.436 131.843 170.532 131.52 170.574C130.512 170.716 129.503 170.875 128.498 171.059C128.016 171.086 127.539 171.176 127.079 171.327C126.472 171.641 126.699 171.486 126.841 172.055C127.054 172.925 127.368 173.548 127.008 174.451Z" fill="#7C5052"/>
<path d="M132.11 178.524C131.207 178.534 130.306 178.435 129.427 178.227C128.54 178.02 127.758 177.498 127.226 176.759C126.916 176.291 126.715 175.701 126.221 175.438C125.413 175.019 124.492 175.726 123.848 176.374C123.261 177.014 122.581 177.561 121.83 177.997C120.935 178.47 119.888 178.637 119.043 179.193C118.382 179.692 117.815 180.304 117.368 181L111.437 189.072C109.056 192.318 106.984 195.801 104.862 199.227C103.024 202.192 102.061 205.605 100.676 208.804C100.566 209 100.521 209.226 100.546 209.449C100.596 209.666 100.86 209.842 101.044 209.716C100.421 210.335 100.969 211.389 100.822 212.259C100.656 212.868 100.308 213.412 99.8262 213.819C100.747 213.699 101.683 213.743 102.589 213.949C103.525 214.214 104.409 214.638 105.201 215.203C105.707 215.124 105.661 214.225 106.038 213.89C106.264 213.694 106.599 213.719 106.896 213.66C108.013 213.443 108.457 212.1 109.315 211.343C110.031 210.712 111.044 210.507 111.801 209.913C113.032 208.947 113.296 207.228 113.94 205.802C114.489 204.593 115.351 203.539 115.832 202.301C116.146 201.498 116.297 200.628 116.745 199.888C117.461 198.691 118.808 198.056 120.093 197.483C120.905 197.119 121.768 196.742 122.642 196.801C122.596 198.746 122.349 200.661 122.772 202.56C122.919 203.229 123.124 203.882 123.3 204.547C124.099 207.541 124.287 210.661 124.325 213.748C126.248 213.308 128.212 213.073 130.185 213.045C131.738 212.999 133.287 213.2 134.84 213.171C136.681 213.137 138.502 212.782 140.344 212.656C142.185 212.531 144.111 212.656 145.739 213.493C145.607 210.842 145.681 208.185 145.961 205.546L146.405 201.389C146.505 200.181 146.691 198.982 146.961 197.801C147.204 196.847 147.556 195.927 147.824 194.978C148.765 191.632 148.594 188.06 148.414 184.576C148.322 182.786 147.631 181.025 146.819 179.432C146.525 178.84 146.189 178.27 145.814 177.725C144.833 176.374 143.525 175.294 142.013 174.584C140.501 173.875 138.834 173.56 137.167 173.668C136.954 173.675 136.744 173.72 136.547 173.802C136.194 174.028 135.918 174.357 135.756 174.743C134.89 176.299 133.634 177.602 132.11 178.524Z" fill="black"/>
<path d="M123.84 168.721C124.028 168.303 124.534 168.148 124.844 167.813C125.439 167.178 125.171 166.161 125.263 165.304C125.413 164.049 126.456 162.999 127.649 162.552C128.865 162.162 130.16 162.08 131.416 162.313C132.02 162.358 132.605 162.552 133.115 162.878C133.333 163.037 133.534 163.242 133.739 163.388C134.113 163.614 134.56 163.685 134.986 163.586C135.411 163.487 135.781 163.225 136.016 162.857C134.534 161.075 132.893 159.193 130.641 158.646C129.869 158.488 129.082 158.414 128.293 158.424C127.251 158.403 126.175 158.386 125.213 158.784C123.902 159.323 122.982 160.565 122.509 161.904C122.095 163.26 121.874 164.668 121.851 166.086C121.766 167.032 121.766 167.984 121.851 168.93C122.013 170.222 122.494 171.454 123.249 172.514C123.352 172.679 123.496 172.813 123.668 172.903C125.577 173.74 123.685 169.068 123.84 168.721Z" fill="black"/>
<path d="M135.798 161.824C135.568 159.854 134.162 158.227 132.668 156.918C131.463 155.783 130.028 154.92 128.461 154.388C126.883 153.923 125.066 154.024 123.714 154.965C122.626 155.722 121.935 156.926 121.404 158.139C120.705 159.571 120.36 161.148 120.395 162.74C120.5 164.321 121.27 165.923 122.643 166.721C123.137 165.994 123.995 165.617 124.819 165.32C128.413 163.958 132.078 162.791 135.798 161.824Z" fill="#FED253"/>
<path opacity="0.1" d="M123.104 161.004C123.238 161.004 123.326 161.142 123.392 161.255C123.733 161.786 124.026 162.345 124.267 162.928C123.778 163.033 122.936 163.15 122.693 162.719C122.564 162.501 122.719 160.983 123.104 161.004Z" fill="black"/>
<path opacity="0.1" d="M132.642 160.059C132.541 160.156 132.424 159.959 132.424 159.817V158.194C132.422 158.149 132.432 158.104 132.454 158.064C132.471 158.045 132.492 158.028 132.516 158.017C132.54 158.005 132.565 157.999 132.592 157.997C132.931 157.96 133.211 158.248 133.429 158.524C133.759 158.972 134.046 159.449 134.287 159.951L132.516 159.896" fill="black"/>
<path d="M154.739 186.931C155.124 186.565 155.536 186.228 155.97 185.923C157.129 185.149 158.532 184.844 159.833 184.35C161.135 183.857 162.458 183.058 162.964 181.761C163.218 180.95 163.3 180.096 163.207 179.252C163.219 178.898 163.156 178.546 163.023 178.219C162.863 177.929 162.637 177.682 162.361 177.499C160.595 176.194 158.226 176.09 156.033 176.224C151.197 176.523 146.457 177.706 142.048 179.712C141.815 179.789 141.611 179.935 141.462 180.13C141.376 180.311 141.338 180.511 141.349 180.711C141.271 181.945 141.432 183.182 141.822 184.354C142.4 185.843 143.589 187.043 144.087 188.562C144.313 189.243 144.388 189.967 144.585 190.653C144.746 191.361 145.165 191.984 145.761 192.401C147.414 193.388 148.976 192.062 150.122 191.033L154.739 186.931Z" fill="black"/>
<path d="M133.085 192.723L130.963 188.098C130.652 187.457 130.383 186.796 130.159 186.119C129.917 185.312 129.799 184.476 129.573 183.664C128.828 180.963 126.949 178.712 126.032 176.065C125.974 175.826 125.856 175.606 125.689 175.425C125.555 175.331 125.402 175.267 125.241 175.238C125.08 175.209 124.914 175.216 124.756 175.258C123.475 175.479 122.475 176.454 121.303 177.006C120.758 177.257 120.172 177.424 119.628 177.713C119.356 177.842 119.115 178.027 118.922 178.258C118.728 178.488 118.586 178.757 118.506 179.047C118.377 179.687 118.695 180.302 118.963 180.925C120.101 183.493 120.361 186.362 120.411 189.173C120.449 191.063 120.352 193.091 119.235 194.61C117.088 197.537 118.46 201.837 119.264 205.379C119.36 205.797 119.473 206.249 119.54 206.692C119.611 207.247 119.643 207.806 119.637 208.365C119.637 210.243 119.532 212.18 118.745 213.882C119.522 214.295 120.378 214.537 121.256 214.593C123.687 214.902 126.127 215.12 128.577 215.245C129.345 215.318 130.119 215.278 130.875 215.128C131.773 214.886 132.565 214.351 133.125 213.609C133.685 212.867 133.982 211.959 133.968 211.03C134.102 212.188 134.349 213.447 135.191 214.25C136.032 215.053 137.258 215.174 138.401 215.237C141.626 215.408 144.86 215.317 148.07 214.965C148.275 214.956 148.476 214.909 148.664 214.827C149.284 214.518 149.317 213.664 149.267 212.979C149.175 211.695 149.079 210.411 148.924 209.135C148.793 208.322 148.725 207.499 148.723 206.676C148.787 205.828 148.927 204.989 149.142 204.166C149.702 201.557 150.146 198.892 149.958 196.22C149.883 195.569 149.857 194.913 149.878 194.258C149.987 192.782 150.766 191.377 150.619 189.909C150.201 185.592 149.862 181.163 148.656 176.998C148.438 176.253 148.162 175.454 147.513 175.028C146.676 174.467 145.5 174.76 144.542 174.405C144.092 174.195 143.664 173.942 143.265 173.648C142.398 173.106 141.403 172.8 140.381 172.761C139.611 172.732 138.753 172.903 138.288 173.522C138.073 173.871 137.931 174.259 137.87 174.664C137.263 177.215 136.551 179.737 135.839 182.259L135.157 184.677L133.328 191.168C133.148 191.858 133.269 192.071 133.085 192.723Z" fill="#A1D283"/>
<path d="M143.789 167.399L184.278 209.913V213.518H166.225L135.799 173.84" fill="#F1C0C0"/>
<path opacity="0.1" d="M143.789 167.399L184.278 209.913V213.518H166.225L135.799 173.84" fill="black"/>
<path opacity="0.1" d="M136.443 173.279L136.573 173.325L166.484 209.913H184.278V213.518H166.225L135.799 173.84L136.443 173.279Z" fill="black"/>
<path d="M141.102 174.175C139.637 174.814 138.008 175.634 137.569 177.173C137.482 177.443 137.463 177.731 137.514 178.01C137.621 178.338 137.826 178.626 138.1 178.836C138.374 179.046 138.706 179.167 139.051 179.185C139.74 179.202 140.425 179.076 141.064 178.817L149.707 175.965C149.942 175.889 150.21 175.776 150.268 175.546C150.283 175.402 150.254 175.256 150.185 175.128C149.917 174.476 149.653 173.142 149.092 172.686C148.632 172.318 147.719 172.447 147.162 172.456C145.019 172.472 143.006 173.338 141.102 174.175Z" fill="#7C5052"/>
<path d="M148.807 176.304C150.263 176.299 151.711 176.524 153.097 176.969C154.49 177.42 155.723 178.262 156.651 179.394C156.921 179.711 157.113 180.086 157.212 180.49C157.295 180.908 158.66 181.159 158.359 181.444C159.275 181.297 159.058 181.728 159.987 181.72C160.916 181.711 161.921 181.473 162.477 180.733C162.864 180.125 163.036 179.405 162.967 178.688C162.979 178.191 162.885 177.698 162.691 177.24C162.272 176.362 161.31 175.89 160.422 175.484L152.946 172.067C152.513 171.836 152.047 171.671 151.565 171.578C151.159 171.539 150.751 171.549 150.347 171.607L146.961 171.996C147.701 172.475 148.304 173.138 148.71 173.921C149.116 174.703 149.311 175.578 149.276 176.458" fill="black"/>
</g>
<defs>
<clipPath id="clip0_1069_2914">
<rect width="493" height="303" fill="white" transform="translate(0.5)"/>
</clipPath>
</defs>
</svg>
