<svg width="51" height="51" viewBox="0 0 51 51" fill="none" xmlns="http://www.w3.org/2000/svg">
<path d="M35.5345 40.352H15.9512C15.0762 40.352 14.097 39.6645 13.8053 38.8312L5.18035 14.7062C3.95118 11.2479 5.38868 10.1854 8.34701 12.3104L16.472 18.1229C17.8262 19.0604 19.3678 18.5812 19.9512 17.0604L23.6178 7.28955C24.7845 4.16455 26.722 4.16455 27.8887 7.28955L31.5553 17.0604C32.1387 18.5812 33.6804 19.0604 35.0137 18.1229L42.6387 12.6854C45.8887 10.3521 47.4512 11.5396 46.1178 15.3104L37.7012 38.8729C37.3887 39.6645 36.4095 40.352 35.5345 40.352Z" stroke="#A1D283" stroke-width="2.5" stroke-linecap="round" stroke-linejoin="round"/>
<path d="M14.2842 46.6437H37.2008" stroke="#A1D283" stroke-width="2.5" stroke-linecap="round" stroke-linejoin="round"/>
<path d="M20.5342 29.9771H30.9508" stroke="#A1D283" stroke-width="2.5" stroke-linecap="round" stroke-linejoin="round"/>
</svg>
