<svg width="29" height="29" viewBox="0 0 29 29" fill="none" xmlns="http://www.w3.org/2000/svg">
<rect width="29" height="29" rx="14.5" fill="#008753"/>
<path d="M8.19556 8.19556H9.29252C9.97339 8.19556 10.5093 8.78186 10.4525 9.45643L9.92925 15.7356C9.84099 16.7632 10.6542 17.6458 11.6882 17.6458H18.4023C19.3101 17.6458 20.1045 16.9019 20.1738 16.0003L20.5142 11.2721C20.5899 10.2256 19.7956 9.37447 18.7427 9.37447H10.6038" stroke="white" stroke-width="0.945652" stroke-miterlimit="10" stroke-linecap="round" stroke-linejoin="round"/>
<path d="M17.1794 20.8044C17.6146 20.8044 17.9674 20.4515 17.9674 20.0163C17.9674 19.5811 17.6146 19.2283 17.1794 19.2283C16.7442 19.2283 16.3914 19.5811 16.3914 20.0163C16.3914 20.4515 16.7442 20.8044 17.1794 20.8044Z" stroke="white" stroke-width="0.945652" stroke-miterlimit="10" stroke-linecap="round" stroke-linejoin="round"/>
<path d="M12.1359 20.8044C12.5712 20.8044 12.924 20.4515 12.924 20.0163C12.924 19.5811 12.5712 19.2283 12.1359 19.2283C11.7007 19.2283 11.3479 19.5811 11.3479 20.0163C11.3479 20.4515 11.7007 20.8044 12.1359 20.8044Z" stroke="white" stroke-width="0.945652" stroke-miterlimit="10" stroke-linecap="round" stroke-linejoin="round"/>
<path d="M12.6086 11.9783H20.1739" stroke="white" stroke-width="0.945652" stroke-miterlimit="10" stroke-linecap="round" stroke-linejoin="round"/>
</svg>
