<svg width="47" height="46" viewBox="0 0 47 46" fill="none" xmlns="http://www.w3.org/2000/svg">
<path d="M17.7501 19.1667C19.8672 19.1667 21.5834 17.4504 21.5834 15.3333C21.5834 13.2162 19.8672 11.5 17.7501 11.5C15.633 11.5 13.9167 13.2162 13.9167 15.3333C13.9167 17.4504 15.633 19.1667 17.7501 19.1667Z" stroke="#A1D283" stroke-width="2.875" stroke-linecap="round" stroke-linejoin="round"/>
<path d="M25.4166 3.83301H17.7499C8.16659 3.83301 4.33325 7.66634 4.33325 17.2497V28.7497C4.33325 38.333 8.16659 42.1663 17.7499 42.1663H29.2499C38.8333 42.1663 42.6666 38.333 42.6666 28.7497V19.1663" stroke="#A1D283" stroke-width="2.875" stroke-linecap="round" stroke-linejoin="round"/>
<path d="M30.6875 9.58301H41.2292" stroke="#A1D283" stroke-width="2.875" stroke-linecap="round"/>
<path d="M35.9583 14.8542V4.3125" stroke="#A1D283" stroke-width="2.875" stroke-linecap="round"/>
<path d="M5.61743 36.3207L15.0666 29.9766C16.5808 28.9607 18.7658 29.0757 20.1266 30.2449L20.7591 30.8007C22.2541 32.0849 24.6691 32.0849 26.1641 30.8007L34.1374 23.9582C35.6324 22.6741 38.0474 22.6741 39.5424 23.9582L42.6666 26.6416" stroke="#A1D283" stroke-width="2.875" stroke-linecap="round" stroke-linejoin="round"/>
</svg>
