<svg width="51" height="51" viewBox="0 0 51 51" fill="none" xmlns="http://www.w3.org/2000/svg">
<path d="M21.7578 36.98H30.0911" stroke="#A1D283" stroke-width="2.5" stroke-linecap="round" stroke-linejoin="round"/>
<path d="M5.0918 36.98V16.1467C5.0918 7.81337 7.17513 5.73004 15.5085 5.73004" stroke="#A1D283" stroke-width="2.5" stroke-linecap="round" stroke-linejoin="round"/>
<path d="M46.7585 36.98V16.1467C46.7585 7.81337 44.6751 5.73004 36.3418 5.73004" stroke="#A1D283" stroke-width="2.5" stroke-linecap="round" stroke-linejoin="round"/>
<path d="M21.7585 33.6676V40.5217C21.7585 44.6884 20.0918 46.3551 15.9251 46.3551H10.9251C6.75846 46.3551 5.0918 44.6884 5.0918 40.5217V33.6676C5.0918 29.5009 6.75846 27.8342 10.9251 27.8342H15.9251C20.0918 27.8342 21.7585 29.5009 21.7585 33.6676Z" stroke="#A1D283" stroke-width="2.5" stroke-linecap="round" stroke-linejoin="round"/>
<path d="M46.7585 33.6676V40.5217C46.7585 44.6884 45.0918 46.3551 40.9251 46.3551H35.9251C31.7585 46.3551 30.0918 44.6884 30.0918 40.5217V33.6676C30.0918 29.5009 31.7585 27.8342 35.9251 27.8342H40.9251C45.0918 27.8342 46.7585 29.5009 46.7585 33.6676Z" stroke="#A1D283" stroke-width="2.5" stroke-linecap="round" stroke-linejoin="round"/>
</svg>
