<svg width="419" height="552" viewBox="0 0 419 552" fill="none" xmlns="http://www.w3.org/2000/svg">
<path fill-rule="evenodd" clip-rule="evenodd" d="M215.723 79.3204C260.713 89.6132 311.704 56.5142 351.373 80.1028C391.159 103.761 409.609 153.494 417.238 199.149C423.974 239.466 394.277 275.626 390.848 316.357C387.098 360.913 421.936 411.018 396.319 447.666C371.136 483.694 313.699 469.398 272.733 485.337C226.463 503.34 185.186 568.93 140.554 547.179C92.5541 523.786 119.489 443.931 92.8327 397.663C73.6462 364.36 25.2999 356.043 10.099 320.742C-6.79775 281.504 2.51555 237.856 5.67083 195.25C10.4435 130.806 -23.2667 38.5611 33.3093 7.33634C91.7225 -24.9024 150.684 64.4409 215.723 79.3204Z" fill="url(#paint0_linear_2_924)"/>
<defs>
<linearGradient id="paint0_linear_2_924" x1="304.5" y1="200.874" x2="394" y2="476.874" gradientUnits="userSpaceOnUse">
<stop stop-color="#B0EE8B"/>
<stop offset="1" stop-color="#00FF85"/>
</linearGradient>
</defs>
</svg>
