<svg width="51" height="51" viewBox="0 0 51 51" fill="none" xmlns="http://www.w3.org/2000/svg">
<path d="M4.40649 46.6279H46.0732" stroke="#A1D283" stroke-width="2.5" stroke-miterlimit="10" stroke-linecap="round" stroke-linejoin="round"/>
<path d="M6.3855 46.6289L6.48966 21.5663C6.48966 20.2955 7.09383 19.0873 8.09383 18.2956L22.6772 6.94141C24.1772 5.77474 26.2813 5.77474 27.8022 6.94141L42.3855 18.2747C43.4063 19.0664 43.9897 20.2747 43.9897 21.5663V46.6289" stroke="#A1D283" stroke-width="2.5" stroke-miterlimit="10" stroke-linejoin="round"/>
<path d="M27.3232 36.2119H23.1565C21.4273 36.2119 20.0315 37.6077 20.0315 39.3369V46.6286H30.4482V39.3369C30.4482 37.6077 29.0523 36.2119 27.3232 36.2119Z" stroke="#A1D283" stroke-width="2.5" stroke-miterlimit="10" stroke-linejoin="round"/>
<path d="M20.0315 29.4411H15.8648C14.719 29.4411 13.7815 28.5036 13.7815 27.3577V24.2327C13.7815 23.0869 14.719 22.1494 15.8648 22.1494H20.0315C21.1773 22.1494 22.1148 23.0869 22.1148 24.2327V27.3577C22.1148 28.5036 21.1773 29.4411 20.0315 29.4411Z" stroke="#A1D283" stroke-width="2.5" stroke-miterlimit="10" stroke-linejoin="round"/>
<path d="M34.6147 29.4411H30.4481C29.3022 29.4411 28.3647 28.5036 28.3647 27.3577V24.2327C28.3647 23.0869 29.3022 22.1494 30.4481 22.1494H34.6147C35.7606 22.1494 36.6981 23.0869 36.6981 24.2327V27.3577C36.6981 28.5036 35.7606 29.4411 34.6147 29.4411Z" stroke="#A1D283" stroke-width="2.5" stroke-miterlimit="10" stroke-linejoin="round"/>
<path d="M39.8232 15.3779L39.7607 9.12793H30.594" stroke="#A1D283" stroke-width="2.5" stroke-miterlimit="10" stroke-linecap="round" stroke-linejoin="round"/>
</svg>
