<svg width="26" height="25" viewBox="0 0 26 25" fill="none" xmlns="http://www.w3.org/2000/svg">
<path d="M12.6771 9.25113C10.8881 9.25113 9.42813 10.7111 9.42813 12.5001C9.42813 14.2891 10.8881 15.7491 12.6771 15.7491C14.4661 15.7491 15.9261 14.2891 15.9261 12.5001C15.9261 10.7111 14.4661 9.25113 12.6771 9.25113ZM22.4216 12.5001C22.4216 11.1547 22.4338 9.82147 22.3582 8.47849C22.2827 6.91859 21.9268 5.53418 20.7861 4.39351C19.643 3.25039 18.2611 2.89698 16.7012 2.82142C15.3557 2.74586 14.0225 2.75805 12.6795 2.75805C11.3341 2.75805 10.0009 2.74586 8.65793 2.82142C7.09803 2.89698 5.71362 3.25283 4.57295 4.39351C3.42984 5.53662 3.07642 6.91859 3.00086 8.47849C2.92531 9.8239 2.93749 11.1571 2.93749 12.5001C2.93749 13.8431 2.92531 15.1787 3.00086 16.5217C3.07642 18.0816 3.43227 19.466 4.57295 20.6067C5.71606 21.7498 7.09803 22.1032 8.65793 22.1788C10.0033 22.2543 11.3366 22.2422 12.6795 22.2422C14.025 22.2422 15.3582 22.2543 16.7012 22.1788C18.2611 22.1032 19.6455 21.7474 20.7861 20.6067C21.9293 19.4636 22.2827 18.0816 22.3582 16.5217C22.4362 15.1787 22.4216 13.8455 22.4216 12.5001ZM12.6771 17.4991C9.91073 17.4991 7.67812 15.2665 7.67812 12.5001C7.67812 9.73372 9.91073 7.50112 12.6771 7.50112C15.4435 7.50112 17.6761 9.73372 17.6761 12.5001C17.6761 15.2665 15.4435 17.4991 12.6771 17.4991ZM17.8808 8.46387C17.2349 8.46387 16.7133 7.94227 16.7133 7.29638C16.7133 6.65048 17.2349 6.12889 17.8808 6.12889C18.5267 6.12889 19.0483 6.65048 19.0483 7.29638C19.0485 7.44975 19.0184 7.60165 18.9598 7.74338C18.9012 7.88512 18.8152 8.0139 18.7068 8.12235C18.5983 8.2308 18.4696 8.31678 18.3278 8.37539C18.1861 8.43399 18.0342 8.46406 17.8808 8.46387Z" fill="#A1D283"/>
</svg>
