<svg width="51" height="51" viewBox="0 0 51 51" fill="none" xmlns="http://www.w3.org/2000/svg">
<path d="M25.7427 40.1633C32.6385 40.1633 38.2427 34.5591 38.2427 27.6633V17.2466C38.2427 10.3507 32.6385 4.74658 25.7427 4.74658C18.8468 4.74658 13.2427 10.3507 13.2427 17.2466V27.6633C13.2427 34.5591 18.8468 40.1633 25.7427 40.1633Z" stroke="#A1D283" stroke-width="2.5" stroke-linecap="round" stroke-linejoin="round"/>
<path d="M6.99268 23.4966V27.6632C6.99268 38.0174 15.3885 46.4132 25.7427 46.4132C36.0968 46.4132 44.4927 38.0174 44.4927 27.6632V23.4966" stroke="#A1D283" stroke-width="2.5" stroke-linecap="round" stroke-linejoin="round"/>
<path d="M19.7217 16.1632C23.43 14.809 27.4717 14.809 31.18 16.1632" stroke="#A1D283" stroke-width="2.5" stroke-linecap="round" stroke-linejoin="round"/>
<path d="M21.6382 22.4132C24.1382 21.7257 26.784 21.7257 29.284 22.4132" stroke="#A1D283" stroke-width="2.5" stroke-linecap="round" stroke-linejoin="round"/>
</svg>
