<svg width="510" height="682" viewBox="0 0 510 682" fill="none" xmlns="http://www.w3.org/2000/svg">
<g id="MISSION 1 1" clip-path="url(#clip0_339_1421)">
<g id="Layer_x0020_1">
<g id="_1762622924560">
<path id="Vector" fill-rule="evenodd" clip-rule="evenodd" d="M88.0595 119.823L101.654 129.74L96.4242 113.746L110.057 103.881L93.2292 103.913L88.0595 87.8997L82.8898 103.913L66.062 103.881L79.6948 113.746L74.4649 129.74L88.0595 119.823Z" fill="#A1D283" stroke="black" stroke-width="1.88929" stroke-miterlimit="2.61313"/>
<path id="Vector_2" fill-rule="evenodd" clip-rule="evenodd" d="M86.289 191.601L87.671 135.586L88.0597 119.823L71.7261 140.173L78.8523 192.101C81.284 191.77 83.7669 191.6 86.289 191.6V191.601Z" fill="#009933" stroke="black" stroke-width="1.88929" stroke-miterlimit="2.61313"/>
<path id="Vector_3" fill-rule="evenodd" clip-rule="evenodd" d="M87.6706 135.586L86.2886 191.601C88.661 191.601 90.9982 191.751 93.2913 192.044L102.313 144.115L87.6696 135.585L87.6706 135.586Z" fill="#81C379" stroke="black" stroke-width="1.88929" stroke-miterlimit="2.61313"/>
<path id="Vector_4" fill-rule="evenodd" clip-rule="evenodd" d="M151.532 99.0546C151.532 105.168 155.789 110.287 161.501 111.61C161.268 112.704 161.143 113.838 161.143 115.001C161.143 123.928 168.38 131.165 177.307 131.165C181.007 131.165 184.416 129.921 187.141 127.83L186.307 123.202C174.237 56.2328 283.831 41.6257 291.163 107.418C296.889 106.22 301.2 101.168 301.27 95.0993C306.214 95.0993 310.212 91.1018 310.212 86.1691C310.212 83.7374 309.241 81.5328 307.663 79.9227C310.068 77.9832 311.608 75.0132 311.608 71.6816C311.608 67.9321 309.658 64.6387 306.717 62.7604C307.718 61.0559 308.294 59.0692 308.294 56.9489C308.294 50.6041 303.15 45.4605 296.805 45.4605C296.226 45.4605 295.655 45.5037 295.1 45.5871C296.601 43.287 297.474 40.5409 297.474 37.59C297.474 29.4995 290.916 22.9407 282.825 22.9407C280.242 22.9407 277.814 23.6107 275.707 24.7848C275.789 24.1822 275.833 23.5665 275.833 22.9407C275.833 15.5252 269.822 9.51482 262.407 9.51482C258.684 9.51482 255.315 11.0305 252.882 13.4792C251.233 6.30173 244.806 0.948242 237.128 0.948242C230.866 0.948242 225.436 4.50987 222.752 9.71771C219.91 5.08941 214.799 2.00086 208.969 2.00086C200.042 2.00086 192.805 9.23761 192.805 18.1648C192.805 18.4681 192.814 18.7704 192.831 19.0697C190.746 17.9408 188.357 17.3 185.819 17.3C177.674 17.3 171.071 23.9029 171.071 32.0487C171.071 33.8717 171.402 35.6173 172.007 37.2284C171.581 37.1852 171.149 37.1641 170.712 37.1641C163.69 37.1641 157.998 42.8561 157.998 49.8779C157.998 52.8178 158.998 55.5257 160.673 57.6791C159.819 57.4562 158.922 57.3376 157.998 57.3376C152.158 57.3376 147.424 62.0714 147.424 67.911C147.424 69.506 147.777 71.0186 148.41 72.3736C147.777 73.7988 147.424 75.3758 147.424 77.035C147.424 82.7923 151.658 87.5592 157.182 88.3949C153.774 90.7131 151.535 94.6242 151.535 99.0566L151.532 99.0546Z" fill="#008753" stroke="black" stroke-width="1.88929" stroke-miterlimit="2.61313"/>
<path id="Vector_5" fill-rule="evenodd" clip-rule="evenodd" d="M291.163 107.416C283.831 41.6237 174.237 56.2318 186.307 123.2L187.141 127.828L198.116 188.722L204.099 193.038L247.019 223.992L274.494 218.865L292.351 183.686L297.472 173.596L291.262 108.377C291.232 108.054 291.198 107.735 291.162 107.416H291.163Z" fill="#999999" stroke="black" stroke-width="1.88929" stroke-miterlimit="2.61313"/>
<path id="Vector_6" fill-rule="evenodd" clip-rule="evenodd" d="M280.211 159.818L219.026 168.149L241.425 187.681L271.567 182.265L280.211 159.818Z" fill="white" stroke="black" stroke-width="1.88929" stroke-miterlimit="2.61313"/>
<path id="Vector_7" fill-rule="evenodd" clip-rule="evenodd" d="M359.045 105.767V141.423H466.451C476.771 141.423 485.215 132.979 485.215 122.659V106.987L508.107 87.0027H485.215H377.81C367.489 87.0027 359.045 95.4467 359.045 105.767Z" fill="#009933" stroke="black" stroke-width="1.88929" stroke-miterlimit="2.61313"/>
<path id="Vector_8" fill-rule="evenodd" clip-rule="evenodd" d="M455.771 151.869H348.365C338.045 151.869 329.601 160.313 329.601 170.634V206.29V229.182L349.586 206.29H437.006C447.327 206.29 455.771 197.846 455.771 187.526V151.869Z" fill="#A1D283" stroke="black" stroke-width="1.88929" stroke-miterlimit="2.61313"/>
<path id="Vector_9" fill-rule="evenodd" clip-rule="evenodd" d="M297.472 240.012L292.351 183.687L274.494 218.866L247.019 223.993L204.101 193.039L206.752 223.993L274.494 281.402L297.472 240.012Z" fill="#999999"/>
<g id="Group">
<g id="Group_2">
<path id="_1" fill-rule="evenodd" clip-rule="evenodd" d="M206.752 223.993L240.624 252.698L271.869 249.228L294.715 209.689L292.351 183.687L274.494 218.866L247.019 223.993L204.101 193.039L206.752 223.993Z" fill="#808080"/>
</g>
</g>
<path id="Vector_10" fill-rule="evenodd" clip-rule="evenodd" d="M297.472 240.012L292.351 183.687L274.494 218.866L247.019 223.993L204.101 193.039L206.752 223.993L274.494 281.402L297.472 240.012Z" stroke="black" stroke-width="1.88929" stroke-miterlimit="2.61313"/>
<path id="Vector_11" fill-rule="evenodd" clip-rule="evenodd" d="M345.054 443.775L371.903 407.286L408.958 426.503L345.054 443.775ZM319.437 482.579L257.701 468.902L246.483 442.224L281.382 431.308L311.997 452.71C318.669 460.302 320.348 470.71 319.437 482.58V482.579ZM274.494 281.401L206.752 223.992L98.1187 294.122L124.668 358.975L204.568 554.147L354.028 505.647L382.241 496.492L445.621 510.534L432.634 426.505L387.241 282.054L297.474 240.012L274.496 281.401H274.494Z" fill="#A1D283"/>
<g id="Group_3">
<g id="Group_4">
<path id="_1_0" d="M151.343 424.136C160.46 402.393 190.851 381.705 224.712 390.449M170.959 472.054C200.563 465.959 224.439 452.681 241.926 431.387M259.737 469.353C256.043 493.398 248.4 518.194 236.383 543.825M306.288 479.666C307.958 494.869 307.255 509.142 303.259 522.124M365.352 438.29C382.078 446.252 393.761 469.353 384.117 496.909M406.076 427.283C428.512 445.768 434.457 471.546 422.247 505.355M370.715 400.97C385.224 390.415 401.817 386.132 421.89 392.319M370.443 356.594C379.709 345.858 394.877 343.968 407.6 346.847M121.793 351.952C137.669 326.031 179.071 321.413 203.936 341.039M162.361 252.648L177.4 265.352L229.583 243.341M291.613 250.566L335.869 265.368L338.6 259.272M235.253 415.516H369.312M216.985 372.07L363.66 363.487M102.98 305.997C127.907 274.89 203.936 280.237 216.984 319.383C261.694 319.383 306.403 319.383 351.114 319.383C361.292 305.547 373.936 295.313 389.555 289.428" stroke="#81C379" stroke-width="5.66887" stroke-miterlimit="2.61313" stroke-linecap="round" stroke-linejoin="round"/>
<path id="Vector_12" fill-rule="evenodd" clip-rule="evenodd" d="M371.903 407.287L311.997 452.709L345.054 443.775L371.903 407.287Z" fill="#81C379"/>
<path id="Vector_13" fill-rule="evenodd" clip-rule="evenodd" d="M382.24 496.493L319.437 482.579L257.701 468.902L338.032 510.839L382.24 496.493Z" fill="#81C379"/>
<path id="Vector_14" fill-rule="evenodd" clip-rule="evenodd" d="M371.903 407.287L360.478 346.577L395.225 419.381L371.903 407.287Z" fill="#81C379"/>
</g>
</g>
<path id="Vector_15" fill-rule="evenodd" clip-rule="evenodd" d="M345.054 443.775L371.903 407.286L408.958 426.503L345.054 443.775V443.775ZM319.437 482.579L257.701 468.902L246.483 442.224L281.382 431.308L311.997 452.71C318.669 460.302 320.348 470.71 319.437 482.58V482.579ZM274.494 281.401L206.752 223.992L98.1187 294.122L124.668 358.975L204.568 554.147L354.028 505.647L382.241 496.492L445.621 510.534L432.634 426.505L387.241 282.054L297.474 240.012L274.496 281.401H274.494Z" stroke="white" stroke-width="1.88929" stroke-miterlimit="2.61313"/>
<path id="Vector_16" fill-rule="evenodd" clip-rule="evenodd" d="M311.997 452.709L281.382 431.307L246.482 442.223L257.701 468.901L319.436 482.578C320.346 470.708 318.668 460.3 311.997 452.708V452.709Z" fill="#999999" stroke="black" stroke-width="1.88929" stroke-miterlimit="2.61313"/>
<path id="Vector_17" fill-rule="evenodd" clip-rule="evenodd" d="M371.903 407.287L345.054 443.775L408.958 426.504L371.903 407.287Z" fill="#999999" stroke="black" stroke-width="1.88929" stroke-miterlimit="2.61313"/>
<path id="Vector_18" fill-rule="evenodd" clip-rule="evenodd" d="M354.027 505.648L204.567 554.148L124.668 358.976L159.978 544.08L142.323 610.765L293.404 680.482L357.537 616.35L354.027 505.648Z" fill="#A1D283"/>
<g id="Group_5">
<g id="Group_6">
<path id="_1_1" d="M152.047 502.504C163.551 506.654 175.549 510.52 188.099 513.922M285.584 527.859C307.179 528.219 330.126 526.848 354.583 523.253M157.731 552.566C215.584 571.772 287.144 578.643 355.905 564.93M148.471 587.543C206.442 623.493 278.316 638.124 357.239 607.005" stroke="#81C379" stroke-width="5.66887" stroke-miterlimit="2.61313" stroke-linecap="round" stroke-linejoin="round"/>
<path id="Vector_19" fill-rule="evenodd" clip-rule="evenodd" d="M144.444 462.642L204.567 554.148L124.668 358.976L144.444 462.642Z" fill="#81C379"/>
<path id="Vector_20" fill-rule="evenodd" clip-rule="evenodd" d="M354.027 505.648L204.567 554.148L354.812 530.394L354.027 505.648Z" fill="#81C379"/>
</g>
</g>
<path id="Vector_21" fill-rule="evenodd" clip-rule="evenodd" d="M354.027 505.648L204.567 554.148L124.668 358.976L159.978 544.08L142.323 610.765L293.404 680.482L357.537 616.35L354.027 505.648Z" stroke="black" stroke-width="1.88929" stroke-miterlimit="2.61313"/>
<path id="Vector_22" fill-rule="evenodd" clip-rule="evenodd" d="M399.836 562.221L404.276 569.91L408.715 577.6L413.156 569.91L417.594 562.221H408.715H399.836Z" fill="#008753" stroke="black" stroke-width="1.88929" stroke-miterlimit="2.61313"/>
<path id="Vector_23" fill-rule="evenodd" clip-rule="evenodd" d="M454.488 582.585C449.591 582.585 445.62 586.555 445.62 591.453C445.62 596.35 449.591 600.321 454.488 600.321C459.386 600.321 463.356 596.35 463.356 591.453C463.356 586.555 459.386 582.585 454.488 582.585Z" fill="#A1D283" stroke="black" stroke-width="1.88929" stroke-miterlimit="2.61313"/>
<path id="Vector_24" fill-rule="evenodd" clip-rule="evenodd" d="M455.593 544.246L463.06 549.051L470.525 553.857L470.954 544.988L471.383 536.119L463.487 540.182L455.593 544.246Z" fill="white" stroke="black" stroke-width="1.88929" stroke-miterlimit="2.61313"/>
<path id="Vector_25" fill-rule="evenodd" clip-rule="evenodd" d="M473.649 386.146L489.949 327.036L445.62 340.714L473.649 386.146Z" fill="#81C379" stroke="black" stroke-width="1.88929" stroke-miterlimit="2.61313"/>
<path id="Vector_26" fill-rule="evenodd" clip-rule="evenodd" d="M489.948 327.036L473.649 386.146L506.899 340.074L489.948 327.036Z" fill="#008753" stroke="black" stroke-width="1.88929" stroke-miterlimit="2.61313"/>
<path id="Vector_27" fill-rule="evenodd" clip-rule="evenodd" d="M489.949 327.036L506.899 340.074L479.082 294.002L489.949 327.036Z" fill="white" stroke="black" stroke-width="1.88929" stroke-miterlimit="2.61313"/>
<path id="Vector_28" fill-rule="evenodd" clip-rule="evenodd" d="M445.62 340.714L489.949 327.036L479.082 294.002L445.62 340.714Z" fill="#A1D283" stroke="black" stroke-width="1.88929" stroke-miterlimit="2.61313"/>
<path id="Vector_29" fill-rule="evenodd" clip-rule="evenodd" d="M48.067 393.57C33.0853 393.57 20.939 381.423 20.939 366.442C20.939 361.141 22.4587 356.196 25.0872 352.018C11.5097 353.505 0.945312 365.011 0.945312 378.984C0.945312 393.965 13.0916 406.112 28.0733 406.112C37.7558 406.112 46.2531 401.039 51.0531 393.407C50.0728 393.514 49.0765 393.57 48.067 393.57Z" fill="#008753" stroke="black" stroke-width="1.88929" stroke-miterlimit="2.61313"/>
<path id="Vector_30" fill-rule="evenodd" clip-rule="evenodd" d="M20.939 366.442C20.939 381.424 33.0853 393.57 48.067 393.57C49.0764 393.57 50.0728 393.514 51.0531 393.407C53.6806 389.229 55.2013 384.284 55.2013 378.984C55.2013 364.001 43.056 351.856 28.0733 351.856C27.0638 351.856 26.0675 351.911 25.0872 352.018C22.4596 356.197 20.939 361.141 20.939 366.442Z" fill="#81C379" stroke="black" stroke-width="1.88929" stroke-miterlimit="2.61313"/>
<path id="Vector_31" fill-rule="evenodd" clip-rule="evenodd" d="M28.0735 351.856C43.0562 351.856 55.2015 364.002 55.2015 378.984C55.2015 384.284 53.6819 389.23 51.0533 393.407C64.6309 391.92 75.1952 380.414 75.1952 366.442C75.1952 351.46 63.0499 339.314 48.0672 339.314C38.3847 339.314 29.8875 344.386 25.0874 352.018C26.0677 351.911 27.0641 351.856 28.0735 351.856Z" fill="#A1D283" stroke="black" stroke-width="1.88929" stroke-miterlimit="2.61313"/>
<path id="Vector_32" fill-rule="evenodd" clip-rule="evenodd" d="M43.5684 314.503C43.5684 320.714 48.6034 325.749 54.8147 325.749C61.0259 325.749 66.061 320.714 66.061 314.503C66.061 308.291 61.0259 303.255 54.8147 303.255C48.6034 303.255 43.5684 308.29 43.5684 314.503Z" fill="#A1D283" stroke="black" stroke-width="1.88929" stroke-miterlimit="2.61313"/>
<path id="Vector_33" fill-rule="evenodd" clip-rule="evenodd" d="M108.188 455.791L98.1187 468.606L108.188 481.421L118.257 468.606L108.188 455.791Z" fill="#81C379" stroke="black" stroke-width="1.88929" stroke-miterlimit="2.61313"/>
<g id="Group_7">
<g id="Group_8">
<path id="Vector_34" d="M98.1187 294.123L206.752 223.993L274.494 281.402" stroke="black" stroke-width="1.88929" stroke-miterlimit="2.61313" stroke-linecap="round" stroke-linejoin="round"/>
<path id="Vector_35" d="M98.1187 294.123L204.568 554.148" stroke="black" stroke-width="1.88929" stroke-miterlimit="2.61313" stroke-linecap="round" stroke-linejoin="round"/>
<path id="Vector_36" d="M204.568 554.148L382.24 496.493" stroke="black" stroke-width="1.88929" stroke-miterlimit="2.61313" stroke-linecap="round" stroke-linejoin="round"/>
<path id="Vector_37" d="M297.472 240.012L387.239 282.055" stroke="black" stroke-width="1.88929" stroke-miterlimit="2.61313" stroke-linecap="round" stroke-linejoin="round"/>
<path id="Vector_38" d="M387.239 282.055L432.633 426.505L445.62 510.535L257.701 468.902L198.116 327.198" stroke="black" stroke-width="1.88929" stroke-miterlimit="2.61313" stroke-linecap="round" stroke-linejoin="round"/>
<path id="Vector_39" d="M246.482 442.224L281.382 431.308L311.997 452.709L408.958 426.504L371.903 407.287L345.054 443.775" stroke="black" stroke-width="1.88929" stroke-miterlimit="2.61313" stroke-linecap="round" stroke-linejoin="round"/>
<path id="Vector_40" d="M371.903 407.287L360.478 346.577" stroke="black" stroke-width="1.88929" stroke-miterlimit="2.61313" stroke-linecap="round" stroke-linejoin="round"/>
<path id="Vector_41" d="M364.248 366.614L376.638 346.577" stroke="black" stroke-width="1.88929" stroke-miterlimit="2.61313" stroke-linecap="round" stroke-linejoin="round"/>
<path id="Vector_42" d="M311.997 452.709C318.669 460.301 320.348 470.709 319.437 482.579" stroke="black" stroke-width="1.88929" stroke-miterlimit="2.61313" stroke-linecap="round" stroke-linejoin="round"/>
<path id="Vector_43" d="M274.495 281.402L297.472 240.012" stroke="black" stroke-width="1.88929" stroke-miterlimit="2.61313" stroke-linecap="round" stroke-linejoin="round"/>
<path id="Vector_44" d="M228.441 475.399L257.701 468.902L240.392 486.211" stroke="black" stroke-width="1.88929" stroke-miterlimit="2.61313" stroke-linecap="round" stroke-linejoin="round"/>
<path id="Vector_45" d="M209.426 354.096V328.101" stroke="black" stroke-width="1.88929" stroke-miterlimit="2.61313" stroke-linecap="round" stroke-linejoin="round"/>
<path id="Vector_46" d="M124.668 358.976L159.978 544.08L142.323 610.765L293.404 680.482L357.537 616.35L354.027 505.648" stroke="black" stroke-width="1.88929" stroke-miterlimit="2.61313" stroke-linecap="round" stroke-linejoin="round"/>
<path id="Vector_47" d="M175.217 533.639L159.978 544.08L175.217 548.575" stroke="black" stroke-width="1.88929" stroke-miterlimit="2.61313" stroke-linecap="round" stroke-linejoin="round"/>
<path id="Vector_48" d="M206.752 223.993L204.101 193.039" stroke="black" stroke-width="1.88929" stroke-miterlimit="2.61313" stroke-linecap="round" stroke-linejoin="round"/>
<path id="Vector_49" d="M297.472 240.012L292.351 183.687" stroke="black" stroke-width="1.88929" stroke-miterlimit="2.61313" stroke-linecap="round" stroke-linejoin="round"/>
<path id="Vector_50" fill-rule="evenodd" clip-rule="evenodd" d="M291.262 108.376C284.893 41.483 174.178 55.9073 186.306 123.2L198.116 188.723L247.019 223.993L274.494 218.866L297.472 173.597L291.262 108.377V108.376Z" stroke="black" stroke-width="1.88929" stroke-miterlimit="2.61313" stroke-linecap="round" stroke-linejoin="round"/>
<path id="Vector_51" d="M187.141 127.829C184.417 129.92 181.007 131.163 177.307 131.163C168.38 131.163 161.143 123.927 161.143 115C161.143 113.836 161.268 112.702 161.501 111.609C155.789 110.287 151.532 105.167 151.532 99.0536C151.532 94.6202 153.771 90.71 157.179 88.3918C151.654 87.5572 147.421 82.7903 147.421 77.032C147.421 75.3717 147.773 73.7948 148.407 72.3705C147.774 71.0156 147.421 69.503 147.421 67.908C147.421 62.0683 152.155 57.3346 157.995 57.3346C158.919 57.3346 159.816 57.4531 160.67 57.6761C158.995 55.5216 157.995 52.8147 157.995 49.8748C157.995 42.853 163.687 37.1611 170.709 37.1611C171.146 37.1611 171.578 37.1832 172.004 37.2254C171.399 35.6143 171.068 33.8686 171.068 32.0456C171.068 23.8999 177.671 17.2969 185.816 17.2969C188.354 17.2969 190.743 17.9377 192.828 19.0667C192.812 18.7674 192.802 18.4651 192.802 18.1617C192.802 9.23456 200.039 1.99781 208.966 1.99781C214.796 1.99781 219.906 5.08535 222.749 9.71466C225.433 4.50682 230.863 0.94519 237.125 0.94519C244.803 0.94519 251.23 6.29868 252.88 13.4762C255.311 11.0284 258.681 9.51177 262.404 9.51177C269.82 9.51177 275.83 15.5231 275.83 22.9377C275.83 23.5634 275.787 24.1791 275.704 24.7818C277.812 23.6076 280.239 22.9377 282.822 22.9377C290.913 22.9377 297.471 29.4964 297.471 37.5869C297.471 40.5379 296.598 43.2839 295.097 45.584C295.653 45.5017 296.223 45.4575 296.802 45.4575C303.147 45.4575 308.291 50.601 308.291 56.9459C308.291 59.0662 307.716 61.0519 306.714 62.7574C309.655 64.6366 311.605 67.9301 311.605 71.6785C311.605 75.0101 310.066 77.9802 307.66 79.9197C309.237 81.5297 310.209 83.7344 310.209 86.1661C310.209 91.0987 306.212 95.0962 301.267 95.0962C301.199 101.165 296.887 106.217 291.161 107.415" stroke="black" stroke-width="1.88929" stroke-miterlimit="2.61313" stroke-linecap="round" stroke-linejoin="round"/>
<path id="Vector_52" fill-rule="evenodd" clip-rule="evenodd" d="M241.425 187.681L219.026 168.149L280.211 159.818L271.567 182.265L241.425 187.681Z" stroke="black" stroke-width="1.88929" stroke-miterlimit="2.61313" stroke-linecap="round" stroke-linejoin="round"/>
</g>
<path id="Vector_53" fill-rule="evenodd" clip-rule="evenodd" d="M348.366 151.869H455.772V187.526C455.772 197.846 447.328 206.29 437.007 206.29H349.587L329.602 229.182V206.29V170.634C329.602 160.313 338.046 151.869 348.366 151.869V151.869Z" stroke="black" stroke-width="1.88929" stroke-miterlimit="2.61313" stroke-linecap="round" stroke-linejoin="round"/>
<path id="Vector_54" fill-rule="evenodd" clip-rule="evenodd" d="M466.451 141.423H359.045V105.767C359.045 95.4467 367.489 87.0027 377.81 87.0027H485.215H508.107L485.215 106.987V122.659C485.215 132.979 476.771 141.423 466.451 141.423Z" stroke="black" stroke-width="1.88929" stroke-miterlimit="2.61313" stroke-linecap="round" stroke-linejoin="round"/>
<path id="Vector_55" fill-rule="evenodd" clip-rule="evenodd" d="M506.899 340.074L479.082 294.002L445.62 340.714L473.649 386.146L506.899 340.074Z" stroke="black" stroke-width="1.88929" stroke-miterlimit="2.61313" stroke-linecap="round" stroke-linejoin="round"/>
<path id="Vector_56" d="M479.082 294.002L489.948 327.036L473.649 386.146" stroke="black" stroke-width="1.88929" stroke-miterlimit="2.61313" stroke-linecap="round" stroke-linejoin="round"/>
<path id="Vector_57" d="M445.62 340.714L489.949 327.036L506.899 340.074" stroke="black" stroke-width="1.88929" stroke-miterlimit="2.61313" stroke-linecap="round" stroke-linejoin="round"/>
<path id="Vector_58" d="M48.067 393.57C63.0494 393.57 75.195 381.424 75.195 366.442C75.195 351.459 63.0494 339.314 48.067 339.314C33.0846 339.314 20.939 351.459 20.939 366.442C20.939 381.424 33.0846 393.57 48.067 393.57Z" stroke="black" stroke-width="1.88929" stroke-miterlimit="2.61313" stroke-linecap="round" stroke-linejoin="round"/>
<path id="Vector_59" d="M28.0733 406.112C43.0557 406.112 55.2013 393.966 55.2013 378.984C55.2013 364.001 43.0557 351.856 28.0733 351.856C13.0909 351.856 0.945312 364.001 0.945312 378.984C0.945312 393.966 13.0909 406.112 28.0733 406.112Z" stroke="black" stroke-width="1.88929" stroke-miterlimit="2.61313" stroke-linecap="round" stroke-linejoin="round"/>
<path id="Vector_60" d="M54.8157 325.75C61.0274 325.75 66.063 320.714 66.063 314.503C66.063 308.291 61.0274 303.255 54.8157 303.255C48.604 303.255 43.5684 308.291 43.5684 314.503C43.5684 320.714 48.604 325.75 54.8157 325.75Z" stroke="black" stroke-width="1.88929" stroke-miterlimit="2.61313" stroke-linecap="round" stroke-linejoin="round"/>
<path id="Vector_61" d="M108.187 455.791L98.1182 468.606L108.187 481.421L118.256 468.606L108.187 455.791Z" stroke="black" stroke-width="3.0043" stroke-miterlimit="2.61313" stroke-linecap="round" stroke-linejoin="round"/>
<path id="Vector_62" fill-rule="evenodd" clip-rule="evenodd" d="M408.715 577.6L413.156 569.91L417.594 562.221H408.715H399.836L404.276 569.91L408.715 577.6Z" stroke="black" stroke-width="1.88929" stroke-miterlimit="2.61313" stroke-linecap="round" stroke-linejoin="round"/>
<path id="Vector_63" fill-rule="evenodd" clip-rule="evenodd" d="M471.383 536.119L463.487 540.182L455.593 544.246L463.06 549.051L470.525 553.857L470.954 544.988L471.383 536.119Z" stroke="black" stroke-width="1.88929" stroke-miterlimit="2.61313" stroke-linecap="round" stroke-linejoin="round"/>
<path id="Vector_64" d="M454.488 600.322C459.386 600.322 463.356 596.351 463.356 591.454C463.356 586.556 459.386 582.586 454.488 582.586C449.59 582.586 445.62 586.556 445.62 591.454C445.62 596.351 449.59 600.322 454.488 600.322Z" stroke="black" stroke-width="1.88929" stroke-miterlimit="2.61313" stroke-linecap="round" stroke-linejoin="round"/>
<path id="Vector_65" d="M78.8521 192.102L71.7258 140.173L88.0595 119.823M93.2914 192.044L102.313 144.115L87.6708 135.585M86.2887 191.6L88.0595 119.822M67.3958 194.946C73.2846 192.782 79.6486 191.6 86.2887 191.6C92.9288 191.6 99.2927 192.782 105.182 194.945M88.0595 87.8977L93.2291 103.912L110.057 103.88L96.4242 113.745L101.655 129.739L88.0605 119.822L74.4658 129.739L79.6968 113.745L66.064 103.88L82.8918 103.912L88.0615 87.8977H88.0595Z" stroke="black" stroke-width="1.88929" stroke-miterlimit="2.61313" stroke-linecap="round" stroke-linejoin="round"/>
</g>
</g>
</g>
</g>
<defs>
<clipPath id="clip0_339_1421">
<rect width="509.052" height="681.616" fill="white"/>
</clipPath>
</defs>
</svg>
