<svg width="699" height="774" viewBox="0 0 699 774" fill="none" xmlns="http://www.w3.org/2000/svg">
<g clip-path="url(#clip0_339_1607)">
<path d="M42.2588 228.403C155.036 250.519 274.729 256.203 409.923 208.899M409.923 208.899L432.861 252.86L478.318 132.08L346.323 87.0138L363.295 119.539M42.7041 202.339C159.127 213.515 272.258 197.298 363.295 119.538" stroke="#008753" stroke-width="1.88977" stroke-miterlimit="2.61313" stroke-linecap="round" stroke-linejoin="round"/>
<path fill-rule="evenodd" clip-rule="evenodd" d="M573.817 170.046L581.21 146.075L559.667 133.219L552.763 155.603L552.272 157.191L573.816 170.046H573.817ZM562.128 139.62L576.18 148.006L571.357 163.645L557.304 155.259L562.128 139.62Z" fill="#81C379" stroke="black" stroke-width="1.88977" stroke-miterlimit="2.61313"/>
<path fill-rule="evenodd" clip-rule="evenodd" d="M577.579 93.0286L597.734 85.0526L596.17 81.1008L576.016 89.0768L577.579 93.0286Z" fill="#008753" stroke="black" stroke-width="1.88977" stroke-miterlimit="2.61313"/>
<path fill-rule="evenodd" clip-rule="evenodd" d="M598.828 87.8184L578.674 95.7943L580.237 99.7461L600.392 91.7702L598.828 87.8184Z" fill="#008753" stroke="black" stroke-width="1.88977" stroke-miterlimit="2.61313"/>
<path fill-rule="evenodd" clip-rule="evenodd" d="M601.487 94.5359L581.332 102.512L582.896 106.464L603.051 98.4877L601.487 94.5359Z" fill="#008753" stroke="black" stroke-width="1.88977" stroke-miterlimit="2.61313"/>
<path fill-rule="evenodd" clip-rule="evenodd" d="M690.348 143.429C692.567 145.647 693.676 148.564 693.676 151.485C693.676 154.399 692.564 157.316 690.339 159.541L682.283 167.597L674.223 159.545C672.003 157.322 670.891 154.404 670.891 151.486C670.891 148.571 672.004 145.654 674.228 143.43C676.452 141.206 679.369 140.093 682.284 140.093C685.204 140.093 688.121 141.201 690.34 143.421L690.348 143.43L690.348 143.429ZM682.283 135.842C678.279 135.842 674.276 137.37 671.222 140.423C668.168 143.476 666.64 147.481 666.64 151.485C666.64 155.482 668.168 159.483 671.222 162.546L682.283 173.607L693.344 162.546C696.398 159.493 697.926 155.488 697.926 151.485C697.926 147.491 696.398 143.49 693.344 140.432L693.335 140.423C690.278 137.37 686.277 135.842 682.283 135.842Z" fill="#81C379" stroke="black" stroke-width="1.88977" stroke-miterlimit="2.61313"/>
<path fill-rule="evenodd" clip-rule="evenodd" d="M685.471 151.485C685.471 150.608 685.115 149.815 684.547 149.241L684.527 149.22C683.953 148.653 683.159 148.297 682.283 148.297C681.403 148.297 680.603 148.656 680.03 149.23C679.453 149.807 679.096 150.604 679.096 151.484C679.096 152.354 679.448 153.15 680.02 153.727L680.04 153.747C680.617 154.319 681.413 154.671 682.283 154.671C683.163 154.671 683.961 154.313 684.537 153.737C685.111 153.163 685.47 152.363 685.47 151.484L685.471 151.485ZM682.284 151.059C682.518 151.059 682.709 151.25 682.709 151.485C682.709 151.719 682.519 151.909 682.284 151.909C682.049 151.909 681.859 151.719 681.859 151.485C681.859 151.25 682.049 151.059 682.284 151.059Z" fill="#81C379" stroke="black" stroke-width="1.88977" stroke-miterlimit="2.61313"/>
<path fill-rule="evenodd" clip-rule="evenodd" d="M646.382 204.036C645.886 202.027 644.615 200.405 642.972 199.415C641.331 198.424 639.305 198.057 637.3 198.553L635.57 198.981L633.843 192.002L629.726 193.015L631.456 199.999L627.648 200.942L625.921 193.962L621.803 194.975L623.532 201.96L619.621 202.928L620.634 207.045L638.313 202.669C639.181 202.455 640.063 202.618 640.781 203.051C641.499 203.483 642.053 204.185 642.266 205.049C642.481 205.917 642.318 206.799 641.885 207.516C641.452 208.234 640.749 208.787 639.886 209.001L622.207 213.376L623.219 217.493L640.899 213.118C641.767 212.904 642.648 213.065 643.366 213.498C644.084 213.931 644.638 214.634 644.851 215.497C645.065 216.365 644.903 217.247 644.469 217.965C644.037 218.682 643.335 219.235 642.471 219.449L624.791 223.824L625.803 227.941L629.72 226.972L631.447 233.951L635.564 232.938L633.835 225.954L637.643 225.012L639.369 231.991L643.487 230.978L641.758 223.993L643.483 223.567C645.491 223.071 647.114 221.801 648.104 220.157C649.096 218.515 649.463 216.491 648.966 214.485C648.469 212.476 647.199 210.854 645.556 209.863L645.459 209.806L645.519 209.708C646.51 208.066 646.877 206.042 646.381 204.036H646.382Z" fill="#008753" stroke="black" stroke-width="1.88977" stroke-miterlimit="2.61313"/>
<path fill-rule="evenodd" clip-rule="evenodd" d="M654.503 278.729C650.402 278.729 646.685 280.394 643.986 283.084C641.296 285.774 639.629 289.494 639.629 293.602C639.629 297.704 641.295 301.42 643.986 304.112L643.994 304.121C646.686 306.811 650.402 308.477 654.504 308.477C658.612 308.477 662.332 306.812 665.022 304.113C667.712 301.421 669.378 297.706 669.378 293.603C669.378 289.495 667.712 285.775 665.022 283.085C662.332 280.395 658.612 278.729 654.504 278.729L654.503 278.729ZM654.503 282.978C657.437 282.978 660.094 284.168 662.016 286.09C663.937 288.012 665.128 290.669 665.128 293.603C665.128 296.539 663.939 299.197 662.016 301.116C660.094 303.037 657.437 304.228 654.503 304.228C651.567 304.228 648.909 303.039 646.986 301.12C645.067 299.197 643.879 296.539 643.879 293.603C643.879 290.669 645.069 288.012 646.986 286.086C648.909 284.167 651.567 282.978 654.503 282.978Z" fill="#81C379" stroke="black" stroke-width="1.88977" stroke-miterlimit="2.61313"/>
<path fill-rule="evenodd" clip-rule="evenodd" d="M654.503 290.415C652.743 290.415 651.316 291.842 651.316 293.602C651.316 295.363 652.743 296.789 654.503 296.789C656.263 296.789 657.69 295.363 657.69 293.602C657.69 291.842 656.263 290.415 654.503 290.415Z" fill="#81C379" stroke="black" stroke-width="1.88977" stroke-miterlimit="2.61313"/>
<path fill-rule="evenodd" clip-rule="evenodd" d="M154.284 227.28L209.45 199.61L252.775 177.878C256.115 163.629 250.932 152.712 240.041 144.027C198.136 152.486 165.266 171.188 143.261 202.208L154.284 227.28Z" fill="#008753" stroke="black" stroke-width="1.88977" stroke-miterlimit="2.61313"/>
<path fill-rule="evenodd" clip-rule="evenodd" d="M209.45 199.609L154.284 227.279L182.547 291.571C194.399 280.311 196.126 261.834 191.271 238.667L203.665 232.872C199.388 222.514 196.813 206.905 209.449 199.609H209.45Z" fill="#81C379" stroke="black" stroke-width="1.88977" stroke-miterlimit="2.61313"/>
<path fill-rule="evenodd" clip-rule="evenodd" d="M209.449 199.609C196.814 206.905 199.389 222.514 203.666 232.872L191.272 238.667C196.125 261.834 194.399 280.311 182.547 291.571L245.654 326.789L249.202 319.282L229.997 297.7L230.034 259.405C247.342 251.449 264.108 247.935 279.763 253.525L279.8 256.3C279.818 254.32 279.819 252.333 279.807 250.339L292.932 244.522C282.384 219.73 268.397 198.062 252.776 177.879L209.45 199.611L209.449 199.609Z" fill="#999999" stroke="black" stroke-width="1.88977" stroke-miterlimit="2.61313"/>
<path fill-rule="evenodd" clip-rule="evenodd" d="M230.035 259.405L229.998 297.7L249.202 319.282L270.718 321.717C273.914 311.862 276.112 301.508 277.544 290.771C262.739 293.466 252.776 291.57 244.585 285.151L244.659 263.144C252.777 256.156 264.528 254.133 279.799 256.341C279.799 256.326 279.799 256.312 279.8 256.298V256.289L279.764 253.523C264.108 247.934 247.342 251.448 230.035 259.403V259.405Z" fill="#81C379" stroke="black" stroke-width="1.88977" stroke-miterlimit="2.61313"/>
<path fill-rule="evenodd" clip-rule="evenodd" d="M244.659 263.145L244.585 285.152C252.776 291.572 262.738 293.468 277.545 290.773C278.08 286.767 278.508 282.71 278.842 278.604H266.391L255.878 265.961L279.635 264.393C279.72 261.725 279.774 259.041 279.799 256.343C264.527 254.135 252.777 256.158 244.659 263.145Z" fill="#999999" stroke="black" stroke-width="1.88977" stroke-miterlimit="2.61313"/>
<path fill-rule="evenodd" clip-rule="evenodd" d="M245.654 326.79L182.547 291.572L170.129 306.368C196.916 321.758 219.026 341.826 236.983 366.046L245.673 353.624L252.775 343.471L255.304 339.856L259.168 334.332L245.654 326.79Z" fill="#A1D283" stroke="black" stroke-width="1.88977" stroke-miterlimit="2.61313"/>
<path fill-rule="evenodd" clip-rule="evenodd" d="M236.983 366.045C219.026 341.826 196.916 321.758 170.13 306.367C166.992 304.563 163.79 302.825 160.522 301.152L143.262 321.717C201.069 335.45 236.61 364.326 259.169 402.028C252.617 389.19 245.24 377.179 236.983 366.045Z" fill="#A1D283" stroke="black" stroke-width="1.88977" stroke-miterlimit="2.61313"/>
<path fill-rule="evenodd" clip-rule="evenodd" d="M259.168 402.028C236.609 364.327 201.068 335.451 143.261 321.717L84.942 391.203L113.887 532.713L74.4897 679.046C141.917 725.721 213.806 759.686 293.187 772.314C295.138 755.018 296.795 738.016 298.132 721.335C304.337 643.864 303.632 573.305 293.479 512.195L279.807 522.144L219.596 482.087L210.015 475.713L140.408 429.405C140.346 429.365 140.284 429.322 140.223 429.283C124.782 419.011 120.592 398.167 130.866 382.725C141.137 367.284 161.981 363.095 177.423 373.368L274.677 438.067C270.133 425.428 264.976 413.404 259.17 402.028L259.168 402.028ZM173.343 635.554L265.485 643.663C258.678 673.431 260.696 667.698 195.336 664.877L173.343 635.554Z" fill="#008753" stroke="black" stroke-width="1.88977" stroke-miterlimit="2.61313"/>
<path fill-rule="evenodd" clip-rule="evenodd" d="M274.675 438.067L177.421 373.368C161.98 363.095 141.136 367.285 130.864 382.725C120.591 398.167 124.781 419.011 140.222 429.282L140.407 429.405L210.014 475.713L219.595 482.087L279.806 522.144L293.478 512.195L304.667 504.053L309.493 500.541L324.978 489.274L419.187 420.721L412.651 412.717L379.504 372.121L305.463 425.998L294.43 434.026L287.177 439.304L282.094 443.003L274.676 438.068L274.675 438.067ZM378.027 434.25C376.744 432.486 377.137 429.993 378.901 428.71L388.84 421.477C390.604 420.194 393.097 420.587 394.381 422.352C395.665 424.116 395.272 426.608 393.508 427.892L383.568 435.124C381.804 436.408 379.311 436.015 378.027 434.25Z" fill="#008753" stroke="black" stroke-width="1.88977" stroke-miterlimit="2.61313"/>
<path fill-rule="evenodd" clip-rule="evenodd" d="M265.486 643.663L173.344 635.554L195.337 664.877C260.697 667.698 258.679 673.431 265.486 643.663Z" fill="#A1D283" stroke="black" stroke-width="1.88977" stroke-miterlimit="2.61313"/>
<path fill-rule="evenodd" clip-rule="evenodd" d="M378.026 434.25C379.31 436.015 381.803 436.408 383.567 435.124L393.507 427.892C395.271 426.608 395.664 424.116 394.38 422.352C393.096 420.587 390.603 420.194 388.839 421.477L378.899 428.71C377.135 429.993 376.743 432.486 378.026 434.25Z" fill="#A1D283" stroke="black" stroke-width="1.88977" stroke-miterlimit="2.61313"/>
<path fill-rule="evenodd" clip-rule="evenodd" d="M287.176 439.304C276.091 407.049 262.231 378.523 245.673 353.624L236.984 366.046C245.24 377.18 252.617 389.191 259.169 402.028C264.975 413.404 270.132 425.429 274.676 438.067L282.095 443.002L287.177 439.304H287.176Z" fill="#81C379" stroke="black" stroke-width="1.88977" stroke-miterlimit="2.61313"/>
<path fill-rule="evenodd" clip-rule="evenodd" d="M304.668 504.053L293.479 512.194C303.631 573.305 304.336 643.864 298.131 721.335L319.417 702.428C319.438 701.614 319.459 700.801 319.479 699.989C319.479 699.965 319.48 699.94 319.48 699.916C319.646 690.863 319.769 681.848 319.835 672.878C319.943 609.662 314.828 553.467 304.669 504.053H304.668Z" fill="#81C379" stroke="black" stroke-width="1.88977" stroke-miterlimit="2.61313"/>
<path fill-rule="evenodd" clip-rule="evenodd" d="M304.668 504.053C314.827 553.467 319.943 609.662 319.834 672.877C320.28 612.647 318.182 554.423 309.493 500.541L304.667 504.053H304.668ZM287.176 439.304L294.429 434.027C284.527 401.316 271.024 370.909 252.774 343.471L245.672 353.624C262.231 378.524 276.091 407.05 287.175 439.304H287.176Z" fill="#A1D283" stroke="black" stroke-width="1.88977" stroke-miterlimit="2.61313"/>
<path fill-rule="evenodd" clip-rule="evenodd" d="M252.775 343.47C271.024 370.909 284.528 401.315 294.429 434.026L305.463 425.998C292.541 393.508 275.91 364.705 255.304 339.855L252.775 343.47Z" fill="#008753" stroke="black" stroke-width="1.88977" stroke-miterlimit="2.61313"/>
<path fill-rule="evenodd" clip-rule="evenodd" d="M324.977 489.274L309.494 500.541C318.182 554.423 320.28 612.646 319.834 672.878C319.819 681.742 319.702 690.745 319.48 699.886C319.48 699.897 319.48 699.906 319.48 699.916C319.48 699.941 319.479 699.966 319.479 699.99C319.459 700.802 319.438 701.615 319.417 702.429L338.615 712.437C343.87 628.304 339.793 553.449 324.977 489.275V489.274Z" fill="#008753" stroke="black" stroke-width="1.88977" stroke-miterlimit="2.61313"/>
<path fill-rule="evenodd" clip-rule="evenodd" d="M379.503 372.121L412.652 412.717L419.188 396.421L395.137 360.746L379.503 372.121Z" fill="#A1D283" stroke="black" stroke-width="1.88977" stroke-miterlimit="2.61313"/>
<path fill-rule="evenodd" clip-rule="evenodd" d="M395.137 360.746L419.188 396.421C444.413 384.017 438.308 388.952 445.698 360.746L463.925 357.548V343.471L450.016 339.856L440.977 321.718L445.698 312.645L434.718 301.153L428.376 304.5L396.358 321.399L391.168 324.138L395.137 360.746Z" fill="#999999" stroke="black" stroke-width="1.88977" stroke-miterlimit="2.61313"/>
<path fill-rule="evenodd" clip-rule="evenodd" d="M396.358 321.398L428.376 304.499L426.525 299.432L423.182 290.289L389.489 302.6L392.831 311.746L396.358 321.398Z" fill="#008753" stroke="black" stroke-width="1.88977" stroke-miterlimit="2.61313"/>
<path fill-rule="evenodd" clip-rule="evenodd" d="M389.489 302.601L423.183 290.288L426.525 299.433L431.266 297.7L408.803 236.231L353.106 256.587L375.568 318.055L392.831 311.746L389.489 302.601Z" fill="#81C379" stroke="black" stroke-width="1.88977" stroke-miterlimit="2.61313"/>
<path fill-rule="evenodd" clip-rule="evenodd" d="M408.804 236.231L431.266 297.7L444.737 292.778L480.159 279.833C480.196 279.819 480.234 279.805 480.271 279.792C496.317 273.988 539.492 270.789 556.025 281.577L514.565 168.118C508.869 187.066 473.653 212.532 457.697 218.364L428.221 229.136L408.803 236.231H408.804Z" fill="#A1D283" stroke="black" stroke-width="1.88977" stroke-miterlimit="2.61313"/>
<path fill-rule="evenodd" clip-rule="evenodd" d="M514.564 168.119L556.024 281.577L558.92 289.501C559.518 291.151 561.341 292.004 562.992 291.407C564.641 290.809 565.495 288.985 564.897 287.336L517.505 157.645C516.907 155.995 515.083 155.142 513.433 155.74C511.784 156.337 510.93 158.161 511.528 159.811L514.564 168.12V168.119Z" fill="#008753" stroke="black" stroke-width="1.88977" stroke-miterlimit="2.61313"/>
<path fill-rule="evenodd" clip-rule="evenodd" d="M375.568 318.055L353.105 256.585L336.458 262.67L339.682 271.495L355.695 315.312L358.92 324.138L375.568 318.055Z" fill="#008753" stroke="black" stroke-width="1.88977" stroke-miterlimit="2.61313"/>
<path fill-rule="evenodd" clip-rule="evenodd" d="M355.695 315.312L339.682 271.495L327.815 275.832L343.828 319.649L355.695 315.312Z" fill="#81C379" stroke="black" stroke-width="1.88977" stroke-miterlimit="2.61313"/>
<path d="M274.675 438.067C252.545 376.511 215.861 329.503 160.521 301.153L84.942 391.205L113.887 532.714L74.4897 679.048C141.917 725.723 213.806 759.688 293.187 772.316C304.203 674.69 305.818 586.465 293.479 512.196" stroke="black" stroke-width="1.88977" stroke-miterlimit="2.61313" stroke-linecap="round" stroke-linejoin="round"/>
<path d="M143.262 321.718C201.069 335.451 236.61 364.327 259.168 402.028" stroke="black" stroke-width="1.88977" stroke-miterlimit="2.61313" stroke-linecap="round" stroke-linejoin="round"/>
<path d="M182.548 291.572L170.129 306.367" stroke="black" stroke-width="1.88977" stroke-miterlimit="2.61313" stroke-linecap="round" stroke-linejoin="round"/>
<path d="M182.547 291.572L259.168 334.331L236.983 366.045" stroke="black" stroke-width="1.88977" stroke-miterlimit="2.61313" stroke-linecap="round" stroke-linejoin="round"/>
<path d="M140.407 429.405C140.345 429.365 140.283 429.322 140.222 429.283C124.781 419.011 120.591 398.167 130.865 382.725C141.136 367.284 161.98 363.095 177.423 373.368" stroke="black" stroke-width="1.88977" stroke-miterlimit="2.61313" stroke-linecap="round" stroke-linejoin="round"/>
<path d="M177.421 373.367L282.094 443.002" stroke="black" stroke-width="1.88977" stroke-miterlimit="2.61313" stroke-linecap="round" stroke-linejoin="round"/>
<path d="M140.223 429.282L279.807 522.143" stroke="black" stroke-width="1.88977" stroke-miterlimit="2.61313" stroke-linecap="round" stroke-linejoin="round"/>
<path d="M282.094 443.002L395.137 360.746" stroke="black" stroke-width="1.88977" stroke-miterlimit="2.61313" stroke-linecap="round" stroke-linejoin="round"/>
<path d="M279.807 522.143L419.188 420.721" stroke="black" stroke-width="1.88977" stroke-miterlimit="2.61313" stroke-linecap="round" stroke-linejoin="round"/>
<path d="M379.503 372.121L419.188 420.721" stroke="black" stroke-width="1.88977" stroke-miterlimit="2.61313" stroke-linecap="round" stroke-linejoin="round"/>
<path d="M395.137 360.746L419.188 396.421L412.652 412.717" stroke="black" stroke-width="1.88977" stroke-miterlimit="2.61313" stroke-linecap="round" stroke-linejoin="round"/>
<path d="M143.262 466.27L210.015 475.712" stroke="black" stroke-width="1.88977" stroke-miterlimit="2.61313" stroke-linecap="round" stroke-linejoin="round"/>
<path d="M219.595 482.087C194.962 484.235 174.5 493.738 158.876 511.787" stroke="black" stroke-width="1.88977" stroke-miterlimit="2.61313" stroke-linecap="round" stroke-linejoin="round"/>
<path d="M130.994 526.523L113.888 532.714L129.02 540.876" stroke="black" stroke-width="1.88977" stroke-miterlimit="2.61313" stroke-linecap="round" stroke-linejoin="round"/>
<path d="M245.673 353.623C262.232 378.523 276.092 407.049 287.176 439.304M304.668 504.052C316.384 561.037 321.392 627.039 319.417 702.428L298.132 721.335" stroke="black" stroke-width="1.88977" stroke-miterlimit="2.61313" stroke-linecap="round" stroke-linejoin="round"/>
<path d="M252.775 343.47C271.024 370.908 284.527 401.315 294.429 434.026M309.494 500.541C319.481 562.47 320.76 630.133 319.479 699.989" stroke="black" stroke-width="1.88977" stroke-miterlimit="2.61313" stroke-linecap="round" stroke-linejoin="round"/>
<path d="M255.305 339.856C275.91 364.705 292.541 393.508 305.463 425.998M324.978 489.275C339.793 553.449 343.871 628.303 338.616 712.437L319.418 702.429" stroke="black" stroke-width="1.88977" stroke-miterlimit="2.61313" stroke-linecap="round" stroke-linejoin="round"/>
<path d="M173.343 635.554L265.486 643.662" stroke="black" stroke-width="1.88977" stroke-miterlimit="2.61313" stroke-linecap="round" stroke-linejoin="round"/>
<path d="M173.343 635.554L195.336 664.877C260.696 667.698 258.678 673.431 265.485 643.663" stroke="black" stroke-width="1.88977" stroke-miterlimit="2.61313" stroke-linecap="round" stroke-linejoin="round"/>
<path d="M395.137 360.746L391.168 324.138" stroke="black" stroke-width="1.88977" stroke-miterlimit="2.61313" stroke-linecap="round" stroke-linejoin="round"/>
<path d="M391.168 324.138L434.718 301.153L445.698 312.645L440.977 321.718L450.016 339.856L463.925 343.471V357.548L445.698 360.746C438.308 388.952 444.413 384.017 419.188 396.421" stroke="black" stroke-width="1.88977" stroke-miterlimit="2.61313" stroke-linecap="round" stroke-linejoin="round"/>
<path d="M336.458 262.669L457.697 218.364" stroke="black" stroke-width="1.88977" stroke-miterlimit="2.61313" stroke-linecap="round" stroke-linejoin="round"/>
<path d="M358.92 324.138L392.831 311.746M426.525 299.432L480.271 279.792" stroke="black" stroke-width="1.88977" stroke-miterlimit="2.61313" stroke-linecap="round" stroke-linejoin="round"/>
<path d="M511.528 159.81C510.931 158.161 511.784 156.337 513.433 155.739C515.083 155.141 516.907 155.995 517.505 157.644L564.897 287.335C565.495 288.984 564.641 290.809 562.992 291.406C561.342 292.003 559.518 291.15 558.92 289.5L511.528 159.809V159.81Z" stroke="black" stroke-width="1.88977" stroke-miterlimit="2.61313" stroke-linecap="round" stroke-linejoin="round"/>
<path d="M428.221 229.136L457.697 218.364C473.652 212.533 508.868 187.067 514.565 168.119" stroke="black" stroke-width="1.88977" stroke-miterlimit="2.61313" stroke-linecap="round" stroke-linejoin="round"/>
<path d="M556.025 281.578C539.453 270.764 496.114 274.003 480.158 279.834L444.736 292.779" stroke="black" stroke-width="1.88977" stroke-miterlimit="2.61313" stroke-linecap="round" stroke-linejoin="round"/>
<path d="M358.92 324.138L336.458 262.67" stroke="black" stroke-width="1.88977" stroke-miterlimit="2.61313" stroke-linecap="round" stroke-linejoin="round"/>
<path d="M375.568 318.055L353.106 256.587" stroke="black" stroke-width="1.88977" stroke-miterlimit="2.61313" stroke-linecap="round" stroke-linejoin="round"/>
<path d="M431.266 297.7L408.803 236.232" stroke="black" stroke-width="1.88977" stroke-miterlimit="2.61313" stroke-linecap="round" stroke-linejoin="round"/>
<path fill-rule="evenodd" clip-rule="evenodd" d="M355.694 315.312L339.682 271.495L327.815 275.832L343.828 319.649L355.694 315.312Z" stroke="black" stroke-width="1.88977" stroke-miterlimit="2.61313" stroke-linecap="round" stroke-linejoin="round"/>
<path d="M428.376 304.499L423.183 290.288" stroke="black" stroke-width="1.88977" stroke-miterlimit="2.61313" stroke-linecap="round" stroke-linejoin="round"/>
<path d="M396.358 321.398L389.489 302.6" stroke="black" stroke-width="1.88977" stroke-miterlimit="2.61313" stroke-linecap="round" stroke-linejoin="round"/>
<path d="M389.49 302.6L423.182 290.289" stroke="black" stroke-width="1.88977" stroke-miterlimit="2.61313" stroke-linecap="round" stroke-linejoin="round"/>
<path d="M182.548 291.572L143.262 202.208C165.267 171.188 198.137 152.486 240.042 144.027C250.933 152.712 256.116 163.629 252.776 177.878C268.398 198.06 282.384 219.728 292.933 244.521L279.807 250.338C279.837 255.066 279.784 259.753 279.635 264.392M278.842 278.603C277.612 293.715 275.106 308.187 270.718 321.718L249.202 319.283" stroke="black" stroke-width="1.88977" stroke-miterlimit="2.61313" stroke-linecap="round" stroke-linejoin="round"/>
<path d="M245.654 326.79L249.202 319.283" stroke="black" stroke-width="1.88977" stroke-miterlimit="2.61313" stroke-linecap="round" stroke-linejoin="round"/>
<path d="M271.478 453.619L282.093 443.002V458.938" stroke="black" stroke-width="1.88977" stroke-miterlimit="2.61313" stroke-linecap="round" stroke-linejoin="round"/>
<path d="M282.094 443.002L293.104 454.013" stroke="black" stroke-width="1.88977" stroke-miterlimit="2.61313" stroke-linecap="round" stroke-linejoin="round"/>
<path d="M394.38 422.351C393.091 420.579 388.385 421.807 383.87 425.094C379.354 428.38 376.738 432.479 378.027 434.251C379.316 436.022 384.021 434.794 388.537 431.508C393.053 428.222 395.669 424.122 394.38 422.351Z" stroke="black" stroke-width="2.88776" stroke-miterlimit="2.61313" stroke-linecap="round" stroke-linejoin="round"/>
<path d="M252.775 177.878L154.284 227.28" stroke="black" stroke-width="1.88977" stroke-miterlimit="2.61313" stroke-linecap="round" stroke-linejoin="round"/>
<path d="M182.547 291.572C194.399 280.312 196.126 261.834 191.272 238.668L203.666 232.873C199.389 222.515 196.814 206.905 209.449 199.61" stroke="black" stroke-width="1.88977" stroke-miterlimit="2.61313" stroke-linecap="round" stroke-linejoin="round"/>
<path d="M249.202 319.283L229.998 297.701L230.035 259.405C247.342 251.45 264.108 247.936 279.764 253.526L279.801 256.343C264.528 254.136 252.777 256.159 244.66 263.146L244.586 285.153C252.777 291.573 262.739 293.469 277.545 290.774" stroke="black" stroke-width="1.88977" stroke-miterlimit="2.61313" stroke-linecap="round" stroke-linejoin="round"/>
<path d="M279.635 264.392L255.878 265.96L266.391 278.603H278.842" stroke="black" stroke-width="1.88977" stroke-miterlimit="2.61313" stroke-linecap="round" stroke-linejoin="round"/>
<path d="M552.763 155.602L559.667 133.218L581.211 146.074L573.817 170.046L552.273 157.19L552.764 155.602H552.763ZM562.127 139.619L557.303 155.258L571.356 163.644L576.18 148.005L562.127 139.619Z" stroke="black" stroke-width="1.88977" stroke-miterlimit="2.61313" stroke-linecap="round" stroke-linejoin="round"/>
<path d="M576.016 89.0768L596.17 81.1008L597.734 85.0526L577.58 93.0286L576.017 89.0768H576.016ZM578.674 95.7943L598.828 87.8184L600.392 91.7702L580.238 99.7461L578.674 95.7943V95.7943ZM581.333 102.512L601.487 94.5359L603.051 98.4877L582.896 106.464L581.332 102.512H581.333Z" stroke="black" stroke-width="1.88977" stroke-miterlimit="2.61313" stroke-linecap="round" stroke-linejoin="round"/>
<path d="M619.62 202.929L623.531 201.961L621.803 194.976L625.92 193.963L627.647 200.942L631.455 200L629.725 193.016L633.842 192.003L635.569 198.982L637.299 198.554C639.304 198.059 641.329 198.426 642.971 199.416C644.613 200.407 645.886 202.029 646.382 204.037C646.878 206.043 646.51 208.067 645.52 209.709L645.46 209.806L645.557 209.864C647.199 210.855 648.471 212.477 648.967 214.486C649.463 216.492 649.096 218.515 648.105 220.158C647.114 221.801 645.492 223.072 643.484 223.568L641.759 223.994L643.488 230.979L639.37 231.992L637.644 225.012L633.836 225.955L635.565 232.939L631.448 233.952L629.721 226.973L625.804 227.942L624.792 223.825L642.472 219.45C643.336 219.237 644.038 218.683 644.47 217.966C644.904 217.248 645.066 216.366 644.852 215.498C644.639 214.635 644.085 213.932 643.367 213.499C642.648 213.066 641.767 212.905 640.9 213.119L623.22 217.494L622.208 213.377L639.887 209.002C640.75 208.788 641.453 208.235 641.886 207.517C642.319 206.799 642.482 205.917 642.267 205.05C642.054 204.186 641.5 203.484 640.782 203.052C640.064 202.619 639.182 202.456 638.315 202.67L620.635 207.046L619.622 202.929H619.62Z" stroke="black" stroke-width="1.88977" stroke-miterlimit="2.61313" stroke-linecap="round" stroke-linejoin="round"/>
<path d="M693.336 140.423L693.345 140.432C696.398 143.49 697.926 147.491 697.926 151.485C697.926 155.488 696.398 159.492 693.345 162.546L682.284 173.607L671.223 162.546C668.169 159.483 666.641 155.482 666.641 151.485C666.641 147.481 668.169 143.476 671.223 140.423C674.276 137.37 678.28 135.842 682.284 135.842C686.278 135.842 690.279 137.37 693.336 140.423V140.423ZM693.676 151.485C693.676 148.564 692.567 145.647 690.348 143.429L690.339 143.42C688.12 141.2 685.204 140.092 682.283 140.092C679.368 140.092 676.452 141.204 674.227 143.429C672.003 145.653 670.89 148.57 670.89 151.485C670.89 154.403 672.002 157.321 674.223 159.544L682.282 167.596L690.338 159.54C692.562 157.316 693.675 154.399 693.675 151.484L693.676 151.485Z" stroke="black" stroke-width="1.88977" stroke-miterlimit="2.61313" stroke-linecap="round" stroke-linejoin="round"/>
<path d="M682.284 151.909C682.518 151.909 682.708 151.719 682.708 151.485C682.708 151.25 682.518 151.06 682.284 151.06C682.049 151.06 681.859 151.25 681.859 151.485C681.859 151.719 682.049 151.909 682.284 151.909Z" stroke="black" stroke-width="1.88977" stroke-miterlimit="2.61313" stroke-linecap="round" stroke-linejoin="round"/>
<path d="M682.283 148.297C683.16 148.297 683.953 148.653 684.527 149.22L684.547 149.241C685.115 149.815 685.471 150.609 685.471 151.485C685.471 152.364 685.111 153.164 684.538 153.738C683.961 154.315 683.163 154.672 682.284 154.672C681.414 154.672 680.618 154.319 680.041 153.747L680.021 153.728C679.448 153.15 679.097 152.355 679.097 151.485C679.097 150.604 679.454 149.807 680.03 149.231C680.604 148.657 681.404 148.298 682.284 148.298L682.283 148.297Z" stroke="black" stroke-width="1.88977" stroke-miterlimit="2.61313" stroke-linecap="round" stroke-linejoin="round"/>
<path d="M654.503 278.729C658.611 278.729 662.331 280.394 665.021 283.084C667.711 285.774 669.377 289.494 669.377 293.602C669.377 297.704 667.711 301.42 665.021 304.112C662.331 306.811 658.611 308.477 654.503 308.477C650.402 308.477 646.685 306.811 643.993 304.12L643.985 304.111C641.295 301.42 639.628 297.704 639.628 293.601C639.628 289.494 641.294 285.773 643.985 283.084C646.685 280.394 650.401 278.728 654.502 278.728L654.503 278.729ZM662.016 286.09C660.094 284.168 657.437 282.978 654.503 282.978C651.567 282.978 648.909 284.166 646.986 286.085C645.069 288.011 643.879 290.668 643.879 293.602C643.879 296.538 645.067 299.197 646.986 301.119C648.909 303.038 651.567 304.227 654.503 304.227C657.437 304.227 660.094 303.036 662.016 301.115C663.939 299.197 665.128 296.538 665.128 293.602C665.128 290.668 663.938 288.011 662.016 286.09Z" stroke="black" stroke-width="1.88977" stroke-miterlimit="2.61313" stroke-linecap="round" stroke-linejoin="round"/>
<path d="M654.503 296.79C656.263 296.79 657.69 295.363 657.69 293.603C657.69 291.843 656.263 290.416 654.503 290.416C652.743 290.416 651.316 291.843 651.316 293.603C651.316 295.363 652.743 296.79 654.503 296.79Z" stroke="black" stroke-width="1.88977" stroke-miterlimit="2.61313" stroke-linecap="round" stroke-linejoin="round"/>
<path d="M0.944824 148.603C97.8621 137.161 187.257 103.96 247.769 24.4724M301.572 89.1138L328.04 120.913L343.784 14.3905L228.184 0.944214L247.768 24.4724M5.18172 169.936C101.058 168.059 199.672 151.56 301.571 89.1129" stroke="#A1D283" stroke-width="1.88977" stroke-miterlimit="2.61313" stroke-linecap="round" stroke-linejoin="round"/>
</g>
<defs>
<clipPath id="clip0_339_1607">
<rect width="698.871" height="773.403" fill="white"/>
</clipPath>
</defs>
</svg>
