<svg width="770" height="688" viewBox="0 0 770 688" fill="none" xmlns="http://www.w3.org/2000/svg">
<g clip-path="url(#clip0_339_1594)">
<path fill-rule="evenodd" clip-rule="evenodd" d="M451.681 459.683L518.555 343.854L451.681 228.024H317.876L251.002 343.854L317.876 459.683H451.681Z" fill="#1A1A1A" stroke="black" stroke-width="1.88982" stroke-miterlimit="2.61313"/>
<path d="M63.0993 298.66L44.3797 343.854L63.0993 389.048L108.293 407.768L153.487 389.048L172.207 343.854L153.487 298.66L108.293 279.941L63.0993 298.66ZM465.244 229.595L522.983 329.605C526.194 335.167 531.708 338.349 538.13 338.349H587.754L607.671 290.262L659.177 268.928H663.35L714.855 290.262L715.73 292.375L736.188 341.768V345.94L714.855 397.446L663.35 418.779H659.177L607.671 397.446L587.754 349.358H538.129C531.708 349.358 526.195 352.54 522.984 358.101C503.734 391.435 484.483 424.772 465.243 458.112C462.434 462.978 462.082 468.356 464.233 473.547L480.419 512.624L500.06 504.489H504.233L555.738 525.822L577.072 577.329V581.501L555.738 633.006L504.233 654.341H500.06L448.555 633.006L427.221 581.501V577.329L448.555 525.822L470.282 516.824L455.646 481.488C452.881 474.814 446.712 470.693 439.488 470.693H330.071C322.847 470.693 316.678 474.814 313.915 481.488L299.278 516.823L321.006 525.822L342.34 577.329V581.501L321.006 633.006L269.5 654.341H265.328L213.822 633.006L212.947 630.894L192.488 581.501V577.329L213.822 525.822L265.328 504.489H269.5L289.142 512.624L305.327 473.549C307.477 468.357 307.125 462.977 304.314 458.111C285.066 424.777 265.815 391.443 246.573 358.105C243.362 352.542 237.849 349.359 231.426 349.359H181.805L161.888 397.447L110.381 418.78H106.209L54.7036 397.447L33.3691 345.941V341.769L54.7036 290.263L106.209 268.929H110.381L161.888 290.263L181.805 338.35H231.425C237.848 338.35 243.362 335.167 246.572 329.604C265.812 296.265 285.064 262.932 304.313 229.598C307.124 224.732 307.476 219.352 305.326 214.161L289.141 175.086L269.499 183.222H265.327L213.821 161.887L192.487 110.382V106.209L213.821 54.7031L265.327 33.3696H269.499L321.005 54.7031L342.339 106.209V110.382L321.005 161.887L299.277 170.887L313.914 206.221C316.678 212.896 322.846 217.018 330.07 217.018H439.487C446.711 217.018 452.881 212.896 455.645 206.222L470.281 170.887L448.554 161.887L427.22 110.382V106.209L448.554 54.7031L500.059 33.3696H504.232L555.737 54.7031L556.612 56.8167L577.071 106.209V110.382L555.737 161.887L504.232 183.222H500.059L480.418 175.086L464.233 214.161C462.083 219.353 462.435 224.732 465.245 229.597L465.244 229.595ZM725.177 343.854L706.457 298.66L661.263 279.941L616.069 298.66L597.35 343.854L616.069 389.048L661.263 407.768L706.457 389.048L725.177 343.854ZM203.498 579.414L222.218 624.609L267.411 643.328L312.606 624.609L331.326 579.414L312.606 534.221L267.411 515.501L222.218 534.221L203.498 579.414ZM547.339 624.609L566.058 579.414L547.339 534.221L502.144 515.501L456.951 534.221L438.231 579.414L456.951 624.609L502.144 643.328L547.339 624.609ZM222.218 63.0998L203.498 108.294L222.218 153.489L267.411 172.208L312.606 153.489L331.326 108.294L312.606 63.0998L267.411 44.3802L222.218 63.0998ZM566.058 108.294L547.339 63.0998L502.144 44.3802L456.951 63.0998L438.231 108.294L456.951 153.489L502.144 172.208L547.339 153.489L566.058 108.294ZM518.554 343.855L451.681 228.025H317.876L251.001 343.855L317.876 459.684H451.681L518.554 343.855Z" fill="#008753" stroke="black" stroke-width="1.88982" stroke-miterlimit="2.61313"/>
<path fill-rule="evenodd" clip-rule="evenodd" d="M514.828 488.906C508.516 486.291 504.505 480.686 504.068 473.868C504.003 472.862 503.167 472.066 502.146 472.066C501.124 472.066 500.287 472.862 500.223 473.868C499.786 480.686 495.775 486.292 489.464 488.906L447.115 506.448C440.803 509.063 434.002 507.934 428.871 503.422C428.116 502.758 426.961 502.785 426.239 503.508C425.517 504.23 425.488 505.384 426.154 506.141C430.666 511.271 431.794 518.073 429.18 524.385L411.637 566.733C409.022 573.045 403.416 577.056 396.599 577.493C395.594 577.557 394.799 578.394 394.799 579.414C394.799 580.436 395.595 581.273 396.599 581.338C403.417 581.775 409.022 585.786 411.637 592.097L429.18 634.445C431.794 640.758 430.666 647.558 426.154 652.688C425.489 653.445 425.517 654.598 426.239 655.32C426.961 656.043 428.116 656.071 428.871 655.406C434.002 650.894 440.803 649.765 447.116 652.379L489.464 669.922C495.776 672.536 499.786 678.143 500.223 684.96C500.287 685.966 501.124 686.761 502.146 686.761C503.167 686.761 504.004 685.965 504.068 684.96C504.505 678.142 508.517 672.536 514.828 669.922L557.175 652.379C563.488 649.765 570.288 650.893 575.419 655.406C576.176 656.07 577.329 656.043 578.051 655.32C578.773 654.598 578.801 653.444 578.138 652.688C573.625 647.558 572.497 640.757 575.112 634.445L592.654 592.097C595.269 585.787 600.874 581.776 607.692 581.338C608.697 581.273 609.492 580.436 609.492 579.414C609.492 578.394 608.696 577.556 607.692 577.493C600.874 577.056 595.269 573.044 592.654 566.733L575.112 524.384C572.498 518.073 573.625 511.271 578.138 506.141C578.801 505.384 578.773 504.231 578.051 503.508C577.329 502.785 576.176 502.758 575.419 503.422C570.288 507.934 563.488 509.063 557.177 506.448L514.828 488.906ZM504.071 488.607L564.994 513.842L534.23 544.606L504.071 532.115V488.608V488.607ZM504.071 536.27L531.291 547.545L518.999 559.837C516.445 562.392 512.807 563.115 509.469 561.733C506.132 560.35 504.071 557.266 504.071 553.653V536.27ZM502.145 564.638C510.306 564.638 516.922 571.254 516.922 579.414C516.922 587.576 510.306 594.192 502.145 594.192C493.984 594.192 487.367 587.576 487.367 579.414C487.367 571.254 493.984 564.638 502.145 564.638ZM439.296 513.842L500.218 488.607V532.114L470.059 544.605L439.295 513.841L439.296 513.842ZM549.445 577.488L536.953 547.331L567.718 516.565L592.953 577.488H549.445H549.445ZM521.722 562.562L534.015 550.269L545.289 577.489H527.906C524.294 577.489 521.209 575.428 519.827 572.091C518.444 568.754 519.168 565.116 521.721 562.562L521.722 562.562ZM527.906 581.342H545.289L534.015 608.561L521.723 596.268C519.168 593.714 518.445 590.076 519.828 586.738C521.21 583.401 524.294 581.341 527.906 581.341L527.906 581.342ZM536.953 611.5L549.445 581.342H592.952L567.717 642.264L536.952 611.499L536.953 611.5ZM518.999 598.993L531.291 611.285L504.071 622.559V605.176C504.071 601.563 506.133 598.479 509.469 597.097C512.807 595.714 516.445 596.437 518.999 598.992V598.993ZM473 547.546L500.219 536.271V553.654C500.219 557.267 498.158 560.351 494.821 561.733C491.483 563.115 487.846 562.392 485.291 559.837L472.999 547.546H473ZM485.292 598.994C487.847 596.439 491.484 595.715 494.822 597.098C498.159 598.48 500.22 601.564 500.22 605.177V622.56L473.001 611.286L485.293 598.994L485.292 598.994ZM470.276 550.269L482.569 562.562C485.122 565.115 485.846 568.754 484.464 572.09C483.082 575.427 479.998 577.488 476.385 577.488H459.002L470.276 550.268L470.276 550.269ZM459.003 581.342H476.386C479.998 581.342 483.083 583.402 484.465 586.739C485.847 590.077 485.123 593.715 482.569 596.269L470.277 608.562L459.004 581.343L459.003 581.342ZM454.847 581.342L467.339 611.5L436.575 642.265L411.34 581.343H454.847V581.342ZM504.073 626.716L534.232 614.223L564.996 644.988L504.073 670.223V626.716ZM470.062 614.223L500.221 626.716V670.223L439.299 644.988L470.063 614.223H470.062ZM436.575 516.566L467.339 547.332L454.847 577.489H411.34L436.575 516.566ZM340.381 524.385C337.767 518.073 338.894 511.271 343.408 506.141C344.072 505.384 344.044 504.231 343.322 503.508C342.6 502.785 341.446 502.758 340.69 503.422C335.56 507.934 328.759 509.063 322.447 506.448L280.098 488.906C273.787 486.291 269.776 480.686 269.339 473.868C269.273 472.862 268.437 472.066 267.415 472.066C266.394 472.066 265.557 472.862 265.494 473.868C265.057 480.686 261.045 486.292 254.734 488.906L212.385 506.448C206.074 509.063 199.272 507.934 194.142 503.422C193.386 502.758 192.231 502.785 191.509 503.508C190.788 504.23 190.758 505.386 191.424 506.141C195.936 511.271 197.064 518.073 194.45 524.385L176.907 566.733C174.292 573.045 168.687 577.056 161.869 577.493C160.864 577.557 160.068 578.394 160.068 579.414C160.068 580.436 160.864 581.273 161.869 581.338C168.687 581.775 174.293 585.787 176.907 592.097L194.45 634.445C197.064 640.758 195.936 647.558 191.424 652.688C190.758 653.445 190.788 654.599 191.509 655.321C192.231 656.043 193.386 656.072 194.142 655.407C199.272 650.894 206.074 649.766 212.387 652.38L254.734 669.923C261.046 672.537 265.057 678.144 265.494 684.961C265.558 685.967 266.394 686.762 267.415 686.762C268.437 686.762 269.273 685.966 269.339 684.961C269.776 678.143 273.788 672.537 280.098 669.923L322.446 652.38C328.759 649.766 335.559 650.894 340.689 655.407C341.446 656.071 342.599 656.043 343.321 655.321C344.043 654.599 344.072 653.445 343.407 652.689C338.894 647.56 337.766 640.758 340.38 634.446L357.923 592.098C360.538 585.788 366.144 581.777 372.96 581.339C373.967 581.274 374.763 580.437 374.763 579.415C374.763 578.395 373.967 577.557 372.96 577.494C366.143 577.057 360.536 573.045 357.923 566.734L340.38 524.386L340.381 524.385ZM332.988 516.566L358.222 577.489H314.715L302.222 547.332L332.987 516.566H332.988ZM267.415 564.639C275.577 564.639 282.193 571.255 282.193 579.415C282.193 587.577 275.577 594.193 267.415 594.193C259.254 594.193 252.639 587.577 252.639 579.415C252.639 571.255 259.255 564.639 267.415 564.639ZM330.264 513.843L299.5 544.607L269.342 532.116V488.609L330.263 513.844L330.264 513.843ZM265.489 488.608V532.115L235.331 544.606L204.566 513.842L265.489 488.607V488.608ZM302.223 611.499L314.716 581.341H358.223L332.989 642.263L302.224 611.498L302.223 611.499ZM299.285 550.268L310.559 577.488H293.176C289.563 577.488 286.479 575.427 285.097 572.09C283.714 568.753 284.437 565.115 286.991 562.562L299.284 550.269L299.285 550.268ZM293.176 581.341H310.559L299.285 608.56L286.993 596.267C284.439 593.713 283.715 590.075 285.098 586.737C286.48 583.401 289.564 581.34 293.177 581.34L293.176 581.341ZM284.269 598.993L296.561 611.284L269.342 622.558V605.175C269.342 601.562 271.402 598.478 274.739 597.096C278.077 595.713 281.715 596.437 284.27 598.992L284.269 598.993ZM265.488 605.175V622.558L238.268 611.284L250.56 598.992C253.114 596.438 256.753 595.714 260.09 597.097C263.427 598.479 265.488 601.563 265.488 605.176V605.175ZM235.331 614.222L265.488 626.714V670.221L204.565 644.986L235.331 614.222ZM269.342 536.269L296.561 547.544L284.269 559.835C281.714 562.391 278.076 563.114 274.738 561.731C271.401 560.349 269.341 557.265 269.341 553.652V536.269H269.342ZM241.654 581.34C245.266 581.34 248.351 583.401 249.733 586.737C251.116 590.075 250.391 593.713 247.838 596.267L235.546 608.56L224.271 581.341H241.655L241.654 581.34ZM265.488 536.269V553.652C265.488 557.265 263.427 560.349 260.09 561.732C256.753 563.114 253.115 562.391 250.56 559.836L238.268 547.544L265.488 536.269ZM235.545 550.267L247.837 562.56C250.391 565.113 251.115 568.753 249.733 572.089C248.35 575.425 245.266 577.486 241.654 577.486H224.27L235.545 550.266V550.267ZM299.499 614.222L330.263 644.986L269.342 670.221V626.714L299.5 614.222H299.499ZM220.115 581.34L232.606 611.498L201.842 642.263L176.607 581.341H220.114L220.115 581.34ZM201.843 516.564L232.607 547.33L220.116 577.487H176.609L201.844 516.564H201.843ZM213.843 341.931C207.025 341.494 201.419 337.482 198.805 331.172L181.263 288.822C178.649 282.51 179.777 275.71 184.289 270.579C184.953 269.822 184.925 268.669 184.203 267.947C183.48 267.225 182.327 267.197 181.57 267.861C176.44 272.373 169.638 273.502 163.327 270.887L120.978 253.344C114.666 250.73 110.656 245.124 110.218 238.306C110.154 237.301 109.317 236.505 108.297 236.505C107.275 236.505 106.437 237.301 106.374 238.306C105.936 245.124 101.925 250.73 95.6142 253.344L53.265 270.887C46.9532 273.502 40.1515 272.374 35.0217 267.861C34.265 267.197 33.1117 267.225 32.3896 267.947C31.6675 268.669 31.6387 269.822 32.3032 270.579C36.8165 275.71 37.9448 282.51 35.329 288.823L17.7867 331.172C15.1719 337.483 9.56576 341.494 2.74876 341.931C1.74335 341.996 0.948242 342.832 0.948242 343.853C0.948242 344.875 1.74431 345.712 2.74876 345.776C9.56672 346.213 15.1719 350.224 17.7867 356.535L35.329 398.883C37.9438 405.196 36.8155 411.997 32.3032 417.127C31.6396 417.883 31.6675 419.037 32.3896 419.759C33.1117 420.481 34.265 420.51 35.0217 419.844C40.1525 415.332 46.9532 414.203 53.266 416.818L95.6142 434.361C101.926 436.975 105.936 442.582 106.374 449.399C106.438 450.404 107.275 451.199 108.297 451.199C109.317 451.199 110.155 450.403 110.218 449.399C110.656 442.581 114.667 436.975 120.978 434.361L163.326 416.818C169.638 414.203 176.44 415.331 181.57 419.844C182.327 420.509 183.479 420.481 184.203 419.759C184.925 419.037 184.953 417.883 184.289 417.127C179.777 411.997 178.649 405.195 181.263 398.883L198.805 356.534C201.42 350.224 207.025 346.213 213.843 345.775C214.849 345.711 215.644 344.874 215.644 343.852C215.644 342.831 214.848 341.994 213.843 341.93V341.931ZM173.868 281.005L199.103 341.928H155.596L143.105 311.769L173.869 281.005H173.868ZM140.165 314.708L151.44 341.928H134.057C130.443 341.928 127.36 339.867 125.978 336.53C124.595 333.193 125.319 329.554 127.873 327.001L140.165 314.709V314.708ZM108.296 329.076C116.456 329.076 123.072 335.692 123.072 343.853C123.072 352.014 116.456 358.631 108.296 358.631C100.134 358.631 93.5179 352.014 93.5179 343.853C93.5179 335.692 100.134 329.076 108.296 329.076ZM137.442 311.983L125.149 324.276C122.595 326.83 118.958 327.553 115.621 326.171C112.284 324.789 110.223 321.704 110.223 318.092V300.709L137.443 311.983H137.442ZM106.369 300.709V318.092C106.369 321.704 104.309 324.789 100.972 326.171C97.6336 327.553 93.9961 326.83 91.4418 324.276L79.1493 311.983L106.369 300.709ZM106.369 296.554L76.2108 309.045L45.4465 278.28L106.369 253.045V296.553V296.554ZM155.596 345.78H199.103L173.868 406.702L143.104 375.938L155.595 345.779L155.596 345.78ZM110.223 391.153L140.38 378.661L171.146 409.426L110.223 434.661V391.154V391.153ZM151.441 345.78L140.166 372.999L127.875 360.707C125.319 358.152 124.596 354.516 125.979 351.177C127.361 347.84 130.445 345.779 134.058 345.779H151.441V345.78ZM125.15 363.431L137.443 375.724L110.223 386.997V369.614C110.223 366.002 112.284 362.917 115.621 361.535C118.958 360.153 122.595 360.876 125.149 363.43L125.15 363.431ZM106.37 369.615V386.998L79.1502 375.724L91.4427 363.432C93.9971 360.879 97.6346 360.155 100.973 361.537C104.309 362.919 106.37 366.004 106.37 369.616V369.615ZM76.2118 378.662L106.37 391.154V434.661L45.4474 409.426L76.2118 378.661V378.662ZM90.614 351.179C91.9968 354.517 91.2728 358.154 88.7184 360.709L76.4269 373.001L65.1533 345.782H82.5362C86.1487 345.782 89.2331 347.843 90.615 351.18L90.614 351.179ZM88.7194 327.001C91.2728 329.554 91.9968 333.194 90.614 336.53C89.2322 339.867 86.1487 341.928 82.5352 341.928H65.1523L76.4259 314.708L88.7184 327L88.7194 327.001ZM171.146 278.281L140.38 309.046L110.223 296.555V253.047L171.146 278.282V278.281ZM60.9962 345.781L73.4885 375.94L42.7241 406.704L17.489 345.782H60.9962V345.781ZM73.4885 311.77L60.9962 341.929H17.489L42.7241 281.006L73.4885 311.77ZM254.733 198.802C261.045 201.416 265.056 207.023 265.493 213.841C265.557 214.846 266.394 215.642 267.414 215.642C268.436 215.642 269.272 214.846 269.338 213.841C269.775 207.023 273.787 201.417 280.097 198.802L322.445 181.26C328.758 178.645 335.558 179.773 340.688 184.286C341.445 184.951 342.598 184.922 343.32 184.2C344.042 183.478 344.071 182.324 343.406 181.568C338.893 176.438 337.765 169.637 340.379 163.325L357.922 120.977C360.537 114.667 366.143 110.655 372.959 110.218C373.966 110.152 374.762 109.316 374.762 108.294C374.762 107.274 373.966 106.436 372.959 106.373C366.142 105.936 360.535 101.924 357.922 95.6129L340.379 53.2647C337.765 46.9519 338.892 40.1512 343.406 35.0204C344.07 34.2637 344.042 33.1104 343.32 32.3883C342.598 31.6662 341.444 31.6383 340.688 32.3019C335.558 36.8142 328.757 37.9426 322.445 35.3287L280.096 17.7854C273.785 15.1715 269.774 9.56543 269.337 2.74747C269.271 1.74207 268.435 0.945996 267.413 0.945996C266.392 0.945996 265.555 1.74207 265.492 2.74747C265.055 9.56543 261.043 15.1715 254.732 17.7854L212.385 35.3287C206.072 37.9426 199.27 36.8152 194.14 32.3019C193.386 31.6374 192.229 31.6662 191.507 32.3883C190.786 33.1104 190.758 34.2637 191.422 35.0204C195.934 40.1512 197.063 46.9519 194.448 53.2638L176.905 95.6129C174.291 101.925 168.685 105.936 161.867 106.373C160.862 106.436 160.066 107.274 160.066 108.294C160.066 109.316 160.862 110.152 161.867 110.218C168.685 110.655 174.292 114.667 176.905 120.977L194.448 163.325C197.063 169.638 195.934 176.438 191.422 181.567C190.756 182.324 190.786 183.478 191.507 184.201C192.229 184.923 193.384 184.952 194.14 184.287C199.27 179.774 206.072 178.646 212.385 181.261L254.732 198.803L254.733 198.802ZM269.342 199.101V155.594L299.5 143.101L330.264 173.866L269.343 199.101H269.342ZM296.561 140.163L269.342 151.437V134.054C269.342 130.441 271.402 127.357 274.739 125.975C278.077 124.592 281.715 125.316 284.27 127.87L296.562 140.162L296.561 140.163ZM282.192 108.293C282.192 116.455 275.576 123.071 267.414 123.071C259.253 123.071 252.638 116.455 252.638 108.293C252.638 100.133 259.254 93.5166 267.414 93.5166C275.576 93.5166 282.192 100.133 282.192 108.293ZM265.488 199.101L204.565 173.866L235.331 143.101L265.488 155.594V199.101ZM265.488 151.438L238.268 140.164L250.56 127.871C253.114 125.318 256.753 124.594 260.09 125.977C263.427 127.359 265.488 130.443 265.488 134.056V151.439V151.438ZM247.837 125.148L235.545 137.44L224.27 110.221H241.654C245.266 110.221 248.351 112.281 249.733 115.618C251.116 118.956 250.391 122.594 247.838 125.148H247.837ZM241.654 106.367H224.27L235.545 79.147L247.837 91.4395C250.391 93.9929 251.115 97.6314 249.733 100.968C248.35 104.305 245.266 106.366 241.654 106.366V106.367ZM232.606 76.2086L220.115 106.367H176.608L201.843 45.4442L232.607 76.2086H232.606ZM250.56 88.7162L238.268 76.4237L265.488 65.1491V82.532C265.488 86.1436 263.427 89.229 260.09 90.6118C256.753 91.9936 253.115 91.2705 250.56 88.7162ZM284.268 88.7162C281.713 91.2705 278.075 91.9936 274.737 90.6108C271.4 89.229 269.34 86.1446 269.34 82.532V65.1491L296.559 76.4237L284.267 88.7162H284.268ZM299.283 137.44L286.991 125.148C284.437 122.593 283.713 118.956 285.096 115.618C286.478 112.281 289.562 110.221 293.175 110.221H310.558L299.284 137.44H299.283ZM310.557 106.367H293.174C289.561 106.367 286.477 104.306 285.095 100.969C283.712 97.6324 284.435 93.9939 286.99 91.4405L299.282 79.148L310.556 106.368L310.557 106.367ZM314.713 106.367L302.22 76.2086L332.985 45.4442L358.219 106.367H314.712H314.713ZM265.486 60.993L235.329 73.4843L204.563 42.7199L265.486 17.4848V60.9921V60.993ZM299.497 73.4843L269.339 60.993V17.4858L330.261 42.7209L299.496 73.4853L299.497 73.4843ZM332.985 171.141L302.22 140.377L314.713 110.22H358.22L332.986 171.141H332.985ZM232.604 140.377L201.84 171.141L176.605 110.22H220.112L232.603 140.377H232.604ZM429.179 163.323C431.793 169.636 430.665 176.436 426.153 181.566C425.488 182.323 425.516 183.476 426.238 184.198C426.96 184.921 428.115 184.949 428.87 184.284C434.001 179.771 440.802 178.643 447.115 181.258L489.463 198.8C495.775 201.415 499.785 207.021 500.222 213.839C500.286 214.844 501.123 215.64 502.145 215.64C503.166 215.64 504.003 214.844 504.067 213.839C504.505 207.021 508.516 201.415 514.827 198.8L557.174 181.258C563.487 178.643 570.287 179.771 575.418 184.284C576.175 184.949 577.328 184.921 578.05 184.198C578.772 183.476 578.8 182.322 578.137 181.566C573.624 176.436 572.496 169.635 575.111 163.323L592.653 120.974C595.268 114.663 600.873 110.652 607.691 110.215C608.696 110.15 609.492 109.313 609.492 108.291C609.492 107.271 608.695 106.433 607.691 106.37C600.873 105.933 595.268 101.921 592.653 95.61L575.111 53.2609C572.497 46.949 573.624 40.1483 578.137 35.0176C578.8 34.2609 578.772 33.1076 578.05 32.3854C577.328 31.6633 576.175 31.6355 575.418 32.299C570.287 36.8113 563.487 37.9397 557.176 35.3258L514.827 17.7825C508.515 15.1686 504.505 9.56255 504.067 2.74459C504.002 1.73918 503.166 0.943115 502.145 0.943115C501.123 0.943115 500.286 1.73918 500.222 2.74459C499.785 9.56255 495.774 15.1686 489.463 17.7825L447.114 35.3258C440.802 37.9397 434.001 36.8123 428.87 32.299C428.115 31.6355 426.96 31.6633 426.238 32.3854C425.516 33.1076 425.487 34.2609 426.153 35.0176C430.665 40.1483 431.793 46.949 429.179 53.2618L411.636 95.61C409.021 101.922 403.415 105.933 396.598 106.37C395.593 106.433 394.798 107.271 394.798 108.291C394.798 109.313 395.594 110.15 396.598 110.215C403.416 110.652 409.021 114.663 411.636 120.974L429.179 163.322V163.323ZM436.573 171.141L411.338 110.22H454.845L467.337 140.377L436.573 171.141ZM470.276 137.439L459.002 110.22H476.385C479.997 110.22 483.082 112.28 484.464 115.617C485.846 118.955 485.122 122.593 482.568 125.147L470.276 137.439H470.276ZM502.145 123.07C493.984 123.07 487.367 116.454 487.367 108.292C487.367 100.132 493.984 93.5157 502.145 93.5157C510.306 93.5157 516.922 100.132 516.922 108.292C516.922 116.454 510.306 123.07 502.145 123.07ZM454.845 106.366H411.338L436.573 45.4433L467.337 76.2076L454.845 106.366ZM476.384 106.366H459.001L470.275 79.1461L482.567 91.4386C485.12 93.992 485.844 97.6304 484.462 100.967C483.08 104.304 479.996 106.365 476.383 106.365L476.384 106.366ZM485.291 88.7152L472.999 76.4227L500.218 65.1481V82.5311C500.218 86.1427 498.157 89.228 494.82 90.6099C491.482 91.9927 487.845 91.2696 485.29 88.7152H485.291ZM504.071 82.532V65.1491L531.291 76.4237L518.999 88.7162C516.445 91.2705 512.807 91.9936 509.469 90.6118C506.132 89.229 504.071 86.1436 504.071 82.532ZM534.23 73.4843L504.071 60.993V17.4858L564.994 42.7209L534.23 73.4853V73.4843ZM439.297 173.865L470.061 143.1L500.22 155.593V199.1L439.298 173.865H439.297ZM500.219 151.437L473 140.163L485.292 127.871C487.847 125.317 491.484 124.593 494.822 125.976C498.159 127.358 500.22 130.442 500.22 134.055V151.438L500.219 151.437ZM527.906 106.366C524.295 106.366 521.21 104.305 519.828 100.968C518.445 97.6314 519.169 93.9929 521.722 91.4395L534.015 79.147L545.289 106.367H527.906L527.906 106.366ZM504.072 151.437V134.054C504.072 130.441 506.134 127.357 509.47 125.975C512.808 124.592 516.446 125.316 519 127.87L531.292 140.162L504.072 151.436V151.437ZM534.016 137.439L521.724 125.147C519.169 122.592 518.446 118.955 519.829 115.617C521.21 112.28 524.295 110.22 527.907 110.22H545.291L534.017 137.439H534.016ZM504.072 199.1V155.593L534.231 143.1L564.995 173.865L504.072 199.1ZM470.061 73.4843L439.297 42.7199L500.219 17.4848V60.9921L470.06 73.4833L470.061 73.4843ZM549.445 106.366L536.954 76.2076L567.719 45.4433L592.954 106.366H549.446H549.445ZM567.718 171.141L536.953 140.377L549.445 110.22H592.952L567.717 171.141H567.718ZM570.755 331.171C568.141 337.482 562.535 341.493 555.717 341.93C554.712 341.995 553.916 342.831 553.916 343.852C553.916 344.874 554.712 345.711 555.717 345.775C562.535 346.212 568.141 350.224 570.755 356.534L588.298 398.883C590.913 405.195 589.785 411.997 585.272 417.127C584.608 417.883 584.636 419.037 585.358 419.759C586.08 420.481 587.233 420.51 587.99 419.844C593.121 415.332 599.921 414.203 606.234 416.818L648.582 434.361C654.894 436.975 658.905 442.582 659.342 449.399C659.407 450.404 660.243 451.199 661.264 451.199C662.286 451.199 663.123 450.403 663.187 449.399C663.624 442.581 667.636 436.975 673.946 434.361L716.294 416.818C722.607 414.203 729.408 415.331 734.538 419.844C735.294 420.509 736.448 420.481 737.17 419.759C737.892 419.037 737.921 417.883 737.255 417.127C732.743 411.997 731.615 405.195 734.229 398.883L751.772 356.535C754.386 350.224 759.993 346.214 766.81 345.776C767.815 345.712 768.61 344.875 768.61 343.853C768.61 342.832 767.814 341.995 766.81 341.931C759.992 341.494 754.386 337.482 751.772 331.172L734.229 288.823C731.615 282.51 732.742 275.71 737.255 270.579C737.92 269.822 737.892 268.669 737.17 267.947C736.448 267.225 735.293 267.197 734.538 267.861C729.408 272.373 722.606 273.502 716.294 270.887L673.946 253.344C667.636 250.73 663.625 245.124 663.187 238.306C663.123 237.301 662.286 236.505 661.264 236.505C660.243 236.505 659.406 237.301 659.342 238.306C658.905 245.124 654.893 250.73 648.582 253.344L606.233 270.887C599.921 273.502 593.121 272.374 587.99 267.861C587.233 267.197 586.08 267.225 585.358 267.947C584.636 268.669 584.608 269.822 585.272 270.579C589.785 275.71 590.913 282.51 588.298 288.822L570.755 331.172V331.171ZM570.456 341.927L595.691 281.004L626.456 311.768L613.965 341.927H570.457H570.456ZM618.12 341.927L629.394 314.707L641.687 326.999C644.241 329.552 644.964 333.192 643.582 336.528C642.199 339.865 639.115 341.926 635.503 341.926H618.12V341.927ZM646.486 343.853C646.486 335.692 653.102 329.076 661.263 329.076C669.424 329.076 676.041 335.692 676.041 343.853C676.041 352.014 669.424 358.631 661.263 358.631C653.102 358.631 646.486 352.014 646.486 343.853ZM659.337 296.554L629.179 309.045L598.414 278.28L659.337 253.045V296.553V296.554ZM644.41 324.276L632.118 311.983L659.338 300.709V318.092C659.338 321.704 657.277 324.789 653.94 326.171C650.603 327.553 646.964 326.83 644.411 324.276H644.41ZM663.19 318.093V300.71L690.409 311.984L678.117 324.277C675.562 326.831 671.926 327.554 668.587 326.171C665.25 324.789 663.189 321.705 663.189 318.093H663.19ZM693.349 309.046L663.19 296.555V253.047L724.112 278.282L693.348 309.047L693.349 309.046ZM680.841 327L693.133 314.708L704.407 341.928H687.024C683.412 341.928 680.327 339.867 678.945 336.53C677.563 333.193 678.286 329.554 680.84 327.001L680.841 327ZM629.394 372.999L618.12 345.78H635.503C639.115 345.78 642.2 347.841 643.581 351.178C644.963 354.516 644.24 358.153 641.686 360.708L629.394 373V372.999ZM680.842 360.707C678.288 358.152 677.564 354.516 678.946 351.177C680.328 347.84 683.413 345.779 687.025 345.779H704.408L693.134 372.998L680.843 360.706L680.842 360.707ZM570.456 345.78H613.964L626.455 375.939L595.69 406.703L570.455 345.781L570.456 345.78ZM632.118 375.724L644.41 363.431C646.963 360.878 650.603 360.154 653.939 361.536C657.276 362.918 659.337 366.003 659.337 369.615V386.998L632.117 375.724L632.118 375.724ZM663.19 386.997V369.614C663.19 366.002 665.251 362.917 668.588 361.535C671.926 360.153 675.563 360.877 678.118 363.431L690.41 375.723L663.191 386.996L663.19 386.997ZM663.19 391.153L693.349 378.661L724.113 409.426L663.191 434.661V391.154L663.19 391.153ZM708.564 341.927L696.072 311.768L726.837 281.004L752.072 341.927H708.565H708.564ZM696.072 375.938L708.564 345.779H752.071L726.836 406.701L696.071 375.937L696.072 375.938ZM598.415 409.425L629.18 378.66L659.338 391.152V434.66L598.415 409.424V409.425Z" fill="#A1D283" stroke="black" stroke-width="1.88982" stroke-miterlimit="2.61313"/>
<path fill-rule="evenodd" clip-rule="evenodd" d="M441.806 349.979H447.798C449.937 349.979 451.682 351.724 451.682 353.863V367.544C451.682 369.682 449.938 371.427 447.798 371.427H441.806C439.668 371.427 437.923 369.682 437.923 367.544V353.863C437.923 351.724 439.667 349.979 441.806 349.979ZM447.798 351.274H441.806C441.095 351.274 440.447 351.565 439.978 352.034C439.509 352.503 439.217 353.151 439.217 353.863V367.544C439.217 368.256 439.508 368.904 439.978 369.372V369.377C440.444 369.844 441.092 370.133 441.806 370.133H447.798C448.514 370.133 449.161 369.844 449.627 369.377L449.632 369.372C450.097 368.907 450.387 368.258 450.387 367.544V353.863C450.387 353.147 450.098 352.5 449.632 352.034H449.627C449.157 351.566 448.51 351.274 447.798 351.274ZM447.707 362.302C447.045 362.674 446.392 363.078 445.745 363.512C445.1 363.946 444.491 364.408 443.918 364.897H447.707V366.182H441.923V365.122C442.107 364.939 442.331 364.735 442.599 364.513C442.866 364.29 443.152 364.064 443.455 363.833C443.758 363.603 444.072 363.373 444.398 363.145C444.724 362.917 445.037 362.703 445.337 362.502H441.924V361.209H447.708V362.303L447.707 362.302ZM442.925 357.052C442.925 357.659 443.093 358.097 443.43 358.367C443.766 358.636 444.227 358.772 444.811 358.772C445.095 358.772 445.353 358.738 445.583 358.672C445.813 358.605 446.013 358.505 446.179 358.371C446.346 358.238 446.476 358.071 446.567 357.871C446.658 357.67 446.705 357.437 446.705 357.17C446.705 357.025 446.702 356.901 446.696 356.798C446.69 356.696 446.68 356.605 446.662 356.528H444.652V355.225H447.514C447.575 355.381 447.64 355.632 447.71 355.976C447.779 356.321 447.815 356.748 447.815 357.254C447.815 357.688 447.747 358.081 447.614 358.435C447.48 358.788 447.286 359.09 447.03 359.34C446.775 359.591 446.46 359.784 446.087 359.92C445.715 360.057 445.288 360.125 444.81 360.125C444.326 360.125 443.898 360.05 443.525 359.899C443.153 359.748 442.837 359.543 442.578 359.282C442.319 359.02 442.123 358.713 441.99 358.36C441.856 358.006 441.789 357.63 441.789 357.229C441.789 356.956 441.807 356.71 441.844 356.49C441.879 356.27 441.921 356.081 441.968 355.923C442.016 355.764 442.065 355.634 442.114 355.53C442.164 355.427 442.204 355.353 442.232 355.309L443.274 355.684C443.18 355.862 443.098 356.067 443.028 356.298C442.959 356.529 442.923 356.781 442.923 357.053L442.925 357.052Z" fill="white"/>
<path d="M451.681 323.143H449.396V330.003H451.681V323.143Z" fill="#008753"/>
<path fill-rule="evenodd" clip-rule="evenodd" d="M446.248 316.282V326.121C446.248 328.259 444.503 330.004 442.364 330.004H431.506V367.544C431.506 369.682 429.762 371.427 427.623 371.427H417.785V330.004H388.864V336.994H410.794V346.832C410.794 348.971 409.05 350.715 406.911 350.715H388.864V367.543C388.864 369.681 387.12 371.426 384.981 371.426H375.143V320.165C375.143 318.025 376.887 316.281 379.026 316.281C402.379 316.281 422.895 316.281 446.248 316.281V316.282ZM335.522 320.699L355.125 348.696V316.283H364.963C367.102 316.283 368.846 318.027 368.846 320.167V371.428H359.683C356.197 371.428 353.199 369.868 351.199 367.012L331.596 339.016V371.428H321.758C319.62 371.428 317.875 369.683 317.875 367.545V316.283H327.039C330.525 316.283 333.523 317.844 335.522 320.7V320.699Z" fill="white"/>
<path d="M451.681 316.282H449.396V323.144H451.681V316.282Z" fill="#A1D283"/>
</g>
<defs>
<clipPath id="clip0_339_1594">
<rect width="769.557" height="687.708" fill="white"/>
</clipPath>
</defs>
</svg>
