<svg width="51" height="51" viewBox="0 0 51 51" fill="none" xmlns="http://www.w3.org/2000/svg">
<path d="M35.8232 42.9195H14.9899C8.73991 42.9195 4.57324 39.7945 4.57324 32.5028V17.9195C4.57324 10.6278 8.73991 7.50281 14.9899 7.50281H35.8232C42.0732 7.50281 46.2399 10.6278 46.2399 17.9195V32.5028C46.2399 39.7945 42.0732 42.9195 35.8232 42.9195Z" stroke="#A1D283" stroke-width="2.5" stroke-miterlimit="10" stroke-linecap="round" stroke-linejoin="round"/>
<path d="M25.4062 31.4611C28.858 31.4611 31.6562 28.6629 31.6562 25.2111C31.6562 21.7593 28.858 18.9611 25.4062 18.9611C21.9545 18.9611 19.1562 21.7593 19.1562 25.2111C19.1562 28.6629 21.9545 31.4611 25.4062 31.4611Z" stroke="#A1D283" stroke-width="2.5" stroke-miterlimit="10" stroke-linecap="round" stroke-linejoin="round"/>
<path d="M39.9893 14.7944H33.7393" stroke="#A1D283" stroke-width="2.5" stroke-miterlimit="10" stroke-linecap="round" stroke-linejoin="round"/>
<path d="M17.0732 35.6278H10.8232" stroke="#A1D283" stroke-width="2.5" stroke-miterlimit="10" stroke-linecap="round" stroke-linejoin="round"/>
</svg>
