<svg width="19" height="30" viewBox="0 0 19 30" fill="none" xmlns="http://www.w3.org/2000/svg">
<path d="M0.521729 9.23913C0.521729 6.78876 1.49513 4.43875 3.22781 2.70608C4.96048 0.973406 7.31049 0 9.76086 0C12.2112 0 14.5612 0.973406 16.2939 2.70608C18.0266 4.43875 19 6.78876 19 9.23913V20.3261C19 22.7765 18.0266 25.1265 16.2939 26.8591C14.5612 28.5918 12.2112 29.5652 9.76086 29.5652C7.31049 29.5652 4.96048 28.5918 3.22781 26.8591C1.49513 25.1265 0.521729 22.7765 0.521729 20.3261V9.23913ZM10.6848 6.46739C10.6848 6.22235 10.5874 5.98735 10.4142 5.81409C10.2409 5.64082 10.0059 5.54348 9.76086 5.54348C9.51582 5.54348 9.28082 5.64082 9.10755 5.81409C8.93429 5.98735 8.83695 6.22235 8.83695 6.46739V10.163C8.83695 10.4081 8.93429 10.6431 9.10755 10.8163C9.28082 10.9896 9.51582 11.087 9.76086 11.087C10.0059 11.087 10.2409 10.9896 10.4142 10.8163C10.5874 10.6431 10.6848 10.4081 10.6848 10.163V6.46739Z" fill="white"/>
</svg>
