<svg width="464" height="307" viewBox="0 0 464 307" fill="none" xmlns="http://www.w3.org/2000/svg">
<g clip-path="url(#clip0_1069_2728)">
<path d="M235.045 86.2436C230.924 79.4288 226.042 72.1527 218.396 69.9274C209.54 67.3505 200.444 72.4697 192.728 77.5213C169.654 92.629 147.432 109.001 126.166 126.564L126.189 126.828C142.746 125.686 159.302 124.545 175.859 123.403C187.821 122.578 200.194 121.639 210.766 115.98C214.777 113.833 218.687 110.965 223.233 110.765C228.88 110.516 233.805 114.461 237.674 118.581C260.565 142.957 267.189 180.234 292.871 201.65C276.677 161.713 257.341 123.123 235.045 86.2436Z" fill="#A1D283"/>
<path d="M375.753 292.995C373.221 289.798 372.187 289.049 369.69 285.823C349.359 259.528 330.249 232.344 312.361 204.272C300.21 185.207 288.663 165.775 277.717 145.978C272.506 136.566 267.438 127.08 262.513 117.52C258.691 110.108 254.955 102.651 251.303 95.1499C250.259 93.0075 249.245 90.8551 248.235 88.6979C245.856 83.625 243.521 78.5274 241.015 73.5234C238.158 67.8201 234.681 61.8409 229.435 58.0091C227.048 56.1937 224.194 55.0953 221.205 54.8422C216.935 54.5664 212.995 56.3297 209.291 58.2554C182.193 72.3857 156.824 90.1017 133.877 110.26C110.872 130.464 90.3091 153.29 72.6077 178.272C72.0662 179.045 70.7856 178.307 71.3322 177.529C73.4845 174.485 75.6796 171.474 77.9172 168.496C105.741 131.491 139.857 99.6687 178.706 74.4838C185.242 70.2482 191.901 66.2112 198.683 62.3728C202.101 60.4372 205.534 58.5262 209.025 56.7335C212.449 54.9752 216.083 53.3942 219.994 53.3351C233.302 53.1283 240.192 68.1993 244.925 78.3403C246.413 81.5318 247.918 84.7134 249.442 87.8853C255.199 99.9273 261.178 111.859 267.379 123.681C271.206 130.981 275.117 138.237 279.111 145.451C291.542 167.915 304.755 189.924 318.749 211.478C337.287 240.029 355.678 265.251 376.797 291.95C377.378 292.689 376.339 293.743 375.753 292.995Z" fill="#E4E4E4"/>
<path d="M132.561 102.818C131.788 101.956 131.02 101.094 130.242 100.232C124.105 93.4455 117.52 86.7374 109.093 82.8465C105.075 80.9327 100.688 79.9159 96.238 79.8668C91.638 79.8815 87.1413 81.0882 82.891 82.7776C80.8815 83.5804 78.9162 84.4915 76.9808 85.4618C74.7692 86.5749 72.5972 87.7619 70.4352 88.9587C66.3767 91.2046 62.3709 93.5489 58.4178 95.9918C50.5521 100.853 42.9329 106.085 35.5599 111.688C31.7378 114.594 27.9947 117.595 24.3303 120.692C20.9222 123.568 17.5829 126.521 14.3126 129.552C13.6133 130.197 12.5691 129.153 13.2684 128.508C14.1303 127.705 15.0021 126.907 15.8739 126.119C18.3364 123.893 20.8385 121.709 23.3799 119.569C28.0144 115.658 32.7688 111.899 37.6433 108.29C45.2232 102.675 53.064 97.4415 61.1658 92.5885C65.2144 90.1653 69.3187 87.8439 73.4788 85.6243C74.7348 84.9545 76.0056 84.2994 77.291 83.6789C80.2077 82.2076 83.2383 80.974 86.3533 79.9899C90.7658 78.5624 95.4344 78.1038 100.04 78.6453C104.488 79.2922 108.772 80.7745 112.669 83.014C120.943 87.6387 127.36 94.79 133.605 101.769C134.236 102.478 133.197 103.527 132.561 102.818Z" fill="#E4E4E4"/>
<path d="M302.098 173.149L321.926 165.897L331.77 162.296C334.976 161.124 338.174 159.789 341.489 158.949C344.369 158.126 347.427 158.165 350.285 159.061C352.835 160.004 355.168 161.451 357.147 163.314C359.168 165.176 361.049 167.185 362.774 169.324C364.918 171.9 367.029 174.503 369.15 177.097C377.905 187.803 386.601 198.555 395.241 209.354C403.881 220.153 412.462 230.998 420.986 241.888C429.531 252.805 438.017 263.768 446.444 274.777C447.477 276.125 448.508 277.474 449.539 278.824C450.108 279.57 451.392 278.835 450.815 278.079C442.325 266.959 433.777 255.886 425.169 244.858C416.54 233.803 407.851 222.796 399.103 211.835C390.355 200.874 381.548 189.961 372.682 179.096C370.473 176.389 368.26 173.685 366.044 170.984C364.175 168.706 362.326 166.403 360.276 164.282C356.512 160.39 351.81 156.95 346.182 156.857C342.872 156.802 339.669 157.852 336.595 158.964C333.28 160.163 329.973 161.385 326.663 162.596L306.697 169.898L301.706 171.724C300.82 172.048 301.202 173.476 302.098 173.149L302.098 173.149Z" fill="#E4E4E4"/>
<path d="M106.484 91.3867C96.4084 86.2083 83.505 87.2225 74.2461 93.6922C91.9067 96.7391 109.374 100.816 126.559 105.902C119.423 101.72 113.841 95.1676 106.484 91.3867Z" fill="#A1D283"/>
<path d="M74.1467 93.6748L72.207 95.2514C72.8631 94.6996 73.5452 94.1822 74.2459 93.6926C74.2128 93.6869 74.1798 93.6805 74.1467 93.6748Z" fill="#A1D283"/>
<path d="M356.4 173.221C354.448 170.845 352.338 168.358 349.419 167.393L346.693 167.5C367.441 204.162 395.462 236.197 429.037 261.638C404.825 232.166 380.612 202.693 356.4 173.221Z" fill="#A1D283"/>
<path d="M186.915 153.622C188.176 158.205 191.018 162.193 194.937 164.882C196.452 165.914 198.245 166.903 198.763 168.662C199.036 169.782 198.867 170.965 198.293 171.966C197.72 172.953 197.023 173.864 196.219 174.674L196.146 174.949C192.386 172.721 188.809 169.903 186.732 166.057C184.655 162.212 184.365 157.171 186.915 153.622" fill="#A1D283"/>
<path d="M312.095 262.686C313.356 267.268 316.197 271.257 320.116 273.946C321.632 274.977 323.424 275.967 323.943 277.725C324.215 278.846 324.047 280.029 323.473 281.029C322.9 282.017 322.203 282.927 321.399 283.738L321.325 284.013C317.565 281.785 313.988 278.966 311.911 275.121C309.834 271.275 309.544 266.235 312.095 262.686" fill="#A1D283"/>
<path d="M62.2723 255.164C63.5336 259.747 66.3752 263.735 70.2942 266.424C71.8093 267.456 73.6019 268.445 74.1202 270.204C74.3929 271.324 74.2249 272.507 73.6509 273.508C73.0779 274.495 72.3807 275.406 71.5764 276.216L71.503 276.491C67.7431 274.263 64.166 271.445 62.0891 267.599C60.0121 263.753 59.7222 258.713 62.2724 255.164" fill="#A1D283"/>
<path d="M349.755 54.8C364.888 54.8 377.155 42.5326 377.155 27.4C377.155 12.2674 364.888 0 349.755 0C334.623 0 322.355 12.2674 322.355 27.4C322.355 42.5326 334.623 54.8 349.755 54.8Z" fill="white"/>
<path d="M399.203 6.37709C385.924 4.58215 370.764 11.7597 367.322 24.7101C366.454 22.4075 364.878 20.4403 362.819 19.0926C360.76 17.7449 358.326 17.0866 355.869 17.2127C353.412 17.3388 351.058 18.2428 349.148 19.7941C347.239 21.3454 345.871 23.4637 345.244 25.843L346.764 26.9319C375.221 33.0857 404.679 32.9525 433.079 26.5416C423.842 16.834 412.482 8.17199 399.203 6.37709Z" fill="#F0F0F0"/>
<path d="M342.254 42.9103C328.975 41.1154 313.814 48.2929 310.373 61.2433C309.505 58.9407 307.928 56.9735 305.87 55.6258C303.811 54.2781 301.377 53.6198 298.92 53.7459C296.463 53.872 294.109 54.776 292.199 56.3273C290.289 57.8786 288.922 59.997 288.295 62.3762L289.815 63.4651C318.272 69.6189 347.73 69.4858 376.13 63.0748C366.893 53.3672 355.533 44.7052 342.254 42.9103Z" fill="#F0F0F0"/>
<path d="M458.154 49.8178C458.099 49.8179 458.044 49.8094 457.992 49.7926C315.938 4.86835 190.737 10.743 110.721 23.582C99.8315 25.3286 88.913 27.3459 78.2686 29.5784C75.5511 30.1476 72.7319 30.7578 69.8892 31.3932C66.4944 32.1492 63.1447 32.9278 59.9327 33.7064C58.5455 34.0349 57.1854 34.3659 55.8524 34.6996C53.8332 35.1981 51.7844 35.7175 49.5882 36.2883C47.1341 36.921 44.6406 37.5847 42.1755 38.261C42.1665 38.2642 42.1573 38.2668 42.1479 38.2689L42.1482 38.2694C39.3638 39.0296 36.5941 39.8119 33.9157 40.5932C32.4661 41.0118 31.0663 41.4248 29.7255 41.8324C29.5757 41.8739 29.443 41.9137 29.3084 41.9547L29.0204 42.0423C28.8535 42.0932 28.6888 42.143 28.524 42.1902L28.5135 42.1934L28.5138 42.1939L28.0778 42.3293C27.5579 42.4867 27.0505 42.6404 26.5516 42.7936C13.3647 46.8587 6.11541 49.7507 6.04379 49.779C5.97831 49.8052 5.90829 49.8183 5.83774 49.8175C5.76719 49.8167 5.69749 49.802 5.63262 49.7743C5.56775 49.7465 5.50898 49.7063 5.45966 49.6558C5.41035 49.6054 5.37146 49.5457 5.34521 49.4802C5.31896 49.4147 5.30587 49.3447 5.30668 49.2741C5.30748 49.2036 5.32218 49.1339 5.34993 49.069C5.37767 49.0042 5.41792 48.9454 5.46838 48.8961C5.51884 48.8468 5.57851 48.8079 5.644 48.7816C5.71614 48.7533 13.0008 45.8466 26.2357 41.7663C26.7365 41.6126 27.2452 41.4589 27.7667 41.301L28.1717 41.175C28.1856 41.1698 28.1995 41.1656 28.2137 41.1614C28.3776 41.1147 28.5413 41.0649 28.7077 41.0145L28.9962 40.9269C29.14 40.8833 29.2816 40.8403 29.4267 40.8004C30.7583 40.3954 32.1628 39.9814 33.6161 39.5612C36.2956 38.7794 39.0679 37.9972 41.8544 37.2359C41.8631 37.2327 41.872 37.2306 41.8806 37.228V37.2275C44.3544 36.5491 46.8571 35.8828 49.319 35.2479C51.5187 34.6766 53.5714 34.1561 55.594 33.6566C56.9327 33.3235 58.2954 32.9917 59.6822 32.6613C62.8979 31.8817 66.2544 31.102 69.6552 30.3444C72.5023 29.7085 75.3263 29.0968 78.0483 28.527C88.7092 26.2909 99.6447 24.2704 110.551 22.5212C190.682 9.66378 316.062 3.77966 458.315 48.7685C458.438 48.8071 458.542 48.8882 458.61 48.9971C458.677 49.1061 458.704 49.2356 458.684 49.3624C458.665 49.4892 458.601 49.6048 458.503 49.6883C458.406 49.7718 458.282 49.8178 458.154 49.8178Z" fill="#A1D283"/>
<path d="M142.236 225.56C142.05 225.016 141.736 224.525 141.322 224.126C141.169 223.984 141.004 223.856 140.828 223.744C139.426 222.81 137.33 222.6 135.998 223.744C135.864 223.861 135.74 223.988 135.627 224.126C135.23 224.615 134.822 225.093 134.402 225.56C133.715 226.345 133.011 227.102 132.275 227.838C132.065 228.042 131.856 228.252 131.641 228.456C131.517 228.58 131.394 228.698 131.27 228.816C130.797 229.267 130.314 229.703 129.825 230.132C129.567 230.363 129.309 230.589 129.046 230.809C128.654 231.137 128.262 231.465 127.864 231.782C127.826 231.809 127.789 231.835 127.751 231.868C127.741 231.873 127.735 231.884 127.724 231.889C127.719 231.889 127.714 231.889 127.708 231.9C127.694 231.906 127.681 231.915 127.671 231.927C127.552 232.007 127.472 232.061 127.413 232.109C127.434 232.099 127.456 232.083 127.477 232.072C127.381 232.147 127.278 232.222 127.182 232.298C126.242 232.991 125.28 233.657 124.297 234.28C121.864 235.837 119.309 237.193 116.657 238.336C116.48 238.406 116.297 238.481 116.114 238.551C109.17 241.396 101.637 242.506 94.1675 241.785C93.4045 241.726 92.6416 241.646 91.8787 241.544C90.9976 241.415 90.1219 241.259 89.2516 241.082C85.9381 240.421 82.696 239.442 79.5702 238.159C75.6602 236.368 71.9413 234.187 68.4705 231.647C67.9333 231.266 67.3907 230.885 66.848 230.514C67.4659 228.999 68.073 227.484 68.664 225.958C68.9595 225.222 69.2442 224.486 69.5236 223.744C71.721 218.033 73.784 212.269 75.7611 206.482C77.7597 200.621 79.6455 194.725 81.4184 188.796C81.6011 188.194 81.7784 187.593 81.9503 186.991C82.8797 183.859 83.7716 180.719 84.6258 177.573C84.7064 177.267 84.7924 176.966 84.8676 176.659C85.1147 175.757 85.3565 174.854 85.5929 173.952C86.1301 171.915 84.9159 169.482 82.7776 168.993C81.7481 168.729 80.6563 168.875 79.7323 169.4C78.8083 169.925 78.1242 170.788 77.8242 171.808C77.5931 172.678 77.3621 173.543 77.1257 174.414C75.9921 178.62 74.7994 182.813 73.5476 186.991C73.3649 187.593 73.1823 188.194 72.9996 188.796C70.2381 197.897 67.2062 206.907 63.9039 215.825C63.5063 216.905 63.1034 217.981 62.6951 219.054C62.4963 219.581 62.2975 220.107 62.0933 220.634C61.7011 221.671 61.2982 222.708 60.8953 223.744C60.6642 224.352 60.4278 224.959 60.1915 225.56C60.0357 225.942 59.8852 226.323 59.7348 226.699C58.203 226.149 56.6159 225.767 55.0016 225.56L54.7437 225.528C53.4921 225.378 52.2264 225.388 50.9775 225.56C49.1085 225.778 47.3101 226.404 45.7096 227.394C44.1091 228.384 42.7455 229.713 41.7153 231.287C39.1526 235.322 39.1848 241.092 42.779 244.52C46.4807 248.05 52.0843 248.023 56.4414 245.815C58.7504 244.566 60.6974 242.741 62.0933 240.518C62.6282 239.712 63.1196 238.878 63.5654 238.019C63.6783 238.094 63.7911 238.17 63.9039 238.25C64.3337 238.551 64.7635 238.857 65.1879 239.158C67.6609 240.95 70.267 242.55 72.9835 243.945C78.8245 246.849 85.112 248.75 91.5833 249.57C91.7283 249.586 91.868 249.608 92.0131 249.624C92.7276 249.715 93.4475 249.785 94.1675 249.844C104.495 250.622 114.834 248.509 124.028 243.741C124.807 243.338 125.579 242.915 126.344 242.473C127.531 241.785 128.691 241.055 129.825 240.281C130.443 239.862 131.045 239.438 131.641 238.992C134.247 237.072 136.676 234.924 138.899 232.571C139.743 231.685 140.55 230.77 141.322 229.826C142.052 229.054 142.473 228.041 142.504 226.979C142.5 226.494 142.409 226.013 142.236 225.56ZM53.2716 238.358C53.3844 238.277 53.4973 238.191 53.6047 238.105C53.5725 238.186 53.4167 238.277 53.2716 238.358H53.2716ZM54.9962 236.622C54.8726 236.762 54.7598 236.902 54.6362 237.041C54.2603 237.462 53.8565 237.857 53.4274 238.223C53.3683 238.277 53.3039 238.331 53.2394 238.379C53.2387 238.379 53.238 238.379 53.2373 238.38C53.2366 238.38 53.2361 238.38 53.2356 238.381C53.2351 238.381 53.2347 238.382 53.2344 238.383C53.2341 238.383 53.234 238.384 53.234 238.385C53.1564 238.419 53.081 238.459 53.0083 238.503C52.7773 238.642 52.5409 238.771 52.2992 238.89C51.8258 239.064 51.3389 239.199 50.8432 239.293C50.4624 239.32 50.0802 239.324 49.6989 239.303H49.6881C49.425 239.245 49.165 239.173 48.9091 239.088C48.7802 239.024 48.6566 238.949 48.533 238.874C48.4847 238.831 48.4417 238.788 48.4148 238.761C48.3623 238.713 48.3139 238.661 48.2698 238.605C48.2698 238.604 48.2697 238.603 48.2694 238.603C48.2692 238.602 48.2688 238.602 48.2683 238.601C48.2678 238.601 48.2672 238.6 48.2665 238.6C48.2658 238.6 48.2651 238.599 48.2644 238.6C48.2053 238.492 48.1408 238.385 48.0818 238.277C48.0787 238.274 48.0768 238.271 48.0764 238.266C48.0334 238.132 47.9958 237.992 47.9636 237.853C47.9519 237.607 47.9537 237.362 47.9689 237.117C48.041 236.773 48.138 236.436 48.2591 236.107C48.3678 235.873 48.4917 235.647 48.6298 235.43C48.6405 235.408 48.6942 235.322 48.7533 235.226C48.7587 235.22 48.7587 235.22 48.7587 235.215C48.8393 235.123 48.9199 235.027 49.0059 234.941C49.1509 234.78 49.3067 234.64 49.4625 234.495C49.7655 234.297 50.0794 234.115 50.4027 233.952C50.9156 233.77 51.4419 233.628 51.9769 233.528C52.7657 233.465 53.5586 233.472 54.3462 233.549C55.0921 233.679 55.8282 233.86 56.5489 234.092C56.1121 234.94 55.6147 235.755 55.0607 236.531C55.0392 236.563 55.0177 236.596 54.9962 236.622ZM49.0219 234.855C48.9746 234.931 48.9187 235.001 48.8554 235.064C48.898 234.985 48.9544 234.914 49.0219 234.855Z" fill="#A1D283"/>
<path d="M126.086 170.691C126.038 172.378 125.989 174.065 125.941 175.751C125.839 179.496 125.733 183.243 125.624 186.991C125.511 191.208 125.393 195.424 125.27 199.638C125.21 201.814 125.15 203.99 125.087 206.165C124.92 212.027 124.756 217.887 124.593 223.744C124.577 224.352 124.555 224.953 124.539 225.56C124.458 228.467 124.378 231.373 124.297 234.28C124.206 237.434 124.116 240.587 124.028 243.741C123.964 246.105 123.898 248.471 123.83 250.838C123.346 267.993 122.863 285.147 122.379 302.302C122.359 303.364 121.928 304.377 121.176 305.128C120.425 305.88 119.412 306.311 118.35 306.331C117.284 306.323 116.264 305.895 115.51 305.142C114.756 304.388 114.329 303.368 114.32 302.302C114.589 292.653 114.861 283.004 115.137 273.355C115.379 264.63 115.624 255.905 115.873 247.179C115.954 244.305 116.034 241.429 116.115 238.551C116.238 234.221 116.36 229.891 116.48 225.56C116.496 224.953 116.518 224.352 116.534 223.744C116.545 223.213 116.561 222.686 116.577 222.154C116.813 213.746 117.05 205.336 117.286 196.925C117.383 193.615 117.476 190.304 117.565 186.991C117.673 183.214 117.78 179.439 117.888 175.666C117.936 174.005 117.979 172.351 118.027 170.691C118.048 169.628 118.479 168.615 119.23 167.864C119.981 167.113 120.995 166.682 122.057 166.661C123.123 166.67 124.143 167.097 124.896 167.851C125.65 168.605 126.078 169.625 126.086 170.691Z" fill="#A1D283"/>
<path d="M347.129 171.809C342.903 187.808 337.853 203.578 331.999 219.056C330.383 223.325 328.731 227.586 326.964 231.795L327.37 230.833C326.582 232.838 325.575 234.75 324.367 236.534C324.285 236.649 324.202 236.763 324.116 236.876C324.534 236.342 324.613 236.236 324.354 236.559C324.218 236.721 324.083 236.883 323.942 237.04C323.566 237.461 323.162 237.857 322.734 238.224C322.626 238.316 322.516 238.407 322.405 238.495L322.909 238.103C322.85 238.241 322.44 238.424 322.312 238.502C321.898 238.752 321.466 238.971 321.02 239.157L321.983 238.751C321.251 239.045 320.489 239.255 319.709 239.375L320.781 239.231C320.015 239.336 319.239 239.345 318.472 239.255L319.543 239.399C318.915 239.313 318.3 239.147 317.713 238.907L318.676 239.313C318.363 239.176 318.061 239.015 317.774 238.831C317.628 238.736 317.18 238.397 317.766 238.845C318.375 239.31 317.844 238.884 317.719 238.761C317.615 238.658 317.52 238.546 317.418 238.441C316.944 237.955 317.954 239.277 317.631 238.709C317.459 238.424 317.302 238.131 317.16 237.83L317.566 238.792C317.381 238.334 317.25 237.856 317.175 237.368L317.319 238.439C317.242 237.832 317.241 237.217 317.317 236.61L317.173 237.681C317.272 237.003 317.451 236.339 317.707 235.704L317.301 236.666C317.48 236.239 317.692 235.826 317.934 235.431C318.046 235.227 318.177 235.035 318.326 234.856C318.352 234.864 317.644 235.668 318.02 235.262C318.118 235.156 318.21 235.044 318.309 234.939C318.468 234.77 318.639 234.616 318.806 234.457C319.368 233.922 318.021 234.976 318.669 234.553C319.138 234.244 319.632 233.975 320.146 233.747L319.183 234.153C320.043 233.8 320.945 233.558 321.867 233.434L320.796 233.578C321.95 233.445 323.116 233.459 324.267 233.619L323.196 233.475C324.653 233.696 326.077 234.096 327.435 234.667L326.473 234.261C329.369 235.504 331.933 237.35 334.493 239.16C336.966 240.95 339.571 242.55 342.287 243.945C348.128 246.849 354.416 248.751 360.888 249.572C370.169 250.709 379.587 249.497 388.278 246.047C396.969 242.597 404.655 237.02 410.63 229.827C411.359 229.054 411.778 228.04 411.81 226.978C411.802 225.91 411.379 224.888 410.63 224.128C409.151 222.771 406.359 222.388 404.931 224.128C403.578 225.78 402.124 227.346 400.576 228.817C399.853 229.503 399.111 230.167 398.35 230.81C397.916 231.178 397.475 231.538 397.028 231.891C396.817 232.058 396.159 232.502 397.17 231.785C396.938 231.949 396.716 232.129 396.487 232.298C393.103 234.792 389.437 236.877 385.563 238.511L386.526 238.105C382.37 239.848 378.004 241.044 373.54 241.663L374.611 241.519C370.018 242.123 365.366 242.116 360.775 241.498L361.846 241.642C357.256 241.012 352.767 239.789 348.491 238.005L349.454 238.411C345.328 236.585 341.412 234.317 337.776 231.646C335.883 230.245 333.888 228.989 331.805 227.889C329.38 226.65 326.753 225.851 324.049 225.531C318.978 224.934 313.81 226.909 311.022 231.29C308.457 235.322 308.49 241.092 312.083 244.52C315.783 248.052 321.387 248.022 325.748 245.813C329.948 243.686 332.471 239.266 334.245 235.099C338.237 225.721 341.772 216.127 345.065 206.483C348.323 196.943 351.278 187.305 353.929 177.572C354.257 176.366 354.581 175.159 354.9 173.951C355.437 171.916 354.222 169.481 352.085 168.995C351.055 168.73 349.963 168.875 349.038 169.4C348.113 169.925 347.429 170.789 347.129 171.809L347.129 171.809Z" fill="#A1D283"/>
<path d="M387.332 170.691L385.882 222.156L384.439 273.353L383.623 302.302C383.632 303.368 384.06 304.388 384.813 305.142C385.567 305.895 386.587 306.323 387.652 306.332C388.715 306.311 389.728 305.88 390.479 305.129C391.23 304.378 391.661 303.365 391.682 302.302L393.132 250.837L394.575 199.64L395.391 170.691C395.382 169.625 394.954 168.605 394.201 167.851C393.447 167.098 392.427 166.67 391.361 166.661C390.299 166.682 389.286 167.113 388.535 167.864C387.784 168.615 387.353 169.628 387.332 170.691Z" fill="#A1D283"/>
<path opacity="0.2" d="M247.862 287.933H249.114V230.962H278.302V229.714H249.114V205.675H271.654C271.324 205.255 270.984 204.84 270.634 204.43H249.114V188.553C248.7 188.376 248.283 188.206 247.862 188.046V204.43H223.336V184.087C222.915 184.106 222.501 184.135 222.084 184.17V204.43H202.517V189.252C202.097 189.438 201.683 189.634 201.273 189.839V204.43H184.824V205.675H201.273V229.714H184.824V230.962H201.273V287.933H202.517V230.962C205.087 230.962 207.632 231.467 210.006 232.45C212.38 233.434 214.537 234.875 216.355 236.692C218.172 238.509 219.613 240.666 220.596 243.04C221.579 245.415 222.085 247.959 222.084 250.529V287.933H223.336V230.962H247.862V287.933ZM202.517 229.714V205.675H222.084V229.714H202.517ZM223.336 229.714V205.675H223.826C226.983 205.675 230.109 206.297 233.025 207.505C235.941 208.713 238.591 210.484 240.823 212.717C243.055 214.949 244.825 217.599 246.033 220.515C247.241 223.432 247.863 226.557 247.862 229.714H223.336Z" fill="white" fill-opacity="0.9"/>
<path d="M240.222 270.851C238.647 277.877 234.874 284.219 229.45 288.956C229.053 289.3 228.655 289.633 228.241 289.961C227.237 290.052 226.239 290.145 225.249 290.24C224.427 290.315 223.616 290.396 222.81 290.471L222.665 290.487L222.563 289.606L222.154 286.039C220.57 283.453 219.588 280.544 219.282 277.527C218.975 274.51 219.35 271.462 220.381 268.61C221.8 264.785 224.368 261.406 226.893 258.053C230.38 253.422 233.77 248.845 233.893 243.198C235.609 245.394 237.035 247.801 238.138 250.36C237.098 250.849 236.163 251.537 235.387 252.385C235.167 252.627 234.946 252.966 235.097 253.256C235.226 253.503 235.548 253.562 235.827 253.594C236.499 253.664 237.176 253.734 237.847 253.804C238.385 253.863 238.922 253.916 239.459 253.976C240.109 256.109 240.55 258.301 240.775 260.519C241.137 263.971 240.951 267.458 240.222 270.851Z" fill="#A1D283"/>
<path d="M258.058 256.769C254.888 259.074 253.035 262.389 251.595 266.042C250.119 266.515 248.792 267.363 247.743 268.503C247.522 268.745 247.302 269.083 247.453 269.373C247.582 269.621 247.904 269.68 248.183 269.712C248.855 269.782 249.532 269.852 250.203 269.921C248.763 274.241 247.442 278.711 244.895 282.359C243.202 284.767 240.994 286.769 238.432 288.22C237.734 288.618 237.012 288.975 236.272 289.289C233.543 289.499 230.866 289.723 228.24 289.961C227.236 290.052 226.238 290.145 225.248 290.24C224.426 290.316 223.615 290.396 222.809 290.471C222.803 290.176 222.803 289.88 222.809 289.585C222.979 281.713 225.874 274.145 231.002 268.17C231.244 267.891 231.491 267.617 231.743 267.343C234.341 264.568 237.396 262.26 240.775 260.519C246.098 257.751 252.066 256.457 258.058 256.769Z" fill="white"/>
<path d="M226.177 287.485L225.559 289.311L225.248 290.241C224.426 290.316 223.614 290.397 222.809 290.472L222.664 290.488C221.772 290.579 220.885 290.671 219.999 290.762C219.768 290.493 219.537 290.219 219.311 289.94C213.703 283.149 211.011 274.415 211.824 265.645C212.636 256.876 216.887 248.785 223.647 243.14C222.938 246.852 223.765 250.409 225.124 253.938C224.979 253.998 224.839 254.057 224.705 254.121C223.665 254.611 222.731 255.299 221.954 256.147C221.734 256.388 221.514 256.727 221.664 257.017C221.793 257.264 222.116 257.323 222.395 257.355C223.066 257.425 223.743 257.495 224.415 257.565C224.952 257.624 225.489 257.678 226.027 257.737C226.279 257.764 226.532 257.791 226.784 257.817C226.822 257.898 226.854 257.973 226.892 258.054C228.423 261.374 230.072 264.71 231.002 268.17C231.235 269.038 231.418 269.919 231.55 270.808C231.963 273.813 231.695 276.872 230.765 279.759C229.835 282.646 228.267 285.287 226.177 287.485Z" fill="white"/>
<path d="M280.256 209.562C275.63 200.54 268.465 192.949 260.037 187.371C251.583 181.8 241.882 178.408 231.798 177.496C230.476 177.376 229.151 177.306 227.823 177.285C226.253 177.262 202.644 184.072 194.735 189.632C186.83 195.125 180.328 202.4 175.752 210.869C171.184 219.384 168.938 228.951 169.237 238.609C169.629 248.325 172.337 257.807 177.137 266.264C181.87 274.694 188.592 281.84 196.716 287.081C204.957 292.339 213.234 306.28 222.964 306.772C232.766 307.268 243.946 294.117 252.886 290.124C261.827 286.098 269.556 279.799 275.303 271.855C280.889 264.07 284.502 255.046 285.833 245.557C287.216 235.842 286.571 225.823 283.254 216.537C282.402 214.151 281.401 211.821 280.256 209.562C279.299 207.678 276.497 206.985 274.743 208.116C273.839 208.673 273.184 209.556 272.915 210.583C272.646 211.61 272.783 212.701 273.297 213.629C273.858 214.735 274.381 215.859 274.863 217.002L274.457 216.039C276.284 220.431 277.526 225.044 278.151 229.76L278.008 228.688C278.673 233.804 278.661 238.986 277.972 244.098L278.116 243.027C277.419 248.139 276.055 253.138 274.057 257.895L274.463 256.933C273.436 259.36 272.238 261.711 270.879 263.97C270.19 265.111 269.459 266.225 268.687 267.312C268.347 267.789 267.998 268.258 267.645 268.726C267.185 269.336 268.272 267.929 267.797 268.527C267.716 268.629 267.635 268.732 267.554 268.833C267.31 269.138 267.062 269.441 266.812 269.74C265.136 271.738 263.308 273.604 261.344 275.319C260.855 275.746 260.357 276.163 259.852 276.571C259.6 276.774 259.351 276.986 259.088 277.175C259.098 277.168 259.937 276.531 259.441 276.901C259.285 277.017 259.13 277.135 258.973 277.251C257.931 278.023 256.861 278.756 255.764 279.449C253.237 281.041 250.586 282.427 247.836 283.593L248.799 283.187C244.056 285.184 239.071 286.548 233.972 287.244L235.043 287.1C229.947 287.789 224.782 287.798 219.684 287.128L220.755 287.271C216.121 286.649 211.589 285.424 207.272 283.626L208.235 284.033C205.735 282.977 203.325 281.721 201.027 280.277C199.89 279.56 198.783 278.8 197.705 277.995C197.551 277.88 197.399 277.764 197.246 277.648C196.754 277.277 197.599 277.922 197.606 277.926C197.32 277.721 197.044 277.502 196.781 277.268C196.26 276.844 195.748 276.411 195.244 275.967C193.226 274.19 191.342 272.267 189.606 270.213C189.172 269.7 188.747 269.179 188.331 268.65C188.151 268.421 187.822 267.956 188.548 268.934C188.452 268.805 188.353 268.679 188.257 268.551C188.025 268.244 187.797 267.935 187.572 267.623C186.783 266.531 186.033 265.413 185.322 264.267C183.715 261.675 182.313 258.961 181.128 256.15L181.534 257.113C179.595 252.5 178.27 247.652 177.591 242.694L177.735 243.766C177.122 239.196 177.113 234.565 177.709 229.993L177.565 231.064C178.175 226.636 179.366 222.308 181.108 218.192L180.701 219.154C181.797 216.577 183.089 214.088 184.567 211.71C185.307 210.52 186.091 209.358 186.919 208.226C187.107 207.969 187.297 207.713 187.49 207.459C187.664 207.229 188.143 206.657 187.326 207.668C187.406 207.568 187.483 207.466 187.562 207.366C188.016 206.791 188.482 206.224 188.958 205.666C190.762 203.554 192.717 201.575 194.806 199.745C195.334 199.282 195.87 198.83 196.414 198.386C196.662 198.185 196.911 197.986 197.162 197.788C197.262 197.71 197.364 197.632 197.463 197.553C196.39 198.407 197.165 197.785 197.409 197.603C198.531 196.762 199.684 195.963 200.866 195.206C203.495 193.525 206.26 192.068 209.133 190.85L208.17 191.256C212.339 189.505 230.811 185.374 234.17 185.825L233.099 185.681C238.037 186.37 242.863 187.703 247.454 189.647L246.492 189.241C248.819 190.229 251.08 191.364 253.261 192.641C254.351 193.28 255.42 193.954 256.467 194.662C256.963 194.998 257.453 195.341 257.938 195.691C258.181 195.866 258.422 196.044 258.662 196.223C258.795 196.322 258.927 196.423 259.06 196.522C259.618 196.941 258.291 195.916 258.876 196.379C260.835 197.918 262.695 199.578 264.446 201.35C265.306 202.226 266.137 203.13 266.938 204.061C267.348 204.539 267.751 205.024 268.144 205.516C268.34 205.76 269.007 206.644 268.19 205.561C268.389 205.826 268.591 206.089 268.789 206.356C270.486 208.654 271.994 211.086 273.297 213.629C274.26 215.508 277.051 216.209 278.81 215.075C279.714 214.518 280.369 213.635 280.638 212.608C280.907 211.581 280.77 210.49 280.256 209.562Z" fill="#A1D283"/>
<path d="M233.306 275.319C232.89 275.338 232.478 275.229 232.126 275.006C231.775 274.783 231.5 274.458 231.339 274.073C231.179 273.689 231.14 273.265 231.228 272.858C231.317 272.451 231.528 272.081 231.834 271.799C231.885 271.595 231.922 271.449 231.973 271.246C231.955 271.201 231.937 271.157 231.918 271.113C230.049 266.655 218.119 279.082 217.603 283.272C217.376 285.124 217.472 287.001 217.886 288.82C214.022 280.391 212.015 271.229 212.002 261.956C212.002 259.629 212.131 257.304 212.39 254.992C212.603 253.096 212.9 251.213 213.28 249.345C215.351 239.205 219.798 229.701 226.255 221.614C229.948 221.82 233.185 221.257 233.497 214.1C233.553 212.827 234.497 211.724 234.705 210.47C234.353 210.516 233.994 210.545 233.642 210.568C233.532 210.574 233.416 210.58 233.307 210.586L233.265 210.588C232.878 210.605 232.493 210.51 232.159 210.314C231.824 210.118 231.553 209.83 231.378 209.483C231.204 209.137 231.133 208.748 231.175 208.362C231.216 207.976 231.368 207.611 231.613 207.31C231.765 207.122 231.917 206.935 232.07 206.748C232.301 206.459 232.538 206.176 232.769 205.887C232.796 205.859 232.821 205.83 232.844 205.8C233.11 205.471 233.376 205.147 233.642 204.818C233.156 204.064 232.504 203.433 231.734 202.974C229.07 201.413 225.394 202.494 223.469 204.904C221.539 207.314 221.175 210.696 221.845 213.707C222.505 216.269 223.595 218.7 225.07 220.897C224.926 221.082 224.776 221.261 224.631 221.446C221.99 224.842 219.688 228.489 217.758 232.335C218.304 228.07 211.627 212.667 209.045 209.405C205.943 205.486 199.583 207.196 199.037 212.164C199.031 212.212 199.026 212.26 199.021 212.308C199.405 212.524 199.78 212.754 200.147 212.997C200.609 213.305 200.966 213.746 201.173 214.261C201.38 214.776 201.426 215.341 201.306 215.883C201.186 216.425 200.905 216.918 200.5 217.297C200.095 217.677 199.585 217.925 199.037 218.01L198.981 218.018C193.847 225.349 210.305 244.427 214.424 240.143C212.485 245.638 211.269 251.362 210.806 257.17C210.544 260.597 210.559 264.04 210.852 267.464L210.835 267.343C209.92 259.884 194.217 248.795 189.631 249.719C186.99 250.251 184.388 250.13 184.789 252.795C184.796 252.837 184.802 252.88 184.809 252.922C185.52 253.212 186.213 253.546 186.884 253.922C187.267 254.139 187.643 254.368 188.01 254.611C188.471 254.92 188.829 255.36 189.036 255.875C189.243 256.39 189.289 256.956 189.169 257.497C189.049 258.039 188.768 258.532 188.363 258.912C187.958 259.291 187.448 259.539 186.899 259.624L186.843 259.633C186.803 259.638 186.768 259.644 186.728 259.65C184.391 267.691 201.721 280.667 212.257 276.538H212.262C213.307 281.076 214.819 285.492 216.776 289.716H232.902C232.96 289.537 233.012 289.352 233.064 289.173C231.571 289.267 230.073 289.177 228.602 288.907C229.798 287.439 230.995 285.959 232.191 284.491C232.218 284.464 232.243 284.435 232.266 284.405C232.873 283.653 233.486 282.908 234.093 282.156L234.093 282.155C234.125 279.852 233.861 277.555 233.306 275.319L233.306 275.319ZM214.84 238.993L214.849 238.982L214.84 239.005V238.993ZM211.268 271.192L211.13 270.88C211.135 270.655 211.135 270.429 211.13 270.198C211.13 270.134 211.118 270.071 211.118 270.007C211.17 270.406 211.216 270.805 211.274 271.204L211.268 271.192Z" fill="#A1D283"/>
<path d="M52.1168 241.764C55.3807 241.764 58.0266 239.118 58.0266 235.854C58.0266 232.59 55.3807 229.944 52.1168 229.944C48.8529 229.944 46.207 232.59 46.207 235.854C46.207 239.118 48.8529 241.764 52.1168 241.764Z" fill="#A1D283"/>
<path d="M123.035 306.235C126.299 306.235 128.945 303.589 128.945 300.325C128.945 297.061 126.299 294.415 123.035 294.415C119.771 294.415 117.125 297.061 117.125 300.325C117.125 303.589 119.771 306.235 123.035 306.235Z" fill="#A1D283"/>
<path d="M392.199 306.235C395.463 306.235 398.109 303.589 398.109 300.325C398.109 297.061 395.463 294.415 392.199 294.415C388.935 294.415 386.289 297.061 386.289 300.325C386.289 303.589 388.935 306.235 392.199 306.235Z" fill="#A1D283"/>
<path d="M406.705 231.019C409.969 231.019 412.615 228.373 412.615 225.109C412.615 221.845 409.969 219.199 406.705 219.199C403.441 219.199 400.795 221.845 400.795 225.109C400.795 228.373 403.441 231.019 406.705 231.019Z" fill="#A1D283"/>
<path d="M389.513 176.219C392.777 176.219 395.423 173.573 395.423 170.309C395.423 167.045 392.777 164.399 389.513 164.399C386.249 164.399 383.604 167.045 383.604 170.309C383.604 173.573 386.249 176.219 389.513 176.219Z" fill="#A1D283"/>
<path d="M142.913 225.109C142.91 226.619 142.326 228.069 141.283 229.16C140.24 230.251 138.817 230.9 137.309 230.971C135.801 231.042 134.323 230.531 133.182 229.544C132.04 228.556 131.322 227.167 131.176 225.665C131.03 224.162 131.467 222.661 132.397 221.472C133.327 220.283 134.678 219.496 136.172 219.276C137.665 219.056 139.186 219.418 140.42 220.287C141.654 221.157 142.506 222.468 142.8 223.949C142.876 224.331 142.914 224.72 142.913 225.109Z" fill="#A1D283"/>
<path d="M261.109 193.411C264.373 193.411 267.019 190.765 267.019 187.502C267.019 184.238 264.373 181.592 261.109 181.592C257.845 181.592 255.199 184.238 255.199 187.502C255.199 190.765 257.845 193.411 261.109 193.411Z" fill="#A1D283"/>
<path d="M202.55 187.502C202.546 189.011 201.963 190.462 200.919 191.553C199.876 192.644 198.454 193.292 196.946 193.364C195.438 193.435 193.96 192.924 192.819 191.936C191.677 190.948 190.959 189.56 190.813 188.057C190.667 186.555 191.104 185.053 192.034 183.864C192.964 182.675 194.315 181.889 195.809 181.669C197.302 181.448 198.823 181.81 200.057 182.68C201.291 183.55 202.143 184.861 202.437 186.341C202.513 186.723 202.551 187.112 202.55 187.502Z" fill="#A1D283"/>
<path d="M126.259 170.309C126.255 171.819 125.672 173.269 124.628 174.36C123.585 175.452 122.162 176.1 120.655 176.171C119.147 176.243 117.669 175.732 116.528 174.744C115.386 173.756 114.668 172.367 114.522 170.865C114.376 169.362 114.813 167.861 115.743 166.672C116.673 165.483 118.024 164.697 119.518 164.476C121.011 164.256 122.532 164.618 123.766 165.488C125 166.357 125.852 167.668 126.146 169.149C126.222 169.531 126.26 169.92 126.259 170.309Z" fill="#A1D283"/>
<path d="M322.894 243.913C326.158 243.913 328.804 241.267 328.804 238.004C328.804 234.74 326.158 232.094 322.894 232.094C319.63 232.094 316.984 234.74 316.984 238.004C316.984 241.267 319.63 243.913 322.894 243.913Z" fill="#A1D283"/>
<path d="M229.948 190.188C234.695 190.188 238.544 186.34 238.544 181.592C238.544 176.845 234.695 172.996 229.948 172.996C225.2 172.996 221.352 176.845 221.352 181.592C221.352 186.34 225.2 190.188 229.948 190.188Z" fill="#A1D283"/>
<path d="M462.415 306.687L1.58501 306.852C1.501 306.852 1.41782 306.835 1.3402 306.803C1.26259 306.771 1.19208 306.724 1.13267 306.664C1.07327 306.605 1.02615 306.534 0.994 306.457C0.961852 306.379 0.945312 306.296 0.945312 306.212C0.945312 306.128 0.961852 306.045 0.994 305.967C1.02615 305.89 1.07327 305.819 1.13267 305.76C1.19208 305.7 1.26259 305.653 1.3402 305.621C1.41782 305.589 1.501 305.572 1.58501 305.572L462.415 305.407C462.585 305.408 462.747 305.475 462.866 305.595C462.986 305.715 463.053 305.878 463.053 306.047C463.053 306.216 462.986 306.379 462.866 306.499C462.747 306.619 462.585 306.686 462.415 306.687Z" fill="#CACACA"/>
</g>
<defs>
<clipPath id="clip0_1069_2728">
<rect width="462.11" height="306.852" fill="white" transform="translate(0.945312)"/>
</clipPath>
</defs>
</svg>
