<svg width="51" height="51" viewBox="0 0 51 51" fill="none" xmlns="http://www.w3.org/2000/svg">
<path d="M38.4248 15.7162C38.2998 15.6954 38.154 15.6954 38.029 15.7162C35.154 15.612 32.8623 13.2579 32.8623 10.3412C32.8623 7.36202 35.2581 4.96619 38.2373 4.96619C41.2165 4.96619 43.6123 7.38286 43.6123 10.3412C43.5915 13.2579 41.2998 15.612 38.4248 15.7162Z" stroke="#A1D283" stroke-width="2.5" stroke-linecap="round" stroke-linejoin="round"/>
<path d="M36.2793 30.8829C39.1335 31.3621 42.2793 30.8621 44.4876 29.3829C47.4251 27.4246 47.4251 24.2163 44.4876 22.2579C42.2585 20.7788 39.071 20.2788 36.2168 20.7788" stroke="#A1D283" stroke-width="2.5" stroke-linecap="round" stroke-linejoin="round"/>
<path d="M13.3623 15.7162C13.4873 15.6954 13.6331 15.6954 13.7581 15.7162C16.6331 15.612 18.9248 13.2579 18.9248 10.3412C18.9248 7.36202 16.529 4.96619 13.5498 4.96619C10.5706 4.96619 8.1748 7.38286 8.1748 10.3412C8.19564 13.2579 10.4873 15.612 13.3623 15.7162Z" stroke="#A1D283" stroke-width="2.5" stroke-linecap="round" stroke-linejoin="round"/>
<path d="M15.5081 30.8829C12.654 31.3621 9.50814 30.8621 7.2998 29.3829C4.3623 27.4246 4.3623 24.2163 7.2998 22.2579C9.52897 20.7788 12.7165 20.2788 15.5706 20.7788" stroke="#A1D283" stroke-width="2.5" stroke-linecap="round" stroke-linejoin="round"/>
<path d="M25.9248 31.2787C25.7998 31.2579 25.654 31.2579 25.529 31.2787C22.654 31.1745 20.3623 28.8204 20.3623 25.9037C20.3623 22.9245 22.7581 20.5287 25.7373 20.5287C28.7165 20.5287 31.1123 22.9454 31.1123 25.9037C31.0915 28.8204 28.7998 31.1954 25.9248 31.2787Z" stroke="#A1D283" stroke-width="2.5" stroke-linecap="round" stroke-linejoin="round"/>
<path d="M19.8623 37.8412C16.9248 39.7995 16.9248 43.0079 19.8623 44.9662C23.1956 47.1954 28.654 47.1954 31.9873 44.9662C34.9248 43.0079 34.9248 39.7995 31.9873 37.8412C28.6748 35.6329 23.1956 35.6329 19.8623 37.8412Z" stroke="#A1D283" stroke-width="2.5" stroke-linecap="round" stroke-linejoin="round"/>
</svg>
