<svg width="51" height="51" viewBox="0 0 51 51" fill="none" xmlns="http://www.w3.org/2000/svg">
<path d="M36.4997 10.1516C32.9547 10.1266 29.9047 12.5516 28.4872 13.8691C27.9647 14.3832 27.3381 14.7795 26.6497 15.0316L25.6122 15.3766L19.0097 10.8516C18.3452 10.3956 17.5582 10.1515 16.7522 10.1516C13.4397 10.1516 11.5697 13.9641 13.6022 16.5841L15.3222 18.8066L12.1372 19.8691L10.6547 16.8091C9.33475 14.0841 5.23975 15.0266 5.23975 18.0516V25.5166C5.23984 26.2137 5.4065 26.9007 5.72587 27.5203C6.04523 28.14 6.50805 28.6743 7.07575 29.0789C7.64346 29.4834 8.29962 29.7465 8.98957 29.8461C9.67952 29.9457 10.3833 29.879 11.0422 29.6516L18.5872 27.0441L17.8547 30.7066C17.0772 34.5941 22.0722 36.8716 24.4972 33.7366L32.2422 23.7216L42.6897 20.3441C44.7847 19.6641 46.0197 17.1441 44.5322 15.1166C43.0572 13.0991 40.3022 10.1791 36.4997 10.1516ZM17.8372 17.9691L15.5772 15.0516C15.3606 14.7709 15.2511 14.4222 15.2684 14.0681C15.2858 13.714 15.4288 13.3777 15.6719 13.1195C15.915 12.8614 16.2421 12.6984 16.5945 12.6599C16.947 12.6213 17.3016 12.7096 17.5947 12.9091L22.6397 16.3691L17.8397 17.9691H17.8372ZM30.1897 15.6991C31.5572 14.4241 33.9772 12.6341 36.4797 12.6516C38.9997 12.6691 41.1047 14.6666 42.5147 16.5916C42.5967 16.6953 42.6498 16.8188 42.6687 16.9496C42.6876 17.0804 42.6716 17.2139 42.6222 17.3366C42.5591 17.4867 42.4632 17.621 42.3417 17.7295C42.2202 17.838 42.0761 17.9182 41.9197 17.9641L31.1047 21.4641C30.8648 21.5415 30.6539 21.6896 30.4997 21.8891L22.5197 32.2066C21.7122 33.2516 20.0447 32.4941 20.3047 31.1966L21.0372 27.5366C21.1239 27.1048 21.095 26.6578 20.9535 26.2408C20.8119 25.8238 20.5627 25.4516 20.2311 25.1619C19.8995 24.8721 19.4972 24.6751 19.065 24.5908C18.6328 24.5064 18.186 24.5378 17.7697 24.6816L10.2272 27.2891C9.94457 27.3868 9.64262 27.4154 9.34661 27.3727C9.05059 27.3299 8.76911 27.2169 8.52565 27.0432C8.28219 26.8695 8.08382 26.64 7.9471 26.374C7.81039 26.108 7.73929 25.8131 7.73975 25.5141V18.0516C7.73975 17.9266 7.77725 17.8616 7.80975 17.8266C7.86288 17.7684 7.93277 17.7282 8.00975 17.7116C8.08769 17.6916 8.16998 17.6968 8.24475 17.7266C8.28725 17.7441 8.34975 17.7841 8.40475 17.9016L10.3647 21.9466C10.4972 22.2196 10.7245 22.435 11.0042 22.5528C11.2839 22.6706 11.5969 22.6826 11.8847 22.5866L27.4397 17.4016C28.5222 17.0416 29.4372 16.4016 30.1897 15.7016V15.6991ZM6.48975 42.6516C6.15823 42.6516 5.84028 42.7833 5.60586 43.0177C5.37144 43.2521 5.23975 43.57 5.23975 43.9016C5.23975 44.2331 5.37144 44.551 5.60586 44.7854C5.84028 45.0199 6.15823 45.1516 6.48975 45.1516H43.9897C44.3213 45.1516 44.6392 45.0199 44.8736 44.7854C45.1081 44.551 45.2397 44.2331 45.2397 43.9016C45.2397 43.57 45.1081 43.2521 44.8736 43.0177C44.6392 42.7833 44.3213 42.6516 43.9897 42.6516H6.48975Z" fill="#A1D283"/>
</svg>
