<svg width="51" height="51" viewBox="0 0 51 51" fill="none" xmlns="http://www.w3.org/2000/svg">
<path d="M19.826 22.7649C19.6177 22.7441 19.3677 22.7441 19.1385 22.7649C14.1802 22.5983 10.2427 18.5358 10.2427 13.5358C10.2427 8.4316 14.3677 4.28577 19.4927 4.28577C24.5968 4.28577 28.7427 8.4316 28.7427 13.5358C28.7218 18.5358 24.7843 22.5983 19.826 22.7649Z" stroke="#A1D283" stroke-width="2.5" stroke-linecap="round" stroke-linejoin="round"/>
<path d="M34.9295 8.45251C38.9712 8.45251 42.2212 11.7233 42.2212 15.7442C42.2212 19.6817 39.0962 22.89 35.2004 23.0358C35.0337 23.015 34.8462 23.015 34.6587 23.0358" stroke="#A1D283" stroke-width="2.5" stroke-linecap="round" stroke-linejoin="round"/>
<path d="M9.40967 30.4525C4.368 33.8275 4.368 39.3275 9.40967 42.6817C15.1388 46.515 24.5347 46.515 30.2638 42.6817C35.3055 39.3067 35.3055 33.8067 30.2638 30.4525C24.5555 26.64 15.1597 26.64 9.40967 30.4525Z" stroke="#A1D283" stroke-width="2.5" stroke-linecap="round" stroke-linejoin="round"/>
<path d="M38.9507 41.7858C40.4507 41.4733 41.8673 40.8691 43.034 39.9733C46.284 37.5358 46.284 33.5149 43.034 31.0774C41.8882 30.2024 40.4924 29.6191 39.0132 29.2858" stroke="#A1D283" stroke-width="2.5" stroke-linecap="round" stroke-linejoin="round"/>
</svg>
