<svg width="25" height="25" viewBox="0 0 25 25" fill="none" xmlns="http://www.w3.org/2000/svg">
<path d="M12.4793 1.58105C6.44937 1.58105 1.56006 6.47036 1.56006 12.5003C1.56006 18.5303 6.44937 23.4196 12.4793 23.4196C18.5093 23.4196 23.3986 18.5303 23.3986 12.5003C23.3986 6.47036 18.5093 1.58105 12.4793 1.58105ZM17.7269 9.81196C17.7343 9.92651 17.7343 10.0459 17.7343 10.1629C17.7343 13.741 15.0093 17.8625 10.0298 17.8625C8.49429 17.8625 7.07089 17.4165 5.87172 16.6487C6.09108 16.6731 6.30069 16.6828 6.52492 16.6828C7.79234 16.6828 8.95739 16.2538 9.88602 15.5275C8.69659 15.5031 7.69728 14.7232 7.35606 13.6508C7.77284 13.7117 8.14819 13.7117 8.57716 13.602C7.96472 13.4776 7.41425 13.145 7.01926 12.6607C6.62426 12.1764 6.40912 11.5703 6.41037 10.9453V10.9112C6.76866 11.1135 7.19032 11.2378 7.63148 11.2549C7.26062 11.0077 6.95647 10.6729 6.74602 10.28C6.53556 9.88715 6.42529 9.44843 6.42499 9.00276C6.42499 8.49823 6.55661 8.03757 6.79303 7.63785C7.47281 8.47468 8.32107 9.1591 9.28269 9.64662C10.2443 10.1341 11.2977 10.4139 12.3745 10.4676C11.9919 8.62741 13.3665 7.13819 15.0191 7.13819C15.799 7.13819 16.501 7.4648 16.9957 7.99126C17.6075 7.87671 18.1925 7.6476 18.7141 7.34049C18.5118 7.96689 18.0877 8.49579 17.5246 8.82971C18.0706 8.77121 18.5971 8.6201 19.0845 8.40805C18.7165 8.94914 18.2558 9.42929 17.7269 9.81196Z" fill="#A1D283"/>
</svg>
