<svg width="14" height="15" viewBox="0 0 14 15" fill="none" xmlns="http://www.w3.org/2000/svg">
<path d="M7.13748 0.858032C3.44515 0.858032 0.451294 3.85189 0.451294 7.54422C0.451294 11.2365 3.44515 14.2304 7.13748 14.2304C10.8298 14.2304 13.8237 11.2365 13.8237 7.54422C13.8237 3.85189 10.8298 0.858032 7.13748 0.858032ZM10.3507 5.89805C10.3552 5.96819 10.3552 6.04132 10.3552 6.11296C10.3552 8.30388 8.68665 10.8276 5.63757 10.8276C4.69732 10.8276 3.82573 10.5545 3.09144 10.0844C3.22576 10.0993 3.35411 10.1053 3.49142 10.1053C4.2675 10.1053 4.98089 9.8426 5.54951 9.39785C4.8212 9.38292 4.20929 8.90534 4.00035 8.24866C4.25556 8.28597 4.48539 8.28597 4.74806 8.21881C4.37305 8.14262 4.03598 7.93895 3.79411 7.6424C3.55225 7.34585 3.42051 6.97471 3.42127 6.59204V6.57114C3.64067 6.69501 3.89886 6.77113 4.16899 6.78158C3.94191 6.63023 3.75567 6.42519 3.6268 6.18464C3.49793 5.94409 3.43041 5.67545 3.43023 5.40255C3.43023 5.09361 3.51082 4.81154 3.65559 4.56678C4.07184 5.07919 4.59125 5.49828 5.18008 5.79681C5.7689 6.09533 6.41395 6.26661 7.07331 6.29951C6.83899 5.17271 7.68073 4.26082 8.69262 4.26082C9.1702 4.26082 9.60003 4.46081 9.903 4.78318C10.2776 4.71304 10.6358 4.57275 10.9552 4.3847C10.8313 4.76826 10.5716 5.09212 10.2269 5.29659C10.5612 5.26077 10.8835 5.16824 11.182 5.03839C10.9567 5.36972 10.6746 5.66373 10.3507 5.89805Z" fill="white"/>
</svg>
