<svg width="17" height="16" viewBox="0 0 17 16" fill="none" xmlns="http://www.w3.org/2000/svg">
<path d="M8.39753 0.253357C4.19396 0.253357 0.768555 3.67877 0.768555 7.88233C0.768555 12.0859 4.19396 15.5113 8.39753 15.5113C12.6011 15.5113 16.0265 12.0859 16.0265 7.88233C16.0265 3.67877 12.6011 0.253357 8.39753 0.253357ZM12.0442 6.12767L7.71855 10.4533C7.61174 10.5601 7.46679 10.6211 7.31421 10.6211C7.16163 10.6211 7.01668 10.5601 6.90988 10.4533L4.75088 8.29429C4.52964 8.07305 4.52964 7.70686 4.75088 7.48562C4.97212 7.26438 5.33831 7.26438 5.55955 7.48562L7.31421 9.24029L11.2355 5.31899C11.4567 5.09775 11.8229 5.09775 12.0442 5.31899C12.2654 5.54023 12.2654 5.8988 12.0442 6.12767Z" fill="black"/>
</svg>
